<svg xmlns="http://www.w3.org/2000/svg" width="120" height="120" viewBox="0 0 120 120">
  <g id="Group_4145" data-name="Group 4145" transform="translate(-107 -613)">
    <circle id="Ellipse_1366" data-name="Ellipse 1366" cx="60" cy="60" r="60" transform="translate(107 613)" fill="#e6e6e6"/>
    <g id="Group_4144" data-name="Group 4144" transform="translate(-88.582 416.998)">
      <path id="Path_3339" data-name="Path 3339" d="M255.143,254.721a16.146,16.146,0,0,0,11.84-4.939,16.938,16.938,0,0,0,0-23.842,16.659,16.659,0,0,0-23.677,0,16.935,16.935,0,0,0,0,23.841A16.15,16.15,0,0,0,255.143,254.721Z" fill="#fff"/>
      <path id="Path_3340" data-name="Path 3340" d="M284.441,274.828a41.555,41.555,0,0,0-.563-4.423,35.011,35.011,0,0,0-1.08-4.447,21.946,21.946,0,0,0-1.816-4.147,15.613,15.613,0,0,0-2.738-3.593,12.049,12.049,0,0,0-3.932-2.488,13.518,13.518,0,0,0-5.021-.915,5.072,5.072,0,0,0-2.721,1.162c-.816.536-1.77,1.155-2.835,1.84a16.182,16.182,0,0,1-3.669,1.628,14.152,14.152,0,0,1-8.973,0,16.145,16.145,0,0,1-3.665-1.627c-1.055-.679-2.01-1.3-2.838-1.841a5.071,5.071,0,0,0-2.72-1.163,13.506,13.506,0,0,0-5.02.916,12.066,12.066,0,0,0-3.934,2.489,15.65,15.65,0,0,0-2.736,3.592,22.056,22.056,0,0,0-1.816,4.148,35.124,35.124,0,0,0-1.08,4.446,41.947,41.947,0,0,0-.563,4.425c-.092,1.339-.139,2.729-.139,4.133a11.67,11.67,0,0,0,3.428,8.794A12.293,12.293,0,0,0,238.845,291h33.474a12.291,12.291,0,0,0,8.834-3.245,11.662,11.662,0,0,0,3.429-8.794C284.582,277.552,284.534,276.161,284.441,274.828Z" fill="#fff"/>
    </g>
  </g>
</svg>
