<svg xmlns="http://www.w3.org/2000/svg" width="340" height="250" viewBox="0 0 340 250">
  <g id="Group_4142" data-name="Group 4142" transform="translate(429.419 188.388)">
    <g id="Group_3912" data-name="Group 3912" transform="translate(-417.374 -119.88)">
      <g id="Group_3896" data-name="Group 3896">
        <path id="Path_3221" data-name="Path 3221" d="M-294.142-39.411l-63.328,42.6-62.37-93.781,63.328-42.6Z" transform="translate(419.84 133.192)" fill="#eee"/>
      </g>
      <g id="Group_3899" data-name="Group 3899" transform="translate(60.782 73.377)">
        <g id="Group_3897" data-name="Group 3897" transform="translate(0 11.396)">
          <path id="Path_3222" data-name="Path 3222" d="M-339.3-61.214l-.719,4.473L-371.5-61.3l.719-4.473Z" transform="translate(371.503 65.775)" fill="#e0e0e0"/>
        </g>
        <g id="Group_3898" data-name="Group 3898" transform="translate(11.337)">
          <path id="Path_3223" data-name="Path 3223" d="M-357.479-74.839l4.517.655-5.009,31.172-4.517-.654Z" transform="translate(362.487 74.839)" fill="#e0e0e0"/>
        </g>
      </g>
      <g id="Group_3901" data-name="Group 3901" transform="translate(68.175 35.601)">
        <g id="Group_3900" data-name="Group 3900">
          <path id="Path_3224" data-name="Path 3224" d="M-365.624-104.88" transform="translate(365.624 104.88)" fill="none" stroke="#fff" stroke-miterlimit="10" stroke-width="1"/>
        </g>
      </g>
      <g id="Group_3903" data-name="Group 3903" transform="translate(19.619 33.755)">
        <g id="Group_3902" data-name="Group 3902">
          <path id="Path_3225" data-name="Path 3225" d="M-375.726-106.347c.045.068-6.3,4.416-14.174,9.711s-14.292,9.535-14.337,9.467,6.3-4.416,14.175-9.713S-375.772-106.415-375.726-106.347Z" transform="translate(404.238 106.348)" fill="#c4c4c4"/>
        </g>
      </g>
      <g id="Group_3905" data-name="Group 3905" transform="translate(24.116 27.876)">
        <g id="Group_3904" data-name="Group 3904">
          <path id="Path_3226" data-name="Path 3226" d="M-353.358-111.023c.045.068-10.508,7.247-23.57,16.033S-400.617-79.135-400.662-79.2s10.506-7.245,23.571-16.034S-353.4-111.091-353.358-111.023Z" transform="translate(400.662 111.023)" fill="#c4c4c4"/>
        </g>
      </g>
      <g id="Group_3907" data-name="Group 3907" transform="translate(28.785 34.895)">
        <g id="Group_3906" data-name="Group 3906">
          <path id="Path_3227" data-name="Path 3227" d="M-349.646-105.441c.045.068-10.509,7.247-23.568,16.033S-396.9-73.553-396.949-73.621s10.506-7.244,23.571-16.033S-349.691-105.509-349.646-105.441Z" transform="translate(396.949 105.441)" fill="#c4c4c4"/>
        </g>
      </g>
      <g id="Group_3909" data-name="Group 3909" transform="translate(33.452 41.915)">
        <g id="Group_3908" data-name="Group 3908">
          <path id="Path_3228" data-name="Path 3228" d="M-345.933-99.858c.045.068-10.509,7.245-23.57,16.031s-23.689,15.856-23.734,15.789,10.506-7.245,23.571-16.034S-345.978-99.926-345.933-99.858Z" transform="translate(393.237 99.858)" fill="#c4c4c4"/>
        </g>
      </g>
      <g id="Group_3911" data-name="Group 3911" transform="translate(38.121 48.934)">
        <g id="Group_3910" data-name="Group 3910">
          <path id="Path_3229" data-name="Path 3229" d="M-342.221-94.276c.045.068-10.508,7.247-23.568,16.031s-23.689,15.856-23.734,15.789,10.506-7.245,23.571-16.034S-342.266-94.344-342.221-94.276Z" transform="translate(389.524 94.276)" fill="#e0e0e0"/>
        </g>
      </g>
    </g>
    <g id="Group_3929" data-name="Group 3929" transform="translate(-194.984 -57.621)">
      <g id="Group_3913" data-name="Group 3913">
        <path id="Path_3230" data-name="Path 3230" d="M-137.805-4.449l-53.185,35.776-52.38-78.76,53.185-35.776Z" transform="translate(243.371 83.209)" fill="#eee"/>
      </g>
      <g id="Group_3916" data-name="Group 3916" transform="translate(51.046 61.624)">
        <g id="Group_3914" data-name="Group 3914" transform="translate(0 9.571)">
          <path id="Path_3231" data-name="Path 3231" d="M-175.733-22.76l-.6,3.757-26.439-3.831.6-3.757Z" transform="translate(202.776 26.59)" fill="#c4c4c4"/>
        </g>
        <g id="Group_3915" data-name="Group 3915" transform="translate(9.521 0)">
          <path id="Path_3232" data-name="Path 3232" d="M-191-34.2l3.794.55-4.206,26.18-3.794-.55Z" transform="translate(195.204 34.202)" fill="#c4c4c4"/>
        </g>
      </g>
      <g id="Group_3918" data-name="Group 3918" transform="translate(57.255 29.898)">
        <g id="Group_3917" data-name="Group 3917">
          <path id="Path_3233" data-name="Path 3233" d="M-197.838-59.432" transform="translate(197.838 59.432)" fill="none" stroke="#fff" stroke-miterlimit="10" stroke-width="1"/>
        </g>
      </g>
      <g id="Group_3920" data-name="Group 3920" transform="translate(16.477 28.348)">
        <g id="Group_3919" data-name="Group 3919">
          <path id="Path_3234" data-name="Path 3234" d="M-206.323-60.664c.045.068-5.279,3.73-11.89,8.176s-12.009,8-12.054,7.931,5.278-3.727,11.89-8.176S-206.368-60.732-206.323-60.664Z" transform="translate(230.267 60.665)" fill="#e0e0e0"/>
        </g>
      </g>
      <g id="Group_3922" data-name="Group 3922" transform="translate(20.253 23.412)">
        <g id="Group_3921" data-name="Group 3921">
          <path id="Path_3235" data-name="Path 3235" d="M-187.537-64.59c.045.068-8.812,6.1-19.781,13.484s-19.9,13.306-19.946,13.238,8.811-6.1,19.782-13.485S-187.583-64.658-187.537-64.59Z" transform="translate(227.264 64.59)" fill="#e0e0e0"/>
        </g>
      </g>
      <g id="Group_3924" data-name="Group 3924" transform="translate(24.174 29.306)">
        <g id="Group_3923" data-name="Group 3923">
          <path id="Path_3236" data-name="Path 3236" d="M-184.419-59.9c.045.068-8.812,6.1-19.781,13.484s-19.9,13.306-19.946,13.24,8.81-6.1,19.782-13.486S-184.465-59.97-184.419-59.9Z" transform="translate(224.146 59.902)" fill="#e0e0e0"/>
        </g>
      </g>
      <g id="Group_3926" data-name="Group 3926" transform="translate(28.095 35.201)">
        <g id="Group_3925" data-name="Group 3925">
          <path id="Path_3237" data-name="Path 3237" d="M-181.3-55.214c.045.068-8.812,6.1-19.781,13.484s-19.9,13.308-19.946,13.24,8.81-6.1,19.782-13.485S-181.347-55.282-181.3-55.214Z" transform="translate(221.028 55.214)" fill="#e0e0e0"/>
        </g>
      </g>
      <g id="Group_3928" data-name="Group 3928" transform="translate(32.015 41.096)">
        <g id="Group_3927" data-name="Group 3927">
          <path id="Path_3238" data-name="Path 3238" d="M-178.183-50.526c.045.068-8.812,6.1-19.781,13.484s-19.9,13.308-19.946,13.24,8.81-6.1,19.782-13.485S-178.229-50.594-178.183-50.526Z" transform="translate(217.91 50.526)" fill="#e0e0e0"/>
        </g>
      </g>
    </g>
    <g id="Group_3946" data-name="Group 3946" transform="translate(-329.952 -147.219)">
      <g id="Group_3930" data-name="Group 3930">
        <path id="Path_3239" data-name="Path 3239" d="M-292.45-38.132-350.48-69.345l45.7-85.936,58.031,31.213Z" transform="translate(350.48 155.281)" fill="#eee"/>
      </g>
      <g id="Group_3933" data-name="Group 3933" transform="translate(28.084 64.284)">
        <g id="Group_3931" data-name="Group 3931" transform="translate(6.985)">
          <path id="Path_3240" data-name="Path 3240" d="M-309.564-78.176l-3.682,1.268-9.345-25.982,3.682-1.268Z" transform="translate(322.591 104.158)" fill="#c4c4c4"/>
        </g>
        <g id="Group_3932" data-name="Group 3932" transform="translate(0 7.342)">
          <path id="Path_3241" data-name="Path 3241" d="M-302.489-98.319l1.341,3.728-25.657,8.837-1.341-3.728Z" transform="translate(328.146 98.319)" fill="#c4c4c4"/>
        </g>
      </g>
      <g id="Group_3935" data-name="Group 3935" transform="translate(78.725 49.404)">
        <g id="Group_3934" data-name="Group 3934">
          <path id="Path_3242" data-name="Path 3242" d="M-287.874-115.992" transform="translate(287.874 115.992)" fill="none" stroke="#fff" stroke-miterlimit="10" stroke-width="1"/>
        </g>
      </g>
      <g id="Group_3937" data-name="Group 3937" transform="translate(45.846 19.237)">
        <g id="Group_3936" data-name="Group 3936">
          <path id="Path_3243" data-name="Path 3243" d="M-287.895-125.927c-.047.086-5.931-2.991-13.145-6.872s-13.027-7.1-12.981-7.181,5.929,2.991,13.145,6.872S-287.85-126.013-287.895-125.927Z" transform="translate(314.021 139.982)" fill="#c4c4c4"/>
        </g>
      </g>
      <g id="Group_3939" data-name="Group 3939" transform="translate(42.55 25.434)">
        <g id="Group_3938" data-name="Group 3938">
          <path id="Path_3244" data-name="Path 3244" d="M-273.3-111.738c-.045.086-9.787-5.065-21.755-11.5s-21.637-11.727-21.592-11.812,9.784,5.064,21.756,11.5S-273.25-111.824-273.3-111.738Z" transform="translate(316.642 135.054)" fill="#c4c4c4"/>
        </g>
      </g>
      <g id="Group_3941" data-name="Group 3941" transform="translate(39.13 31.866)">
        <g id="Group_3940" data-name="Group 3940">
          <path id="Path_3245" data-name="Path 3245" d="M-276.016-106.623c-.045.086-9.785-5.065-21.754-11.5s-21.637-11.727-21.592-11.813,9.784,5.064,21.756,11.5S-275.97-106.709-276.016-106.623Z" transform="translate(319.362 129.939)" fill="#c4c4c4"/>
        </g>
      </g>
      <g id="Group_3943" data-name="Group 3943" transform="translate(35.71 38.298)">
        <g id="Group_3942" data-name="Group 3942">
          <path id="Path_3246" data-name="Path 3246" d="M-278.736-101.508c-.045.086-9.785-5.064-21.754-11.5s-21.637-11.727-21.592-11.813,9.784,5.064,21.756,11.5S-278.691-101.594-278.736-101.508Z" transform="translate(322.082 124.824)" fill="#c4c4c4"/>
        </g>
      </g>
      <g id="Group_3945" data-name="Group 3945" transform="translate(32.289 44.731)">
        <g id="Group_3944" data-name="Group 3944">
          <path id="Path_3247" data-name="Path 3247" d="M-281.456-96.392c-.045.086-9.787-5.065-21.754-11.5s-21.637-11.728-21.592-11.813,9.784,5.064,21.756,11.5S-281.411-96.478-281.456-96.392Z" transform="translate(324.802 119.708)" fill="#c4c4c4"/>
        </g>
      </g>
    </g>
    <rect id="Rectangle_1504" data-name="Rectangle 1504" width="1.458" height="24.966" transform="translate(-255.425 -188.388)" opacity="0.2"/>
    <g id="Group_3949" data-name="Group 3949" transform="translate(-288.689 -188.388)">
      <g id="Group_3948" data-name="Group 3948" transform="translate(0 24.95)">
        <g id="Group_3947" data-name="Group 3947">
          <path id="Path_3248" data-name="Path 3248" d="M-317.7-138.329h67.988s-6.277-30.217-34.508-30.217C-309.335-168.546-317.7-138.329-317.7-138.329Z" transform="translate(317.703 168.546)" fill="#01095e"/>
        </g>
      </g>
      <rect id="Rectangle_1505" data-name="Rectangle 1505" width="1.458" height="24.966" transform="translate(33.265)" fill="#01095e"/>
    </g>
    <g id="Group_3951" data-name="Group 3951" transform="translate(-429.419 59.629)">
      <g id="Group_3950" data-name="Group 3950" transform="translate(0 0)">
        <path id="Path_3249" data-name="Path 3249" d="M-103.086,10.183c0,.082-73.058.147-163.158.147-90.132,0-163.175-.065-163.175-.147s73.043-.148,163.175-.148C-176.144,10.035-103.086,10.1-103.086,10.183Z" transform="translate(429.419 -10.035)" fill="#263238"/>
      </g>
    </g>
    <g id="Group_3961" data-name="Group 3961" transform="translate(-417.374 24.229)">
      <g id="Group_3952" data-name="Group 3952" transform="translate(3.903)">
        <path id="Path_3250" data-name="Path 3250" d="M-414.65-18.117a7.1,7.1,0,0,1,4.958,2.553,12.686,12.686,0,0,1,2.524,5.115c.954,3.59.367,7.825-.65,11.4-3.864-1.389-6.246-5.533-7.323-7.712-1.7-3.443-2.7-10.706.492-11.354" transform="translate(416.736 18.117)" fill="#01095e"/>
      </g>
      <g id="Group_3953" data-name="Group 3953" transform="translate(17.416 13.122)">
        <path id="Path_3251" data-name="Path 3251" d="M-405.025,2.611a6.134,6.134,0,0,1-.284-6.121,8.073,8.073,0,0,1,4.855-3.925A3.376,3.376,0,0,1-397.6-7.3a2.62,2.62,0,0,1,1,2.448,5.3,5.3,0,0,1-1.112,2.511c-1.879,2.558-4.163,4.687-7.315,4.949" transform="translate(405.99 7.682)" fill="#01095e"/>
      </g>
      <g id="Group_3955" data-name="Group 3955" transform="translate(17.682 17.46)">
        <g id="Group_3954" data-name="Group 3954" transform="translate(0 0)">
          <path id="Path_3252" data-name="Path 3252" d="M-404.655,13.718a4.392,4.392,0,0,1-.172-.746c-.1-.533-.236-1.22-.4-2.046a21.568,21.568,0,0,1-.423-6.871,13.152,13.152,0,0,1,2.534-6.368A8.866,8.866,0,0,1-401.647-3.8a5.385,5.385,0,0,1,.46-.333c.107-.072.166-.1.172-.1a13.831,13.831,0,0,0-1.948,2.036,13.566,13.566,0,0,0-2.419,6.287,23.225,23.225,0,0,0,.343,6.8c.138.868.25,1.572.314,2.061A4.022,4.022,0,0,1-404.655,13.718Z" transform="translate(405.778 4.232)" fill="#263238"/>
        </g>
      </g>
      <g id="Group_3957" data-name="Group 3957" transform="translate(7.235 5.462)">
        <g id="Group_3956" data-name="Group 3956">
          <path id="Path_3253" data-name="Path 3253" d="M-414.086-13.773a1.614,1.614,0,0,1,.155.294l.4.865c.341.753.821,1.85,1.4,3.209,1.164,2.719,2.72,6.5,4.344,10.707s3.007,8.059,3.97,10.856c.482,1.4.861,2.534,1.114,3.321.118.372.213.674.287.909a1.6,1.6,0,0,1,.082.322,1.54,1.54,0,0,1-.133-.3c-.086-.231-.2-.527-.333-.893-.293-.809-.7-1.925-1.195-3.291C-405,9.442-406.413,5.609-408.035,1.4s-3.15-7.995-4.269-10.731l-1.324-3.242-.352-.884A1.5,1.5,0,0,1-414.086-13.773Z" transform="translate(414.087 13.773)" fill="#263238"/>
        </g>
      </g>
      <g id="Group_3958" data-name="Group 3958" transform="translate(0 20.572)">
        <path id="Path_3254" data-name="Path 3254" d="M-405.621,5.145a14.186,14.186,0,0,0-11.018-6.885c-1.142-.084-2.516.109-3.025,1.141s.172,2.256.951,3.1a12.082,12.082,0,0,0,13.135,2.949" transform="translate(419.84 1.757)" fill="#01095e"/>
      </g>
      <g id="Group_3960" data-name="Group 3960" transform="translate(4.941 23.655)">
        <g id="Group_3959" data-name="Group 3959" transform="translate(0 0)">
          <path id="Path_3255" data-name="Path 3255" d="M-415.911.7A3.668,3.668,0,0,1-415.2.73a6.817,6.817,0,0,1,.834.1c.322.06.7.094,1.1.206a12.733,12.733,0,0,1,1.3.363,14.021,14.021,0,0,1,1.451.556,15.78,15.78,0,0,1,3.058,1.822,15.534,15.534,0,0,1,2.528,2.516,13.624,13.624,0,0,1,.89,1.28,11.444,11.444,0,0,1,.661,1.185,10.969,10.969,0,0,1,.455,1.024,6.472,6.472,0,0,1,.284.795,3.559,3.559,0,0,1,.185.7c-.057.02-.331-.973-1.093-2.426a12.277,12.277,0,0,0-.68-1.153,14.129,14.129,0,0,0-.9-1.245,16.088,16.088,0,0,0-2.5-2.457,16.435,16.435,0,0,0-3-1.811,14.9,14.9,0,0,0-1.42-.568c-.449-.174-.883-.28-1.276-.391C-414.9.817-415.917.763-415.911.7Z" transform="translate(415.911 -0.695)" fill="#263238"/>
        </g>
      </g>
    </g>
    <g id="Group_4127" data-name="Group 4127" transform="translate(-200.939 -151.232)">
      <g id="Group_3965" data-name="Group 3965" transform="translate(36.735 20.045)">
        <g id="Group_3962" data-name="Group 3962">
          <path id="Path_3256" data-name="Path 3256" d="M-210.436-140.535c-1.66.385-2.468,2.3-2.626,4.01s.059,3.507-.653,5.063c-.8,1.752-2.716,3.042-2.78,4.968-.039,1.174.655,2.28.622,3.454-.055,1.93-2.012,3.388-2.114,5.315-.074,1.388.845,2.72.624,4.092-.172,1.068-1,1.909-1.348,2.932-.7,2.038.7,4.284,2.511,5.432a8.308,8.308,0,0,0,6.887.878,8.367,8.367,0,0,0,5.105-4.732c1-2.451.785-5.211.566-7.854q-1.02-12.349-1.515-24.737" transform="translate(218.892 141.713)" fill="#263238"/>
        </g>
        <g id="Group_3964" data-name="Group 3964" transform="translate(3.636 1.831)">
          <g id="Group_3963" data-name="Group 3963">
            <path id="Path_3257" data-name="Path 3257" d="M-216-111.854a1.993,1.993,0,0,0,.758-.907,3.217,3.217,0,0,0,.194-1.386,7.732,7.732,0,0,0-.411-1.838,5.255,5.255,0,0,1-.3-2.328,5.3,5.3,0,0,1,1.346-2.323,5.221,5.221,0,0,0,.762-1.164,1.9,1.9,0,0,0,.088-1.362c-.292-.927-1.195-1.61-1.61-2.68a2.915,2.915,0,0,1-.091-1.656,6.745,6.745,0,0,1,.544-1.486,12.687,12.687,0,0,0,1.122-2.671c.4-1.8.211-3.52.48-4.93a5.492,5.492,0,0,1,1.427-3.025,3.213,3.213,0,0,1,.746-.534,1.208,1.208,0,0,1,.3-.112,4.529,4.529,0,0,0-.964.728,5.552,5.552,0,0,0-1.3,2.978,19.038,19.038,0,0,0-.157,2.294,14.052,14.052,0,0,1-.264,2.665,12.735,12.735,0,0,1-1.125,2.734,3.749,3.749,0,0,0-.439,2.915c.358.966,1.268,1.652,1.608,2.7a2.177,2.177,0,0,1-.1,1.561,5.4,5.4,0,0,1-.81,1.224,5.151,5.151,0,0,0-1.315,2.194,5.124,5.124,0,0,0,.255,2.227,7.629,7.629,0,0,1,.375,1.889,3.254,3.254,0,0,1-.251,1.439,1.729,1.729,0,0,1-.578.717A.946.946,0,0,1-216-111.854Z" transform="translate(216 140.257)" fill="#455a64"/>
          </g>
        </g>
      </g>
      <path id="Path_3258" data-name="Path 3258" d="M-213.415-106.97-218.509-92.2l-21.246,1.146-3.544,7.928,22.181,2.257a8.367,8.367,0,0,0,11.091-4.947l5.92-16.617Z" transform="translate(249.344 170.703)" fill="#b78876"/>
      <g id="Group_3970" data-name="Group 3970" transform="translate(40.393 105.128)">
        <g id="Group_3968" data-name="Group 3968">
          <g id="Group_3966" data-name="Group 3966">
            <path id="Path_3259" data-name="Path 3259" d="M-176.5,23.81s-15.57-49.733-15.9-51.348c-.3-1.46,5.65-37.249,6.4-46.512l-21.037.788,0,.155-8.942.5,8.009,101.713h9.681l-.959-33.745A329.546,329.546,0,0,0-184.728,27.9Z" transform="translate(215.983 74.05)" fill="#b78876"/>
          </g>
          <g id="Group_3967" data-name="Group 3967" transform="translate(13.382 60.025)">
            <path id="Path_3260" data-name="Path 3260" d="M-201.6-4.835c.009-.308-.117-11.306-.117-11.306-.121.658-3.712-9.549-3.625-10.17C-205.294-26.632-201.6-4.835-201.6-4.835Z" transform="translate(205.341 26.315)" fill="#a36957"/>
          </g>
        </g>
        <g id="Group_3969" data-name="Group 3969" transform="translate(12.896 55.196)">
          <path id="Path_3261" data-name="Path 3261" d="M-205.649-30.155a2.249,2.249,0,0,0-.063.616,16.754,16.754,0,0,0,.013,1.686c.014.357.052.746.1,1.163s.109.863.206,1.325a22.755,22.755,0,0,0,.791,2.963c.7,2.057,1.479,3.858,2.03,5.163q.39.894.674,1.538a2.271,2.271,0,0,0,.287.548,2.326,2.326,0,0,0-.171-.595c-.13-.376-.327-.914-.58-1.577-.5-1.328-1.239-3.141-1.935-5.181a25.7,25.7,0,0,1-.8-2.919c-.1-.454-.169-.892-.233-1.3s-.106-.793-.133-1.146c-.067-.7-.1-1.275-.114-1.67A2.4,2.4,0,0,0-205.649-30.155Z" transform="translate(205.727 30.155)" fill="#a36957"/>
        </g>
      </g>
      <g id="Group_4002" data-name="Group 4002" transform="translate(41.556 207.436)">
        <g id="Group_4001" data-name="Group 4001" transform="translate(0 0)">
          <g id="Group_3972" data-name="Group 3972" transform="translate(0.002)">
            <g id="Group_3971" data-name="Group 3971">
              <path id="Path_3262" data-name="Path 3262" d="M-208.394,8.66l0-.914,9.916-.435.026,3.772-.611.041c-2.722.16-13.852.621-15.673.073C-216.771,10.584-208.394,8.66-208.394,8.66Z" transform="translate(215.057 -7.311)" fill="#00042e"/>
            </g>
          </g>
          <g id="Group_3974" data-name="Group 3974" transform="translate(0 3.538)">
            <g id="Group_3973" data-name="Group 3973">
              <path id="Path_3263" data-name="Path 3263" d="M-198.316,10.13a.753.753,0,0,1-.17.019l-.487.031c-.487.024-1.086.052-1.793.084-1.514.06-3.608.116-5.92.127s-4.406-.028-5.921-.074l-1.793-.069-.488-.026a.971.971,0,0,1-.17-.018.957.957,0,0,1,.171-.006l.488,0,1.794.03c1.514.025,3.606.049,5.919.039s4.4-.053,5.918-.091l1.794-.047.488-.009A1.042,1.042,0,0,1-198.316,10.13Z" transform="translate(215.058 -10.125)" fill="#263238"/>
            </g>
          </g>
          <g id="Group_3976" data-name="Group 3976" transform="translate(2.499 2.314)">
            <g id="Group_3975" data-name="Group 3975">
              <path id="Path_3264" data-name="Path 3264" d="M-212.118,10.7a4.117,4.117,0,0,0-.338-.86,3.973,3.973,0,0,0-.614-.688,1.328,1.328,0,0,1,.715.625A1.337,1.337,0,0,1-212.118,10.7Z" transform="translate(213.071 -9.152)" fill="#263238"/>
            </g>
          </g>
          <g id="Group_3978" data-name="Group 3978" transform="translate(5.828 1.544)">
            <g id="Group_3977" data-name="Group 3977">
              <path id="Path_3265" data-name="Path 3265" d="M-209.894,9.364c-.028.018-.169-.152-.313-.38s-.239-.426-.211-.444.167.152.312.38S-209.866,9.346-209.894,9.364Z" transform="translate(210.423 -8.539)" fill="#263238"/>
            </g>
          </g>
          <g id="Group_3980" data-name="Group 3980" transform="translate(6.535 1.384)">
            <g id="Group_3979" data-name="Group 3979">
              <path id="Path_3266" data-name="Path 3266" d="M-209.241,8.969c-.023.025-.179-.079-.348-.231s-.292-.3-.269-.322.177.078.348.231S-209.22,8.944-209.241,8.969Z" transform="translate(209.861 -8.412)" fill="#263238"/>
            </g>
          </g>
          <g id="Group_3982" data-name="Group 3982" transform="translate(6.626 0.95)">
            <g id="Group_3981" data-name="Group 3981">
              <path id="Path_3267" data-name="Path 3267" d="M-208.758,8.12a1.181,1.181,0,0,1-.514.068,1.148,1.148,0,0,1-.517-.053,1.18,1.18,0,0,1,.514-.068A1.152,1.152,0,0,1-208.758,8.12Z" transform="translate(209.789 -8.067)" fill="#263238"/>
            </g>
          </g>
          <g id="Group_3984" data-name="Group 3984" transform="translate(6.661 0.332)">
            <g id="Group_3983" data-name="Group 3983">
              <path id="Path_3268" data-name="Path 3268" d="M-208.594,7.585a.993.993,0,0,1-.575.17.988.988,0,0,1-.592-.077,3.16,3.16,0,0,1,.583-.043A3.213,3.213,0,0,1-208.594,7.585Z" transform="translate(209.761 -7.575)" fill="#263238"/>
            </g>
          </g>
          <g id="Group_3986" data-name="Group 3986" transform="translate(4.159 0.617)">
            <g id="Group_3985" data-name="Group 3985">
              <path id="Path_3269" data-name="Path 3269" d="M-209.89,8.69a1.8,1.8,0,0,1-.634,0,3.627,3.627,0,0,1-.675-.147,1.748,1.748,0,0,1-.387-.158.343.343,0,0,1-.157-.2.253.253,0,0,1,.094-.255,1.159,1.159,0,0,1,1.44.337,1.136,1.136,0,0,1,.207.425c.026.108.025.171.018.172a1.81,1.81,0,0,0-.29-.543,1.15,1.15,0,0,0-.543-.352.982.982,0,0,0-.756.054c-.1.075-.06.195.052.262a1.873,1.873,0,0,0,.357.152,4.493,4.493,0,0,0,.654.168C-210.131,8.67-209.89,8.67-209.89,8.69Z" transform="translate(211.751 -7.802)" fill="#263238"/>
            </g>
          </g>
          <g id="Group_3988" data-name="Group 3988" transform="translate(5.775 0.301)">
            <g id="Group_3987" data-name="Group 3987">
              <path id="Path_3270" data-name="Path 3270" d="M-210.384,8.786a.622.622,0,0,1-.075-.441,1.04,1.04,0,0,1,.172-.467.631.631,0,0,1,.526-.327.254.254,0,0,1,.2.293.716.716,0,0,1-.107.285,1.96,1.96,0,0,1-.3.387.9.9,0,0,1-.362.259c-.011-.015.126-.114.3-.317a2.306,2.306,0,0,0,.263-.384c.087-.136.146-.377-.014-.406s-.319.145-.416.272a1.05,1.05,0,0,0-.177.416A2.194,2.194,0,0,0-210.384,8.786Z" transform="translate(210.465 -7.551)" fill="#263238"/>
            </g>
          </g>
          <g id="Group_3990" data-name="Group 3990" transform="translate(13.034 0.765)">
            <g id="Group_3989" data-name="Group 3989">
              <path id="Path_3271" data-name="Path 3271" d="M-201.2,7.984c0,.023-.282-.026-.728.029a3.176,3.176,0,0,0-1.588.664,3.208,3.208,0,0,0-.988,1.416c-.15.426-.162.712-.185.709a.561.561,0,0,1,0-.2,2.71,2.71,0,0,1,.106-.536,3.069,3.069,0,0,1,.995-1.483,3.038,3.038,0,0,1,1.654-.656,2.574,2.574,0,0,1,.543.013A.548.548,0,0,1-201.2,7.984Z" transform="translate(204.693 -7.919)" fill="#263238"/>
            </g>
          </g>
          <g id="Group_3992" data-name="Group 3992" transform="translate(8.899 2.741)">
            <g id="Group_3991" data-name="Group 3991">
              <path id="Path_3272" data-name="Path 3272" d="M-205.1,9.5a5.608,5.608,0,0,1-1.441.137,5.51,5.51,0,0,1-1.442-.122c0-.034.648.008,1.441,0S-205.1,9.468-205.1,9.5Z" transform="translate(207.981 -9.491)" fill="#263238"/>
            </g>
          </g>
          <g id="Group_3994" data-name="Group 3994" transform="translate(13.434 2.729)">
            <g id="Group_3993" data-name="Group 3993">
              <path id="Path_3273" data-name="Path 3273" d="M-204.094,9.485c.024.024-.053.137-.118.287s-.1.28-.135.278-.052-.156.026-.327S-204.115,9.461-204.094,9.485Z" transform="translate(204.374 -9.481)" fill="#263238"/>
            </g>
          </g>
          <g id="Group_3996" data-name="Group 3996" transform="translate(14.067 1.813)">
            <g id="Group_3995" data-name="Group 3995">
              <path id="Path_3274" data-name="Path 3274" d="M-203.5,8.757c.023.024-.04.127-.142.231s-.2.171-.226.147.04-.126.141-.231S-203.521,8.734-203.5,8.757Z" transform="translate(203.871 -8.752)" fill="#263238"/>
            </g>
          </g>
          <g id="Group_3998" data-name="Group 3998" transform="translate(14.919 1.341)">
            <g id="Group_3997" data-name="Group 3997">
              <path id="Path_3275" data-name="Path 3275" d="M-202.631,8.433c-.008.034-.138.033-.283.086s-.249.13-.275.107.057-.16.236-.221S-202.621,8.4-202.631,8.433Z" transform="translate(203.194 -8.377)" fill="#263238"/>
            </g>
          </g>
          <g id="Group_4000" data-name="Group 4000" transform="translate(15.925 1.175)">
            <g id="Group_3999" data-name="Group 3999">
              <path id="Path_3276" data-name="Path 3276" d="M-202.095,8.269c.011.03-.045.082-.127.113s-.157.034-.17,0,.044-.082.127-.114S-202.108,8.237-202.095,8.269Z" transform="translate(202.393 -8.246)" fill="#263238"/>
            </g>
          </g>
        </g>
      </g>
      <g id="Group_4034" data-name="Group 4034" transform="translate(66.298 202.591)">
        <g id="Group_4033" data-name="Group 4033" transform="translate(0 0)">
          <g id="Group_4004" data-name="Group 4004" transform="translate(0)">
            <g id="Group_4003" data-name="Group 4003">
              <path id="Path_3277" data-name="Path 3277" d="M-190.226,8.772l-.376-.832,8.869-4.482,1.562,3.43-.542.289c-2.417,1.268-12.382,6.273-14.267,6.524C-197.085,13.978-190.226,8.772-190.226,8.772Z" transform="translate(195.382 -3.458)" fill="#00042e"/>
            </g>
          </g>
          <g id="Group_4006" data-name="Group 4006" transform="translate(0 3.165)">
            <g id="Group_4005" data-name="Group 4005">
              <path id="Path_3278" data-name="Path 3278" d="M-180.139,5.975a.837.837,0,0,1-.147.087l-.431.23-1.6.815c-1.357.679-3.244,1.592-5.349,2.554s-4.031,1.791-5.432,2.372l-1.665.677-.455.176a.9.9,0,0,1-.162.054.952.952,0,0,1,.153-.077l.446-.2,1.649-.712c1.393-.6,3.311-1.442,5.416-2.4s4-1.862,5.362-2.521l1.618-.781.441-.209A.939.939,0,0,1-180.139,5.975Z" transform="translate(195.382 -5.975)" fill="#263238"/>
            </g>
          </g>
          <g id="Group_4008" data-name="Group 4008" transform="translate(1.752 7.9)">
            <g id="Group_4007" data-name="Group 4007">
              <path id="Path_3279" data-name="Path 3279" d="M-192.491,10.774a3.958,3.958,0,0,0-.658-.645,4.07,4.07,0,0,0-.84-.375,1.322,1.322,0,0,1,.907.275A1.326,1.326,0,0,1-192.491,10.774Z" transform="translate(193.989 -9.74)" fill="#263238"/>
            </g>
          </g>
          <g id="Group_4010" data-name="Group 4010" transform="translate(4.476 5.831)">
            <g id="Group_4009" data-name="Group 4009">
              <path id="Path_3280" data-name="Path 3280" d="M-191.007,8.636c-.019.028-.215-.069-.44-.218s-.392-.29-.373-.318.215.069.439.218S-190.99,8.608-191.007,8.636Z" transform="translate(191.822 -8.095)" fill="#263238"/>
            </g>
          </g>
          <g id="Group_4012" data-name="Group 4012" transform="translate(5.055 5.39)">
            <g id="Group_4011" data-name="Group 4011">
              <path id="Path_3281" data-name="Path 3281" d="M-190.572,8.007c-.01.033-.195,0-.412-.068s-.387-.151-.377-.182.195,0,.412.068S-190.562,7.975-190.572,8.007Z" transform="translate(191.362 -7.744)" fill="#263238"/>
            </g>
          </g>
          <g id="Group_4014" data-name="Group 4014" transform="translate(4.985 4.583)">
            <g id="Group_4013" data-name="Group 4013">
              <path id="Path_3282" data-name="Path 3282" d="M-190.483,7.109c.014.03-.184.153-.441.274a1.169,1.169,0,0,1-.493.165c-.014-.03.184-.152.441-.274A1.164,1.164,0,0,1-190.483,7.109Z" transform="translate(191.418 -7.103)" fill="#263238"/>
            </g>
          </g>
          <g id="Group_4016" data-name="Group 4016" transform="translate(4.779 3.914)">
            <g id="Group_4015" data-name="Group 4015">
              <path id="Path_3283" data-name="Path 3283" d="M-190.554,6.574c.021.021-.16.23-.455.391a.982.982,0,0,1-.572.174,3.234,3.234,0,0,1,.516-.279A3.118,3.118,0,0,1-190.554,6.574Z" transform="translate(191.581 -6.571)" fill="#263238"/>
            </g>
          </g>
          <g id="Group_4018" data-name="Group 4018" transform="translate(2.685 5.329)">
            <g id="Group_4017" data-name="Group 4017">
              <path id="Path_3284" data-name="Path 3284" d="M-191.3,8.088a1.806,1.806,0,0,1-.58.26,3.67,3.67,0,0,1-.675.143,1.805,1.805,0,0,1-.417.015.345.345,0,0,1-.225-.116.251.251,0,0,1-.016-.272,1.157,1.157,0,0,1,1.45-.285,1.128,1.128,0,0,1,.362.3c.068.089.092.146.085.15a1.811,1.811,0,0,0-.485-.375,1.138,1.138,0,0,0-.639-.1.981.981,0,0,0-.666.361c-.062.111.023.2.152.218a2,2,0,0,0,.387-.009,4.333,4.333,0,0,0,.665-.116C-191.529,8.171-191.308,8.071-191.3,8.088Z" transform="translate(193.246 -7.696)" fill="#263238"/>
            </g>
          </g>
          <g id="Group_4020" data-name="Group 4020" transform="translate(4.198 4.43)">
            <g id="Group_4019" data-name="Group 4019">
              <path id="Path_3285" data-name="Path 3285" d="M-191.747,8.37A.629.629,0,0,1-191.995,8a1.056,1.056,0,0,1-.034-.5.641.641,0,0,1,.347-.514c.142-.044.473.243.5.35s-.167.052-.177.141a1.964,1.964,0,0,1-.114.477.9.9,0,0,1-.225.385c-.016-.009.069-.156.145-.412a2.268,2.268,0,0,0,.086-.459c.024-.158-.021-.4-.179-.365s-.233.264-.269.42a1.063,1.063,0,0,0,.006.453A2.442,2.442,0,0,0-191.747,8.37Z" transform="translate(192.044 -6.981)" fill="#263238"/>
            </g>
          </g>
          <g id="Group_4022" data-name="Group 4022" transform="translate(11.681 0.774)">
            <g id="Group_4021" data-name="Group 4021">
              <path id="Path_3286" data-name="Path 3286" d="M-183.828,4.075c.008.021-.269.093-.653.326a3.2,3.2,0,0,0-1.178,1.261,3.226,3.226,0,0,0-.326,1.7c.038.45.142.717.121.723a.6.6,0,0,1-.083-.182,2.672,2.672,0,0,1-.121-.532,3.087,3.087,0,0,1,.3-1.763,3.066,3.066,0,0,1,1.242-1.279,2.517,2.517,0,0,1,.5-.213A.55.55,0,0,1-183.828,4.075Z" transform="translate(186.093 -4.073)" fill="#263238"/>
            </g>
          </g>
          <g id="Group_4024" data-name="Group 4024" transform="translate(7.772 4.485)">
            <g id="Group_4023" data-name="Group 4023">
              <path id="Path_3287" data-name="Path 3287" d="M-186.577,7.026a5.522,5.522,0,0,1-1.259.719,5.552,5.552,0,0,1-1.366.483c-.011-.033.593-.259,1.317-.592S-186.594,7-186.577,7.026Z" transform="translate(189.201 -7.024)" fill="#263238"/>
            </g>
          </g>
          <g id="Group_4026" data-name="Group 4026" transform="translate(12.041 3.671)">
            <g id="Group_4025" data-name="Group 4025">
              <path id="Path_3288" data-name="Path 3288" d="M-185.7,6.378c.033.013.009.147.01.309s.023.3-.01.311-.111-.122-.109-.311S-185.726,6.366-185.7,6.378Z" transform="translate(185.806 -6.377)" fill="#263238"/>
            </g>
          </g>
          <g id="Group_4028" data-name="Group 4028" transform="translate(12.243 2.538)">
            <g id="Group_4027" data-name="Group 4027">
              <path id="Path_3289" data-name="Path 3289" d="M-185.449,5.477c.031.011.015.132-.035.269s-.116.239-.146.228-.016-.132.034-.269S-185.479,5.465-185.449,5.477Z" transform="translate(185.646 -5.476)" fill="#263238"/>
            </g>
          </g>
          <g id="Group_4030" data-name="Group 4030" transform="translate(12.775 1.709)">
            <g id="Group_4029" data-name="Group 4029">
              <path id="Path_3290" data-name="Path 3290" d="M-184.779,4.833c.008.034-.112.088-.223.195s-.175.22-.207.21-.014-.168.126-.3S-184.782,4.8-184.779,4.833Z" transform="translate(185.223 -4.817)" fill="#263238"/>
            </g>
          </g>
          <g id="Group_4032" data-name="Group 4032" transform="translate(13.584 1.231)">
            <g id="Group_4031" data-name="Group 4031">
              <path id="Path_3291" data-name="Path 3291" d="M-184.349,4.445c.024.023-.008.093-.069.156s-.13.1-.153.072.008-.093.068-.156S-184.373,4.421-184.349,4.445Z" transform="translate(184.579 -4.437)" fill="#263238"/>
            </g>
          </g>
        </g>
      </g>
      <g id="Group_4057" data-name="Group 4057" transform="translate(30.725 48.534)">
        <g id="Group_4047" data-name="Group 4047" transform="translate(0.11)">
          <g id="Group_4046" data-name="Group 4046">
            <g id="Group_4039" data-name="Group 4039">
              <g id="Group_4038" data-name="Group 4038">
                <g id="Group_4037" data-name="Group 4037">
                  <g id="Group_4036" data-name="Group 4036">
                    <g id="Group_4035" data-name="Group 4035">
                      <path id="Path_3292" data-name="Path 3292" d="M-185.409-79.3-187.06-99.56l8.482.152s.394-2.986-.856-9.54a11.046,11.046,0,0,0-6.412-7.948v-.054l-.258-.068a24.136,24.136,0,0,0-7.77-2.038l-10.412.121s-7.953-1-12.356,4.7c-1.7,2.2-6.942,17.231-6.942,17.231l12.5,6.052-1.19-8.336s.236,6.043,1,7.96c.428,1.066,1.665,4.38,1.665,4.38l-.162,10Z" transform="translate(223.584 119.057)" fill="#01095e"/>
                    </g>
                  </g>
                </g>
              </g>
            </g>
            <g id="Group_4040" data-name="Group 4040" transform="translate(30.886 12.076)">
              <path id="Path_3293" data-name="Path 3293" d="M-197.476-104.974l-1.545,6.622h14.579l-.959-11.1Z" transform="translate(199.022 109.453)" fill="#01095e"/>
            </g>
            <g id="Group_4042" data-name="Group 4042" transform="translate(32.26 22.863)">
              <g id="Group_4041" data-name="Group 4041">
                <path id="Path_3294" data-name="Path 3294" d="M-184.724-100.561a10.971,10.971,0,0,0-1.929-.192c-1.195-.07-2.848-.13-4.675-.121s-3.482.088-4.675.184a10.258,10.258,0,0,0-1.925.239,12.981,12.981,0,0,0,1.938-.011c1.193-.036,2.842-.079,4.664-.088s3.471.014,4.666.026A12.278,12.278,0,0,0-184.724-100.561Z" transform="translate(197.929 100.875)" fill="#263238"/>
              </g>
            </g>
            <g id="Group_4044" data-name="Group 4044" transform="translate(31.751 12.021)">
              <g id="Group_4043" data-name="Group 4043">
                <path id="Path_3295" data-name="Path 3295" d="M-198.281-109.5a8.64,8.64,0,0,0-.049,1.685c.01,1.039.048,2.473.109,4.057s.135,3.018.2,4.054a8.654,8.654,0,0,0,.179,1.675,8.811,8.811,0,0,0,.048-1.684c-.01-1.039-.048-2.473-.109-4.058s-.135-3.017-.2-4.053A8.879,8.879,0,0,0-198.281-109.5Z" transform="translate(198.334 109.497)" fill="#263238"/>
              </g>
            </g>
            <g id="Group_4045" data-name="Group 4045" transform="translate(18.536 17.756)" opacity="0.3">
              <path id="Path_3296" data-name="Path 3296" d="M-208.843-104.936s3.24,24.163,12.349,23.523c0,0,4.1-.049,5.421-2.79v-1.079Z" transform="translate(208.843 104.936)"/>
            </g>
          </g>
        </g>
        <g id="Group_4048" data-name="Group 4048" transform="translate(30.169 13.446)" opacity="0.3">
          <path id="Path_3297" data-name="Path 3297" d="M-197.935-108.364l-1.744,11.845,1.129,2.078,1.859-4.064-.786-.019Z" transform="translate(199.679 108.364)"/>
        </g>
        <g id="Group_4050" data-name="Group 4050" transform="translate(11.168 16.801)">
          <g id="Group_4049" data-name="Group 4049">
            <path id="Path_3298" data-name="Path 3298" d="M-211.873-90.385a2.461,2.461,0,0,1-.247-.566c-.142-.371-.329-.912-.547-1.587a48.174,48.174,0,0,1-1.395-5.361,38.928,38.928,0,0,1-.692-5.5c-.034-.709-.044-1.283-.034-1.68a2.559,2.559,0,0,1,.043-.616c.047,0,.078.875.2,2.282a51.474,51.474,0,0,0,.772,5.457c.419,2.113.922,4,1.305,5.358q.268.947.456,1.611A2.557,2.557,0,0,1-211.873-90.385Z" transform="translate(214.79 105.696)" fill="#263238"/>
          </g>
        </g>
        <g id="Group_4052" data-name="Group 4052" transform="translate(17.016 36.639)">
          <g id="Group_4051" data-name="Group 4051">
            <path id="Path_3299" data-name="Path 3299" d="M-209.387-87.5c-.078.024-.3-.5-.5-1.163a2.833,2.833,0,0,1-.221-1.251,2.847,2.847,0,0,1,.5,1.164A2.843,2.843,0,0,1-209.387-87.5Z" transform="translate(210.139 89.92)" fill="#263238"/>
          </g>
        </g>
        <g id="Group_4054" data-name="Group 4054" transform="translate(18.693 35.42)">
          <g id="Group_4053" data-name="Group 4053">
            <path id="Path_3300" data-name="Path 3300" d="M-208.472-87.347a3.635,3.635,0,0,1-.333-1.767,3.629,3.629,0,0,1,.282-1.776,11.973,11.973,0,0,1,.013,1.772A11.956,11.956,0,0,1-208.472-87.347Z" transform="translate(208.806 90.889)" fill="#263238"/>
          </g>
        </g>
        <g id="Group_4056" data-name="Group 4056" transform="translate(0 21.92)">
          <g id="Group_4055" data-name="Group 4055">
            <path id="Path_3301" data-name="Path 3301" d="M-210.811-95.16c-.036.074-2.945-1.314-6.5-3.1s-6.4-3.291-6.364-3.364,2.944,1.314,6.5,3.1S-210.776-95.233-210.811-95.16Z" transform="translate(223.671 101.625)" fill="#263238"/>
          </g>
        </g>
      </g>
      <g id="Group_4106" data-name="Group 4106" transform="translate(44.36 19.101)">
        <g id="Group_4088" data-name="Group 4088" transform="translate(0 3.768)">
          <g id="Group_4087" data-name="Group 4087">
            <g id="Group_4086" data-name="Group 4086">
              <g id="Group_4085" data-name="Group 4085">
                <g id="Group_4084" data-name="Group 4084">
                  <g id="Group_4060" data-name="Group 4060">
                    <g id="Group_4059" data-name="Group 4059">
                      <g id="Group_4058" data-name="Group 4058">
                        <path id="Path_3302" data-name="Path 3302" d="M-208.478-111.723c.065-2.872.082-5.9.082-5.9s-3.663-.709-4.3-5.555c-.609-4.621,1.093-15.465,1.093-15.465h0c5.349-2.035,10.908-.191,14.574,4.168h0l-.909,23.314a4.985,4.985,0,0,1-5.384,4.635h0A5.273,5.273,0,0,1-208.478-111.723Z" transform="translate(212.829 139.467)" fill="#b78876"/>
                      </g>
                    </g>
                  </g>
                  <g id="Group_4068" data-name="Group 4068" transform="translate(0.708 8.06)">
                    <g id="Group_4063" data-name="Group 4063" transform="translate(0.237 0.89)">
                      <g id="Group_4062" data-name="Group 4062">
                        <g id="Group_4061" data-name="Group 4061">
                          <path id="Path_3303" data-name="Path 3303" d="M-212.076-131.806a.618.618,0,0,0,.577.64.59.59,0,0,0,.649-.542.617.617,0,0,0-.576-.64A.59.59,0,0,0-212.076-131.806Z" transform="translate(212.077 132.35)" fill="#263238"/>
                        </g>
                      </g>
                    </g>
                    <g id="Group_4067" data-name="Group 4067">
                      <g id="Group_4066" data-name="Group 4066">
                        <g id="Group_4065" data-name="Group 4065">
                          <g id="Group_4064" data-name="Group 4064">
                            <path id="Path_3304" data-name="Path 3304" d="M-212.256-132.437c.074.083.549-.252,1.212-.233s1.138.365,1.212.284c.036-.035-.038-.182-.245-.343a1.69,1.69,0,0,0-.968-.328,1.624,1.624,0,0,0-.967.287C-212.22-132.618-212.293-132.473-212.256-132.437Z" transform="translate(212.265 133.057)" fill="#263238"/>
                          </g>
                        </g>
                      </g>
                    </g>
                  </g>
                  <g id="Group_4076" data-name="Group 4076" transform="translate(7.612 8.481)">
                    <g id="Group_4071" data-name="Group 4071" transform="translate(0.053 0.889)">
                      <g id="Group_4070" data-name="Group 4070">
                        <g id="Group_4069" data-name="Group 4069">
                          <path id="Path_3305" data-name="Path 3305" d="M-206.732-131.472a.617.617,0,0,0,.577.64.589.589,0,0,0,.649-.541.619.619,0,0,0-.577-.641A.591.591,0,0,0-206.732-131.472Z" transform="translate(206.733 132.016)" fill="#263238"/>
                        </g>
                      </g>
                    </g>
                    <g id="Group_4075" data-name="Group 4075">
                      <g id="Group_4074" data-name="Group 4074">
                        <g id="Group_4073" data-name="Group 4073">
                          <g id="Group_4072" data-name="Group 4072">
                            <path id="Path_3306" data-name="Path 3306" d="M-206.766-132.1c.075.083.551-.251,1.212-.233s1.139.365,1.213.284c.035-.035-.038-.182-.246-.343a1.686,1.686,0,0,0-.968-.328,1.625,1.625,0,0,0-.967.287C-206.729-132.283-206.8-132.138-206.766-132.1Z" transform="translate(206.775 132.722)" fill="#263238"/>
                          </g>
                        </g>
                      </g>
                    </g>
                  </g>
                  <g id="Group_4080" data-name="Group 4080" transform="translate(3.416 8.437)">
                    <g id="Group_4079" data-name="Group 4079">
                      <g id="Group_4078" data-name="Group 4078">
                        <g id="Group_4077" data-name="Group 4077">
                          <path id="Path_3307" data-name="Path 3307" d="M-208.437-127.215a4.333,4.333,0,0,0-1.07-.224c-.169-.021-.328-.059-.353-.176a.875.875,0,0,1,.126-.5l.533-1.281a22.215,22.215,0,0,0,1.21-3.359,22.423,22.423,0,0,0-1.475,3.252c-.18.451-.351.88-.513,1.291a.983.983,0,0,0-.1.665.42.42,0,0,0,.272.255,1.134,1.134,0,0,0,.285.048A4.286,4.286,0,0,0-208.437-127.215Z" transform="translate(210.112 132.757)" fill="#263238"/>
                        </g>
                      </g>
                    </g>
                  </g>
                  <g id="Group_4083" data-name="Group 4083" transform="translate(4.432 20.291)">
                    <g id="Group_4082" data-name="Group 4082">
                      <g id="Group_4081" data-name="Group 4081">
                        <path id="Path_3308" data-name="Path 3308" d="M-209.3-121.773a12.157,12.157,0,0,0,6.471-1.557s-1.645,3.274-6.436,2.7Z" transform="translate(209.304 123.33)" fill="#a36957"/>
                      </g>
                    </g>
                  </g>
                </g>
              </g>
            </g>
          </g>
        </g>
        <g id="Group_4090" data-name="Group 4090" transform="translate(7.42 10.055)">
          <g id="Group_4089" data-name="Group 4089">
            <path id="Path_3309" data-name="Path 3309" d="M-204.607-133.574c-.136.209-.639.116-1.2.014s-1.065-.215-1.114-.459.527-.557,1.279-.412S-204.468-133.771-204.607-133.574Z" transform="translate(206.928 134.468)" fill="#263238"/>
          </g>
        </g>
        <g id="Group_4092" data-name="Group 4092" transform="translate(0.696 9.445)">
          <g id="Group_4091" data-name="Group 4091">
            <path id="Path_3310" data-name="Path 3310" d="M-209.815-134.426c-.05.243-.59.331-1.212.362s-1.167-.013-1.24-.249.451-.6,1.2-.636S-209.761-134.663-209.815-134.426Z" transform="translate(212.275 134.952)" fill="#263238"/>
          </g>
        </g>
        <g id="Group_4093" data-name="Group 4093" transform="translate(4.691 19.316)">
          <path id="Path_3311" data-name="Path 3311" d="M-208.687-127.077a.335.335,0,0,0-.367.169.392.392,0,0,0,.087.472.387.387,0,0,0,.478.006.392.392,0,0,0,.1-.469.387.387,0,0,0-.439-.19" transform="translate(209.098 127.103)" fill="#a36957"/>
        </g>
        <g id="Group_4095" data-name="Group 4095" transform="translate(4.48 19.265)">
          <g id="Group_4094" data-name="Group 4094">
            <path id="Path_3312" data-name="Path 3312" d="M-208.489-127c.03-.026-.106-.191-.395-.127a.5.5,0,0,0-.362.357.575.575,0,0,0,.2.6.558.558,0,0,0,.635,0,.48.48,0,0,0,.2-.474c-.058-.3-.278-.346-.284-.3-.025.036.077.141.057.318a.248.248,0,0,1-.133.207.288.288,0,0,1-.287-.011.3.3,0,0,1-.1-.275.288.288,0,0,1,.152-.21C-208.649-127-208.509-126.961-208.489-127Z" transform="translate(209.266 127.143)" fill="#263238"/>
          </g>
        </g>
        <g id="Group_4105" data-name="Group 4105" transform="translate(0.945)">
          <g id="Group_4096" data-name="Group 4096">
            <path id="Path_3313" data-name="Path 3313" d="M-199.442-128c-.571,1.33-1.964,2.355-1.77,3.791.124.927.717,1.792.6,2.72-.145,1.166-1.349,1.974-1.519,3.137-.209,1.425,1.169,2.534,1.72,3.864.8,1.936-.224,4.116-.248,6.214a6.649,6.649,0,0,0,5.866,6.481,3.569,3.569,0,0,0,3.408-1.4c.552-.919.441-2.086.772-3.106.492-1.519,1.931-2.631,2.236-4.2.553-2.859-2.882-5.225-2.657-8.129.1-1.24.859-2.323,1.182-3.523a5.185,5.185,0,0,0-1.007-4.593c-.849-1.014-2.079-1.681-2.8-2.789-.819-1.256-.848-2.851-1.156-4.321a11.077,11.077,0,0,0-6.843-7.961A10.983,10.983,0,0,0-212-140.23s-.82,3.742,3,4.367,5.588-.1,6.018,1.444a4.084,4.084,0,0,0,1.144,3.515C-200.265-129.187-198.781-129.546-199.442-128Z" transform="translate(212.077 142.464)" fill="#263238"/>
          </g>
          <g id="Group_4098" data-name="Group 4098" transform="translate(12.372 10.463)">
            <g id="Group_4097" data-name="Group 4097">
              <path id="Path_3314" data-name="Path 3314" d="M-195.882-104.2a1.539,1.539,0,0,1-.348-.036,5.033,5.033,0,0,1-.971-.264,6.842,6.842,0,0,1-2.955-2.2,7.777,7.777,0,0,1-1.256-2.248,9.058,9.058,0,0,1-.513-2.914,11.935,11.935,0,0,1,.407-3.242,14.3,14.3,0,0,1,.539-1.642,16.167,16.167,0,0,0,.62-1.631,3.093,3.093,0,0,0-.005-1.665,9.1,9.1,0,0,0-.643-1.554,10.588,10.588,0,0,1-.658-1.538,3.353,3.353,0,0,1-.118-1.631,11.569,11.569,0,0,1,1.252-2.673,5.108,5.108,0,0,0,.511-2.417,5.738,5.738,0,0,0-1.259-3.349,9.989,9.989,0,0,0-.959-.939,3.913,3.913,0,0,1,1.046.864,5.708,5.708,0,0,1,1.379,3.414,5.275,5.275,0,0,1-.5,2.534,11.828,11.828,0,0,0-1.206,2.618,4.81,4.81,0,0,0,.77,2.99,9.3,9.3,0,0,1,.665,1.6,3.381,3.381,0,0,1,.008,1.818,16.446,16.446,0,0,1-.633,1.664,14.322,14.322,0,0,0-.533,1.607,11.757,11.757,0,0,0-.414,3.162,8.216,8.216,0,0,0,1.661,5.037,6.962,6.962,0,0,0,2.833,2.222C-196.361-104.282-195.874-104.233-195.882-104.2Z" transform="translate(202.238 134.143)" fill="#455a64"/>
            </g>
          </g>
          <g id="Group_4100" data-name="Group 4100" transform="translate(1.365 1.712)">
            <g id="Group_4099" data-name="Group 4099">
              <path id="Path_3315" data-name="Path 3315" d="M-194.19-131.051a3.932,3.932,0,0,1-.841.126,8.716,8.716,0,0,1-2.324-.062,4.416,4.416,0,0,1-2.934-1.789,9.662,9.662,0,0,1-.77-1.906,3.142,3.142,0,0,0-1.286-1.6,9.119,9.119,0,0,0-3.958-1.039,6.851,6.851,0,0,1-3.29-1.031,3.276,3.276,0,0,1-1.347-1.895,2.067,2.067,0,0,1-.044-.64.654.654,0,0,1,.047-.219,4.144,4.144,0,0,0,.108.831,3.268,3.268,0,0,0,1.356,1.752,6.834,6.834,0,0,0,3.2.932,9.116,9.116,0,0,1,4.087,1.061,3.42,3.42,0,0,1,1.395,1.739,9.845,9.845,0,0,0,.729,1.862,4.262,4.262,0,0,0,2.745,1.733,9.838,9.838,0,0,0,2.278.152A5.594,5.594,0,0,1-194.19-131.051Z" transform="translate(210.991 141.102)" fill="#455a64"/>
            </g>
          </g>
          <g id="Group_4102" data-name="Group 4102" transform="translate(2.4 0.975)">
            <g id="Group_4101" data-name="Group 4101">
              <path id="Path_3316" data-name="Path 3316" d="M-195.8-135.523a1.718,1.718,0,0,1-.661.1,3.936,3.936,0,0,1-1.782-.4,3.971,3.971,0,0,1-1.049-.734,5.423,5.423,0,0,1-.875-1.174,4.877,4.877,0,0,0-2.055-2.368,6.713,6.713,0,0,0-3.161-.28,9.594,9.594,0,0,1-2.7-.023,3.354,3.354,0,0,1-1.665-.751,1.907,1.907,0,0,1-.332-.375c-.063-.1-.092-.147-.084-.153.024-.019.158.182.489.439a3.45,3.45,0,0,0,1.627.634,10.16,10.16,0,0,0,2.641-.042,6.751,6.751,0,0,1,3.3.28,3.275,3.275,0,0,1,1.348,1.125,15.2,15.2,0,0,1,.821,1.376,5.322,5.322,0,0,0,.814,1.138,3.851,3.851,0,0,0,.971.721,4.166,4.166,0,0,0,1.69.475C-196.042-135.516-195.805-135.549-195.8-135.523Z" transform="translate(210.168 141.688)" fill="#455a64"/>
            </g>
          </g>
          <g id="Group_4104" data-name="Group 4104" transform="translate(16.428 12.051)">
            <g id="Group_4103" data-name="Group 4103">
              <path id="Path_3317" data-name="Path 3317" d="M-195.027-105.751c-.029-.013.151-.378.358-1.078a9.807,9.807,0,0,0,.377-3.042,9.384,9.384,0,0,0-1.2-4.334c-.412-.743-1.04-1.406-1.55-2.222a4.024,4.024,0,0,1-.568-1.371,3.11,3.11,0,0,1,.124-1.532,17.923,17.923,0,0,0,1.006-2.706,3.743,3.743,0,0,0-.733-2.461,11.648,11.648,0,0,1-.6-1.129,4.06,4.06,0,0,1-.319-1.185,10.607,10.607,0,0,1,.064-2.164,5.769,5.769,0,0,0-.268-3.017,2.747,2.747,0,0,0-.666-.889s.026.008.069.033a1.2,1.2,0,0,1,.18.13,2.12,2.12,0,0,1,.521.677,5.643,5.643,0,0,1,.371,3.085,10.809,10.809,0,0,0-.029,2.116,5.4,5.4,0,0,0,.915,2.2,7.537,7.537,0,0,1,.614,1.207A2.879,2.879,0,0,1-196.2-122a17.1,17.1,0,0,1-1.011,2.756,2.828,2.828,0,0,0-.117,1.389,3.717,3.717,0,0,0,.526,1.27c.484.785,1.114,1.46,1.54,2.24a9.413,9.413,0,0,1,1.177,4.465,9.239,9.239,0,0,1-.475,3.082,6.857,6.857,0,0,1-.324.785A1.12,1.12,0,0,1-195.027-105.751Z" transform="translate(199.012 132.88)" fill="#455a64"/>
            </g>
          </g>
        </g>
      </g>
      <g id="Group_4116" data-name="Group 4116" transform="translate(38.612 86.633)">
        <g id="Group_4107" data-name="Group 4107" transform="translate(0.091 0.146)">
          <path id="Path_3318" data-name="Path 3318" d="M-213.3-11.378s-3.8-36.237-4.02-49.628,5.987-26.6,5.987-26.6l24.315-1.034s4.806,13.587,4.893,19.293c.167,11.091-2.93,22.042-2.573,30.84l.812,27.131" transform="translate(217.327 88.642)" fill="#00042e"/>
        </g>
        <g id="Group_4109" data-name="Group 4109" transform="translate(3.317 32.86)">
          <g id="Group_4108" data-name="Group 4108">
            <path id="Path_3319" data-name="Path 3319" d="M-183.735-62.625a3.154,3.154,0,0,1-.4.3l-.223.157c-.075.065-.15.147-.235.229a3.643,3.643,0,0,0-.542.61,13.572,13.572,0,0,0-1.9,4.85,16.469,16.469,0,0,1-1.231,3.448,6.28,6.28,0,0,1-.541.859c-.106.136-.2.282-.317.412l-.375.376a6.048,6.048,0,0,1-1.828,1.181c-1.362.6-2.9.884-4.3,1.593a6.816,6.816,0,0,0-3.121,3.577c-.684,1.538-1.1,3.152-1.671,4.66a8.452,8.452,0,0,1-2.539,3.872,6.936,6.936,0,0,1-3.979,1.254c-1.309.077-2.522.039-3.609.2a5.692,5.692,0,0,0-2.722,1.032,3.819,3.819,0,0,0-1.265,1.792,2.691,2.691,0,0,0-.093,1.391c.062.319.151.472.132.48a1.439,1.439,0,0,1-.19-.467,2.648,2.648,0,0,1,.042-1.439,3.889,3.889,0,0,1,1.273-1.886,5.793,5.793,0,0,1,2.793-1.112c1.108-.181,2.334-.155,3.624-.241a6.731,6.731,0,0,0,3.831-1.226,8.225,8.225,0,0,0,2.433-3.759c.561-1.49.973-3.107,1.672-4.679a7.094,7.094,0,0,1,3.258-3.715c1.46-.728,3-1,4.324-1.584a5.793,5.793,0,0,0,1.76-1.12l.36-.356c.112-.124.2-.264.307-.394a6.041,6.041,0,0,0,.527-.824,16.445,16.445,0,0,0,1.245-3.388A13.2,13.2,0,0,1-185.22-61.4a3.556,3.556,0,0,1,.572-.6c.091-.08.168-.16.249-.223l.234-.148A3.14,3.14,0,0,1-183.735-62.625Z" transform="translate(214.761 62.625)" fill="#fafafa"/>
          </g>
        </g>
        <g id="Group_4111" data-name="Group 4111" transform="translate(0.995 16.092)">
          <g id="Group_4110" data-name="Group 4110">
            <path id="Path_3320" data-name="Path 3320" d="M-183.109-75.961a2.707,2.707,0,0,1,.031.485,5.965,5.965,0,0,1-.168,1.386,8.968,8.968,0,0,1-2.746,4.272,16.351,16.351,0,0,1-2.848,2.092c-1.089.65-2.291,1.269-3.522,1.969a18.448,18.448,0,0,0-3.605,2.548,14.043,14.043,0,0,0-2.73,3.859,35.734,35.734,0,0,1-2.367,4.194,9.939,9.939,0,0,1-1.543,1.716,9.758,9.758,0,0,1-1.836,1.23,22.685,22.685,0,0,1-3.779,1.457c-1.206.375-2.331.707-3.316,1.122a12.964,12.964,0,0,0-2.529,1.362,7.917,7.917,0,0,0-1.588,1.472,7.693,7.693,0,0,0-.952,1.592,2.875,2.875,0,0,1,.157-.46,5.581,5.581,0,0,1,.705-1.2,7.709,7.709,0,0,1,1.582-1.535,12.731,12.731,0,0,1,2.544-1.421c.992-.433,2.124-.78,3.323-1.163a22.873,22.873,0,0,0,3.726-1.465,9.489,9.489,0,0,0,1.778-1.2,9.78,9.78,0,0,0,1.493-1.671,36.306,36.306,0,0,0,2.341-4.165,14.2,14.2,0,0,1,2.792-3.93,18.425,18.425,0,0,1,3.669-2.575c1.242-.7,2.446-1.306,3.532-1.943a16.405,16.405,0,0,0,2.831-2.035,9.048,9.048,0,0,0,2.776-4.147A8.773,8.773,0,0,0-183.109-75.961Z" transform="translate(216.608 75.961)" fill="#fafafa"/>
          </g>
        </g>
        <g id="Group_4113" data-name="Group 4113">
          <g id="Group_4112" data-name="Group 4112">
            <path id="Path_3321" data-name="Path 3321" d="M-217.18-59.057c-.005,0-.021-.035-.049-.109a2.507,2.507,0,0,1-.109-.338,2.712,2.712,0,0,1,.057-1.361,5.545,5.545,0,0,1,3.574-3.315c1-.346,2.136-.555,3.32-.866a7.142,7.142,0,0,0,3.4-1.744,7.205,7.205,0,0,0,1.2-1.7,17.543,17.543,0,0,0,.844-2.04,22.227,22.227,0,0,1,1.789-4.353,6.917,6.917,0,0,1,3.682-2.878,33.677,33.677,0,0,1,4.224-1.076,13.925,13.925,0,0,0,3.674-1.259,7.708,7.708,0,0,0,2.486-2.252,8.478,8.478,0,0,0,1.579-4.6,13.1,13.1,0,0,0-.121-1.814,5.991,5.991,0,0,1,.235,1.817,8.425,8.425,0,0,1-1.525,4.717,7.876,7.876,0,0,1-2.536,2.345,14.03,14.03,0,0,1-3.732,1.309,34.322,34.322,0,0,0-4.185,1.083,6.642,6.642,0,0,0-3.532,2.764,22.4,22.4,0,0,0-1.768,4.293,17.43,17.43,0,0,1-.865,2.072A7.445,7.445,0,0,1-206.8-66.6a7.354,7.354,0,0,1-3.525,1.788c-1.2.3-2.329.5-3.316.827a5.478,5.478,0,0,0-3.53,3.15,2.773,2.773,0,0,0-.108,1.315C-217.218-59.218-217.167-59.061-217.18-59.057Z" transform="translate(217.399 88.758)" fill="#fafafa"/>
          </g>
        </g>
        <g id="Group_4115" data-name="Group 4115" transform="translate(4.093 60.343)">
          <g id="Group_4114" data-name="Group 4114">
            <path id="Path_3322" data-name="Path 3322" d="M-185.835-40.77a1.562,1.562,0,0,1,.039.356,3.758,3.758,0,0,1-.1,1.025,5.833,5.833,0,0,1-2.134,3.067,9.487,9.487,0,0,1-2.238,1.337,29.6,29.6,0,0,1-2.809.977,23.148,23.148,0,0,0-3.053,1.12,8.818,8.818,0,0,0-2.778,2.038c-.824.868-1.534,1.815-2.323,2.651a10.583,10.583,0,0,1-2.6,2.047,11.377,11.377,0,0,1-5.368,1.4,10.554,10.554,0,0,1-3.693-.617,6.636,6.636,0,0,1-.938-.4,1.59,1.59,0,0,1-.311-.172,1.552,1.552,0,0,1,.336.118,8.79,8.79,0,0,0,.949.35,11.084,11.084,0,0,0,3.654.518,11.374,11.374,0,0,0,5.239-1.433,10.466,10.466,0,0,0,2.524-2.008c.772-.824,1.479-1.77,2.319-2.657a9.062,9.062,0,0,1,2.867-2.095,22.83,22.83,0,0,1,3.1-1.119c1-.306,1.945-.588,2.794-.943a9.439,9.439,0,0,0,2.2-1.275,5.853,5.853,0,0,0,2.152-2.931A6.69,6.69,0,0,0-185.835-40.77Z" transform="translate(214.144 40.77)" fill="#fafafa"/>
          </g>
        </g>
      </g>
      <g id="Group_4119" data-name="Group 4119" transform="translate(44.028 43.22)">
        <path id="Path_3323" data-name="Path 3323" d="M-188.877-94.778l-4.7.112a7.729,7.729,0,0,1-1.063,2.682,81.892,81.892,0,0,1-7.737-19.755c.111-.37.24-.777.4-1.234a5.277,5.277,0,0,0-.062-2.079c-.132-.822-.361-1.93-.43-2.442-.209-1.562-.459-1.807-1-1.631-.737.24.3,4.386-.3,4.475-.324.049-.722-1.372-.836-2.536s-.639-4.751-1.022-4.99c-.561-.35-1.051.2-.909,1.364s.324,4.678-.288,4.724-1.109-5.9-1.109-5.9.1-1.293-.614-1.262c-1.279.057-.28,6.321-.171,6.915.077.414-.587.489-.645.041s-.37-5.944-1.671-5.9c-1,.034.773,5.163.212,6.353s-.951-4.038-1.905-3.966c-.355.026-.617.1.035,3.054a66.849,66.849,0,0,0,2.282,6.934c1.511,8.2,8.148,34.44,18.551,29.638,5.822-2.688,8.183-14.6,8.183-14.6Z" transform="translate(213.092 123.292)" fill="#b78876"/>
        <g id="Group_4118" data-name="Group 4118" transform="translate(3.917)">
          <g id="Group_4117" data-name="Group 4117">
            <path id="Path_3324" data-name="Path 3324" d="M-209.742-115.917a.308.308,0,0,0,.135-.019.3.3,0,0,0,.212-.328c-.013-.352-.068-.865-.15-1.529a22.373,22.373,0,0,1-.259-2.418c-.008-.475,0-.986.031-1.528a5.405,5.405,0,0,1,.082-.817c.045-.257.216-.551.414-.516l.021,0h.01c.2-.01.357.147.421.389a2.19,2.19,0,0,1,.074.76v.018a46.468,46.468,0,0,0,.6,4.739c.045.213.093.426.158.641a3.259,3.259,0,0,0,.117.324,1,1,0,0,0,.1.169.308.308,0,0,0,.236.15.427.427,0,0,0,.356-.3,1.725,1.725,0,0,0,.1-.35,5.442,5.442,0,0,0,.092-.693,21.073,21.073,0,0,0-.038-2.839,6.52,6.52,0,0,1-.059-1.421.79.79,0,0,1,.278-.531.3.3,0,0,1,.243-.03.555.555,0,0,1,.133.058.188.188,0,0,1,.063.084,7.123,7.123,0,0,1,.391,1.427c.1.5.187,1.013.267,1.532s.152,1.041.214,1.569a11.059,11.059,0,0,0,.26,1.615,5.589,5.589,0,0,0,.255.8,1.438,1.438,0,0,0,.231.4.336.336,0,0,0,.338.123.36.36,0,0,0,.23-.255,2.793,2.793,0,0,0,.06-.883c-.013-.282-.035-.56-.059-.839-.04-.478-.086-.951-.1-1.417a4.714,4.714,0,0,1,.018-.683,1.086,1.086,0,0,1,.068-.3.248.248,0,0,1,.054-.084c.009-.01.015-.005.023-.015l.073-.02c.375-.156.5.368.6.79.087.44.142.9.23,1.343.148.894.338,1.783.438,2.637a3.072,3.072,0,0,1-.05,1.221l-.4,1.218-.011.036.008.038a65.773,65.773,0,0,0,2.526,8.207c.893,2.422,1.787,4.516,2.575,6.227s1.491,3.033,1.978,3.935l.588,1.015a2.428,2.428,0,0,0,.218.341,2.335,2.335,0,0,0-.174-.366l-.544-1.037c-.458-.914-1.135-2.245-1.9-3.965s-1.632-3.815-2.5-6.238a67.6,67.6,0,0,1-2.47-8.18l0,.074.395-1.2a3.3,3.3,0,0,0,.069-1.358c-.1-.888-.285-1.75-.433-2.648-.087-.444-.141-.9-.231-1.366a2.719,2.719,0,0,0-.23-.7.686.686,0,0,0-.312-.316.691.691,0,0,0-.445-.018l-.1.026a.511.511,0,0,0-.127.074.54.54,0,0,0-.143.2,1.4,1.4,0,0,0-.094.387,5.135,5.135,0,0,0-.019.733c.016.48.062.957.1,1.434.024.277.047.553.059.825a2.651,2.651,0,0,1-.043.763c-.014.059-.042.048-.009.077v0c0-.019,0,.029,0,.021v-.006a.043.043,0,0,1,0-.019c0-.005.015-.025.008-.026a.1.1,0,0,1-.034-.031,1.2,1.2,0,0,1-.172-.308,5.106,5.106,0,0,1-.239-.753,10.683,10.683,0,0,1-.255-1.573c-.063-.534-.137-1.061-.218-1.582s-.17-1.036-.273-1.545a7.043,7.043,0,0,0-.429-1.515.511.511,0,0,0-.177-.2.9.9,0,0,0-.21-.089.616.616,0,0,0-.478.067,1.061,1.061,0,0,0-.416.739,2.689,2.689,0,0,0-.01.777c.029.243.052.48.07.719a20.729,20.729,0,0,1,.052,2.8,5.211,5.211,0,0,1-.082.655,1.523,1.523,0,0,1-.086.294.4.4,0,0,1-.063.106c-.02.048-.038-.01-.036.067.029-.059,0-.026-.02-.075a.717.717,0,0,1-.068-.117,2.964,2.964,0,0,1-.107-.292c-.063-.2-.109-.41-.156-.616-.335-1.667-.493-3.262-.638-4.7v.018a2.464,2.464,0,0,0-.092-.844.86.86,0,0,0-.221-.377.585.585,0,0,0-.419-.155l.031,0a.488.488,0,0,0-.487.235,1.237,1.237,0,0,0-.174.44,5.566,5.566,0,0,0-.075.854q-.03.819-.009,1.539a20.581,20.581,0,0,0,.312,2.431c.1.659.171,1.171.2,1.517a.269.269,0,0,1-.165.3C-209.7-115.928-209.743-115.923-209.742-115.917Z" transform="translate(209.977 123.283)" fill="#a36957"/>
          </g>
        </g>
      </g>
      <path id="Path_3325" data-name="Path 3325" d="M-236.682-94.39a12.084,12.084,0,0,0-3.269.377c-2.915.771-7.946,3.838-8.155,7.626h3.654s-2.047,4.381-1.445,3.975a47.173,47.173,0,0,0,4.666-4.226Z" transform="translate(248.106 173.94)" fill="#b78876"/>
      <g id="Group_4126" data-name="Group 4126" transform="translate(60.068)">
        <g id="Group_4121" data-name="Group 4121">
          <g id="Group_4120" data-name="Group 4120">
            <path id="Path_3326" data-name="Path 3326" d="M-199.13-144.055c-.08.008-.412-3.032-.741-6.786s-.528-6.807-.448-6.813.412,3.03.741,6.786S-199.048-144.061-199.13-144.055Z" transform="translate(200.336 157.654)" fill="#263238"/>
          </g>
        </g>
        <g id="Group_4123" data-name="Group 4123" transform="translate(5.969 0.184)">
          <g id="Group_4122" data-name="Group 4122">
            <path id="Path_3327" data-name="Path 3327" d="M-184.318-157.507c.065.048-2.4,3.652-5.514,8.049s-5.689,7.926-5.755,7.879,2.4-3.65,5.515-8.05S-184.385-157.553-184.318-157.507Z" transform="translate(195.589 157.507)" fill="#263238"/>
          </g>
        </g>
        <g id="Group_4125" data-name="Group 4125" transform="translate(10.97 16.512)">
          <g id="Group_4124" data-name="Group 4124">
            <path id="Path_3328" data-name="Path 3328" d="M-178.682-144.514c.016.079-2.865.743-6.434,1.48s-6.48,1.273-6.5,1.192,2.864-.743,6.437-1.481S-178.7-144.595-178.682-144.514Z" transform="translate(191.612 144.522)" fill="#263238"/>
          </g>
        </g>
      </g>
    </g>
    <g id="Group_4132" data-name="Group 4132" transform="translate(-380.745 -83.033)">
      <g id="Group_4128" data-name="Group 4128" transform="translate(48.761 19.32)">
        <path id="Path_3329" data-name="Path 3329" d="M-329.363-81.088-349.321,22.105l-2.612,13.51,133.233-.661c5.979-.03,11.278-5.369,13.2-13.3l23.625-97.424c1.46-6.023-1.744-12.287-6.283-12.282L-323-87.912C-325.98-87.908-328.585-85.114-329.363-81.088Z" transform="translate(351.933 88.054)" fill="#01095e"/>
      </g>
      <g id="Group_4129" data-name="Group 4129" transform="translate(48.761 19.32)" opacity="0.5">
        <path id="Path_3330" data-name="Path 3330" d="M-329.363-81.088-349.321,22.105l-2.612,13.51,133.233-.661c5.979-.03,11.278-5.369,13.2-13.3l23.625-97.424c1.46-6.023-1.744-12.287-6.283-12.282L-323-87.912C-325.98-87.908-328.585-85.114-329.363-81.088Z" transform="translate(351.933 88.054)"/>
      </g>
      <g id="Group_4130" data-name="Group 4130">
        <path id="Path_3331" data-name="Path 3331" d="M-221.5,19.069-235.6-95.253a8.969,8.969,0,0,0-8.669-8.165l-30.933.1a8.41,8.41,0,0,0-6.11,2.725L-296-84.888l-86.029.451c-5.257.028-9.3,5.031-8.6,10.652l13.1,105.664a8.967,8.967,0,0,0,8.658,8.158l149.93-.3c16.7.348,18.293-4.611,18.293-4.611C-219.791,39.393-221.5,19.083-221.5,19.069Z" transform="translate(390.71 103.418)" fill="#01095e"/>
      </g>
      <g id="Group_4131" data-name="Group 4131" transform="translate(60.563 63.162)" opacity="0.5">
        <path id="Path_3332" data-name="Path 3332" d="M-298.546-16.99l-5.057,5.462-38.945-35.235,5.057-5.462Z" transform="translate(342.547 53.436)" fill="#fff"/>
        <path id="Path_3333" data-name="Path 3333" d="M-306.047-53.188l5.588,5.056L-335.7-10.07l-5.589-5.056Z" transform="translate(342.872 53.188)" fill="#fff"/>
      </g>
    </g>
    <g id="Group_4141" data-name="Group 4141" transform="translate(-207.921 -155.391)">
      <g id="Group_4137" data-name="Group 4137" transform="translate(13.522 10.429)">
        <g id="Group_4134" data-name="Group 4134">
          <g id="Group_4133" data-name="Group 4133">
            <path id="Path_3334" data-name="Path 3334" d="M-238.166-138.369a1.06,1.06,0,0,1-.639-.928l-.225-5.27a1.056,1.056,0,0,1,.381-.861,1.044,1.044,0,0,1,.913-.215,3.258,3.258,0,0,0,2.549-.507,2.958,2.958,0,0,0,1.317-1.94,3.041,3.041,0,0,0-.633-2.28,3.361,3.361,0,0,0-2.224-1.347,3.948,3.948,0,0,0-4.006,2.859,1.052,1.052,0,0,1-1.293.744,1.053,1.053,0,0,1-.739-1.3,6.068,6.068,0,0,1,6.28-4.409,5.426,5.426,0,0,1,3.663,2.174,5.176,5.176,0,0,1,1.032,3.9,5.085,5.085,0,0,1-2.227,3.361,5.493,5.493,0,0,1-2.857.938l.175,4.062a1.056,1.056,0,0,1-1.007,1.1A1.055,1.055,0,0,1-238.166-138.369Z" transform="translate(242.804 153.853)" fill="#01095e"/>
          </g>
        </g>
        <g id="Group_4136" data-name="Group 4136" transform="translate(4.461 16.831)">
          <g id="Group_4135" data-name="Group 4135">
            <path id="Path_3335" data-name="Path 3335" d="M-237.536-139.662a.867.867,0,0,1-.8.924.863.863,0,0,1-.918-.8.865.865,0,0,1,.8-.924A.863.863,0,0,1-237.536-139.662Z" transform="translate(239.257 140.469)" fill="#01095e"/>
          </g>
        </g>
      </g>
      <g id="Group_4140" data-name="Group 4140">
        <g id="Group_4139" data-name="Group 4139">
          <g id="Group_4138" data-name="Group 4138">
            <path id="Path_3336" data-name="Path 3336" d="M-253.534-143.664a2.372,2.372,0,0,0,.05-.346c.028-.246.064-.583.111-1.015a12.29,12.29,0,0,1,.273-1.632c.075-.317.113-.67.229-1.029s.228-.742.351-1.146a19.545,19.545,0,0,1,2.807-5.408,18.86,18.86,0,0,1,5.928-5.192,18.909,18.909,0,0,1,4.182-1.735,18.85,18.85,0,0,1,4.825-.634,18.834,18.834,0,0,1,2.561.152c.433.043.859.158,1.294.235a8.748,8.748,0,0,1,1.3.314,17.9,17.9,0,0,1,5.049,2.3,18.977,18.977,0,0,1,7.46,9.422,18.64,18.64,0,0,1,1.105,6.476,18.246,18.246,0,0,1-1.181,6.665l-.254.648-.034.085.035.08c1.416,3.279,2.8,6.495,4.148,9.612l.238-.272-8.453-3.266-.1-.042-.082.08a18.883,18.883,0,0,1-7.982,4.635,18.57,18.57,0,0,1-8.316.382,18.551,18.551,0,0,1-6.924-2.761,19.422,19.422,0,0,1-4.758-4.456,20.913,20.913,0,0,1-2.6-4.746,21.133,21.133,0,0,1-1.01-3.958l-.177-1.476c-.011-.425-.02-.786-.028-1.085-.01-.279-.016-.5-.023-.664a1.261,1.261,0,0,0-.018-.226,1.228,1.228,0,0,0-.014.225c0,.166-.005.386-.009.666,0,.3,0,.664,0,1.09q.064.651.148,1.489a20.774,20.774,0,0,0,.966,4.009,20.919,20.919,0,0,0,2.587,4.825,19.562,19.562,0,0,0,4.793,4.552,18.742,18.742,0,0,0,7.015,2.841,18.829,18.829,0,0,0,8.455-.357,19.168,19.168,0,0,0,8.142-4.7l-.186.039,8.448,3.279.425.166-.187-.436c-1.344-3.117-2.73-6.334-4.145-9.614v.166l.26-.663a18.7,18.7,0,0,0,1.206-6.813,19.021,19.021,0,0,0-1.137-6.618,19.313,19.313,0,0,0-7.625-9.6,18.2,18.2,0,0,0-5.147-2.328,9.05,9.05,0,0,0-1.322-.316c-.443-.075-.876-.192-1.317-.233a19.037,19.037,0,0,0-2.6-.145,19.01,19.01,0,0,0-4.9.668,19.11,19.11,0,0,0-4.235,1.784,19.01,19.01,0,0,0-5.969,5.306,19.439,19.439,0,0,0-2.779,5.5q-.179.615-.337,1.162c-.111.361-.145.719-.213,1.04a11.415,11.415,0,0,0-.239,1.647c-.03.434-.054.773-.073,1.021A2.409,2.409,0,0,0-253.534-143.664Z" transform="translate(253.558 162.147)" fill="#263238"/>
          </g>
        </g>
      </g>
    </g>
  </g>
</svg>
