<svg xmlns="http://www.w3.org/2000/svg" width="22" height="22" viewBox="0 0 22 22">
    <path fill="#fbbd00" d="M5.27 106.814a5.573 5.573 0 0 1 .84-2.943v-3.656H2.32a10.545 10.545 0 0 0 0 13.2h3.79v-3.656a5.573 5.573 0 0 1-.84-2.945z" transform="translate(0 -95.814)"/>
    <path fill="#0f9d58" d="M198.635 373.8L196 376.432l2.635 2.635a11.158 11.158 0 0 0 6.842-2.32v-3.786h-3.787a5.972 5.972 0 0 1-3.055.839z" transform="translate(-187.714 -357.067)"/>
    <path fill="#31aa52" d="M56.613 325.477l-3.79 3.79a11.421 11.421 0 0 0 .973 1.108 11.169 11.169 0 0 0 7.95 3.293V328.4a5.975 5.975 0 0 1-5.133-2.923z" transform="translate(-50.503 -311.668)"/>
    <path fill="#3c79e6" d="M267.243 199.9a11.343 11.343 0 0 0-.184-2.037l-.1-.54H256v5.27h5.334a5.945 5.945 0 0 1-2.279 2.443l3.786 3.786a11.422 11.422 0 0 0 1.108-.973 11.169 11.169 0 0 0 3.294-7.949z" transform="translate(-245.243 -189.144)"/>
    <path fill="#cf2d48" d="M202.858 7.019l.466.466 3.727-3.726-.466-.466A11.169 11.169 0 0 0 198.635 0L196 2.635l2.635 2.635a5.934 5.934 0 0 1 4.223 1.749z" transform="translate(-187.878)"/>
    <path fill="#eb4132" d="M61.745 5.27V0A11.169 11.169 0 0 0 53.8 3.293a11.412 11.412 0 0 0-.978 1.107l3.79 3.79a5.975 5.975 0 0 1 5.133-2.92z" transform="translate(-50.502)"/>
</svg>
