<svg xmlns="http://www.w3.org/2000/svg" width="750" height="688" viewBox="0 0 750 688">
    <defs>
        <clipPath id="clip-path">
            <rect id="_828d8ba63a923c3d9b33e04e17409301" width="750" height="688" class="cls-1" rx="30" transform="translate(-5489 1315)"/>
        </clipPath>
        <style>
            .cls-1{fill:#00095e}.cls-4,.cls-8{mix-blend-mode:screen;isolation:isolate}.cls-5,.cls-8{fill:none;stroke:#589cff;stroke-miterlimit:10;stroke-width:.463px}.cls-6{fill:#589cff}.cls-7{fill:#eef5ff}
        </style>
    </defs>
    <g id="Group_3819" transform="translate(6447 790)">
        <rect id="_828d8ba63a923c3d9b33e04e17409301-2" width="750" height="688" class="cls-1" rx="30" transform="translate(-6447 -790)"/>
        <g id="Mask_Group_15" clip-path="url(#clip-path)" transform="translate(-958 -2105)">
            <g id="Group_3664" opacity="0.5" transform="rotate(90 -3038.91 -1797.926)">
                <g id="Group_3603" class="cls-4" transform="translate(-187.984 -127.837)">
                    <g id="Group_3544" transform="translate(1.77 1.393)">
                        <path id="Path_2588" d="M765.891-106.858l64.8 45.262-32.16 74.156-94.037-100.57-69.171-21.014-17.776 78.38 53.793 65.58-59.222 31.729-84.242 45.135 26.8-144.232L459.042 36.5l-16.16-60.856-66.34-66.413-82.927-24.871L224.1-126.2l77.626 77.325L364.86 74.343l-117.967 86.123-87.176 63.643-61.654 24.212-3.43-106.921L93.2 96.862l184.924 19.472L292 8.143 198.307 114.3 171.212 145l61.3-14.9-50.082 133.6-22.21-40.435-39.841-79.934L207.2 94.3l-38.269-12.795 25.106-98.052L151-33.069l-38.451 63.048 44.237 31.543-70.71-133.601-43.715 56.152 1.024 159.776 49.462-46.633L52.781 77.4-6.37-17.952l-141.755-96.962-38.213 39.841 38.582 71.59L-72.2-50.314l-24.1 160.737 97.374 5.6 7.6-52.607-77.9 89.624 167.049 95.308-30.5-75.811L-30 184.62l-28.7 59.762L42.806 375.934-7.778 233.861l61.739 8.38 35.47 54.05-67.987 33.074-24.114-26.9-27.73 52.117 152.382-1.362 8.841 70.313-87.459-47.26-7.007 111.817-66.3-133.157" class="cls-5" transform="translate(186.337 126.566)"/>
                        <path id="Path_2589" d="M81 227.058l-8.209 48.594-22.672-124.285-12.607 71.1z" class="cls-5" transform="translate(202.982 147.205)"/>
                        <path id="Path_2590" d="M331.754 71.891l4.783-67.6 6.9-97.509-75.123 42.29-9.425 56.618z" class="cls-5" transform="translate(219.443 129.018)"/>
                        <path id="Path_2591" d="M358.628 74.368l-86.979 41.537L187.8-16.522l107.387-31.932L452.81 36.525l-94.182 37.843-194.775 6.466-19.087-113.878-63.974-38.677 137.725-54.819L187.78-17.117l-37.7 78.188-63.107 35.817L106.318 30 2.442 63.44 36.129-15.9l-138.658 126.35 27.594 42.35 111.89-9.32L2.442 63.44l44.232 13.414L-4.822 115.1l91.437-17.859 27.531 46.117 50.833 1.661-73.388 103.354 84.264 13.83-29.088 44.06-31.017 46.982-100.538-23.854 32.713-86.258L-8.76 303.77" class="cls-5" transform="translate(192.569 126.54)"/>
                        <path id="Path_2592" d="M231.025 128.621l44.211-13.521-126-148.929 19.336 178.043 11.219 118.708L64.7 170.877l-24.153-28.2-41.782-28.385 52.747 128.034-150.453-132.685L-61.353 243.6l28.047 110.987 73.466 20.566 79.176-22.714-32.549-56.929-90.887 6.41-56.975-57.072 51.559-11.609-23.137-49.4L-1.678 114.1-74.842-51.1l67.06 32.011L83.431-72.86l-234.2-42.836.614 112.358 51.978 113.463" class="cls-5" transform="translate(188.982 127.347)"/>
                        <path id="Path_2593" d="M408.8-25.417l92.62 23.883 136.815 35.281-36.018-143.96-80.652 76.591-178.129-58.336 82.5 127.269L258.889 6.954" class="cls-5" transform="translate(219.443 127.754)"/>
                        <path id="Path_2594" d="M611.98 33.571l159.351-96.532-126.2-26.414 62.138-18.469 31.5 119.056L611.98 33.571l33.153-122.946" class="cls-5" transform="translate(245.698 127.931)"/>
                        <path id="Path_2595" d="M798.134 11.846L617.547-31.375l-62.876-1.789-111.788 8.077-141.154-24.521-8.115-66.763-99.577 99.093L292 7.412l-84.8 86.153-49.837-33.122L52.906 76.1l59.643-46.85-69.97-45.265-48.36-2.965L-96.3 109.692 8.674 62.684-72.2-51.045-186.337-75.8" class="cls-5" transform="translate(186.337 127.297)"/>
                        <path id="Path_2596" d="M489.343 109.616L578.59-33.1l86.947-57.367-327.953-2.755L458.675 68.626z" class="cls-5" transform="translate(225.295 129.018)"/>
                    </g>
                    <g id="Group_3602">
                        <g id="Group_3545" transform="translate(156.16 480.312)">
                            <path id="Path_2598" d="M-41.139 319.288c2.5-.562 3.376 3.318.873 3.881s-3.375-3.318-.873-3.881z" class="cls-6" transform="translate(42.632 -319.232)"/>
                            <path id="Path_2599" d="M-40.939 320.489a.57.57 0 0 0-.435.777c.067.3.247.625.726.517a.513.513 0 0 0 .39-.25.789.789 0 0 0 .045-.525c-.065-.297-.246-.626-.726-.519z" class="cls-7" transform="translate(42.724 -319.14)"/>
                        </g>
                        <g id="Group_3546" transform="translate(183.845 428.643)">
                            <path id="Path_2600" d="M-15.37 271.195c2.5-.562 3.376 3.318.875 3.881s-3.376-3.318-.875-3.881z" class="cls-6" transform="translate(16.863 -271.139)"/>
                            <path id="Path_2601" d="M-15.17 272.4a.571.571 0 0 0-.435.777c.067.3.247.625.727.517a.511.511 0 0 0 .389-.251.791.791 0 0 0 .046-.524c-.066-.3-.247-.63-.727-.519z" class="cls-7" transform="translate(16.955 -271.047)"/>
                        </g>
                        <g id="Group_3547" transform="translate(128.118 371.289)">
                            <path id="Path_2602" d="M-67.24 217.811c2.5-.562 3.375 3.318.873 3.882s-3.375-3.318-.873-3.882z" class="cls-6" transform="translate(68.733 -217.755)"/>
                            <path id="Path_2603" d="M-67.04 219.012a.569.569 0 0 0-.435.777c.067.3.246.625.726.517a.513.513 0 0 0 .39-.25.789.789 0 0 0 .045-.525c-.066-.296-.246-.626-.726-.519z" class="cls-7" transform="translate(68.825 -217.663)"/>
                        </g>
                        <g id="Group_3548" transform="translate(178.845 359.868)">
                            <path id="Path_2604" d="M-20.024 207.18c2.5-.562 3.376 3.318.875 3.881s-3.376-3.318-.875-3.881z" class="cls-6" transform="translate(21.517 -207.124)"/>
                            <path id="Path_2605" d="M-19.823 208.381a.571.571 0 0 0-.436.777c.067.3.247.625.727.517a.569.569 0 0 0 .435-.776c-.066-.299-.247-.625-.726-.518z" class="cls-7" transform="translate(21.609 -207.032)"/>
                        </g>
                        <g id="Group_3549" transform="translate(207.218 454.836)">
                            <path id="Path_2606" d="M6.385 295.575c2.5-.562 3.376 3.318.875 3.881s-3.376-3.318-.875-3.881z" class="cls-6" transform="translate(-4.892 -295.519)"/>
                            <path id="Path_2607" d="M6.586 296.776a.571.571 0 0 0-.436.777c.067.3.247.625.727.517a.511.511 0 0 0 .389-.25.8.8 0 0 0 .046-.525c-.066-.295-.247-.626-.726-.519z" class="cls-7" transform="translate(-4.8 -295.427)"/>
                        </g>
                        <g id="Group_3550" transform="translate(240.216 368.55)">
                            <path id="Path_2608" d="M37.1 215.261c2.5-.562 3.375 3.318.873 3.881s-3.375-3.318-.873-3.881z" class="cls-6" transform="translate(-35.606 -215.205)"/>
                            <path id="Path_2609" d="M37.3 216.462a.516.516 0 0 0-.39.251.788.788 0 0 0-.045.525c.067.3.246.625.726.517a.514.514 0 0 0 .39-.251.794.794 0 0 0 .046-.525c-.067-.295-.248-.625-.727-.517z" class="cls-7" transform="translate(-35.514 -215.113)"/>
                        </g>
                        <g id="Group_3551" transform="translate(283.986 373.767)">
                            <path id="Path_2610" d="M77.84 220.117c2.5-.562 3.375 3.318.873 3.881s-3.375-3.318-.873-3.881z" class="cls-6" transform="translate(-76.347 -220.061)"/>
                            <path id="Path_2611" d="M78.04 221.318a.569.569 0 0 0-.435.777c.067.3.246.625.726.517a.516.516 0 0 0 .39-.25.8.8 0 0 0 .046-.525c-.067-.296-.247-.626-.727-.519z" class="cls-7" transform="translate(-76.255 -219.969)"/>
                        </g>
                        <g id="Group_3552" transform="translate(275.245 422.262)">
                            <path id="Path_2612" d="M69.7 265.256c2.5-.562 3.376 3.318.875 3.881s-3.376-3.318-.875-3.881z" class="cls-6" transform="translate(-68.211 -265.2)"/>
                            <path id="Path_2613" d="M69.9 266.457a.511.511 0 0 0-.389.251.794.794 0 0 0-.046.525c.067.3.247.625.727.517a.511.511 0 0 0 .389-.251.794.794 0 0 0 .046-.525c-.063-.295-.243-.625-.727-.517z" class="cls-7" transform="translate(-68.119 -265.109)"/>
                        </g>
                        <g id="Group_3553" transform="translate(346.12 349.947)">
                            <path id="Path_2614" d="M135.674 197.946c2.5-.563 3.376 3.318.873 3.881s-3.375-3.318-.873-3.881z" class="cls-6" transform="translate(-134.181 -197.89)"/>
                            <path id="Path_2615" d="M135.874 199.147a.516.516 0 0 0-.39.25.789.789 0 0 0-.045.525c.067.3.246.625.726.518a.516.516 0 0 0 .39-.251.788.788 0 0 0 .045-.525c-.065-.295-.246-.625-.726-.517z" class="cls-7" transform="translate(-134.089 -197.798)"/>
                        </g>
                        <g id="Group_3554" transform="translate(229.676 269.349)">
                            <path id="Path_2616" d="M27.289 122.926c2.5-.563 3.375 3.318.873 3.881s-3.375-3.318-.873-3.881z" class="cls-6" transform="translate(-25.796 -122.87)"/>
                            <path id="Path_2617" d="M27.489 124.127a.569.569 0 0 0-.435.777c.067.3.246.625.726.517a.516.516 0 0 0 .39-.251.788.788 0 0 0 .045-.525c-.066-.296-.246-.626-.726-.518z" class="cls-7" transform="translate(-25.704 -122.778)"/>
                        </g>
                        <g id="Group_3555" transform="translate(156.286 310.12)">
                            <path id="Path_2618" d="M-41.022 160.875c2.5-.563 3.375 3.318.873 3.881s-3.375-3.318-.873-3.881z" class="cls-6" transform="translate(42.515 -160.819)"/>
                            <path id="Path_2619" d="M-40.822 162.076a.568.568 0 0 0-.435.776c.067.3.246.625.726.518a.519.519 0 0 0 .39-.251.788.788 0 0 0 .045-.525c-.065-.294-.246-.626-.726-.518z" class="cls-7" transform="translate(42.607 -160.727)"/>
                        </g>
                        <g id="Group_3556" transform="translate(117.158 278.955)">
                            <path id="Path_2620" d="M-77.441 131.867c2.5-.562 3.375 3.318.873 3.881s-3.376-3.318-.873-3.881z" class="cls-6" transform="translate(78.935 -131.811)"/>
                            <path id="Path_2621" d="M-77.241 133.068a.571.571 0 0 0-.436.777c.067.3.247.625.727.517a.516.516 0 0 0 .39-.251.788.788 0 0 0 .045-.525c-.066-.296-.247-.626-.726-.518z" class="cls-7" transform="translate(79.026 -131.719)"/>
                        </g>
                        <g id="Group_3557" transform="translate(89.926 236.593)">
                            <path id="Path_2622" d="M-102.788 92.437c2.5-.562 3.375 3.318.873 3.881s-3.376-3.318-.873-3.881z" class="cls-6" transform="translate(104.282 -92.381)"/>
                            <path id="Path_2623" d="M-102.588 93.638a.569.569 0 0 0-.435.777c.067.3.246.625.726.517a.568.568 0 0 0 .435-.776c-.066-.295-.246-.625-.726-.518z" class="cls-7" transform="translate(104.373 -92.289)"/>
                        </g>
                        <g id="Group_3558" transform="translate(194.642 189.424)">
                            <path id="Path_2624" d="M-5.32 48.533c2.5-.562 3.375 3.318.873 3.881s-3.374-3.314-.873-3.881z" class="cls-6" transform="translate(6.813 -48.477)"/>
                            <path id="Path_2625" d="M-5.12 49.734a.568.568 0 0 0-.435.776c.067.3.246.626.726.518a.516.516 0 0 0 .39-.251.788.788 0 0 0 .045-.525c-.066-.296-.247-.626-.726-.518z" class="cls-7" transform="translate(6.905 -48.385)"/>
                        </g>
                        <g id="Group_3559" transform="translate(187.227 240.898)">
                            <path id="Path_2626" d="M-12.222 96.444c2.5-.562 3.376 3.318.875 3.881s-3.376-3.318-.875-3.881z" class="cls-6" transform="translate(13.715 -96.388)"/>
                            <path id="Path_2627" d="M-12.021 97.645a.571.571 0 0 0-.436.777c.067.3.247.625.727.517a.569.569 0 0 0 .435-.776c-.066-.295-.247-.626-.726-.518z" class="cls-7" transform="translate(13.807 -96.296)"/>
                        </g>
                        <g id="Group_3560" transform="translate(253.194 298.13)">
                            <path id="Path_2628" d="M49.179 149.715c2.5-.562 3.376 3.318.875 3.881s-3.376-3.318-.875-3.881z" class="cls-6" transform="translate(-47.686 -149.659)"/>
                            <path id="Path_2629" d="M49.379 150.916a.571.571 0 0 0-.435.777c.067.3.247.625.727.517a.511.511 0 0 0 .389-.251.794.794 0 0 0 .046-.525c-.066-.296-.247-.626-.727-.518z" class="cls-7" transform="translate(-47.594 -149.567)"/>
                        </g>
                        <g id="Group_3561" transform="translate(278.849 222.889)">
                            <path id="Path_2630" d="M73.059 79.682c2.5-.562 3.375 3.318.873 3.882s-3.375-3.318-.873-3.882z" class="cls-6" transform="translate(-71.566 -79.626)"/>
                            <path id="Path_2631" d="M73.259 80.883a.569.569 0 0 0-.435.777c.066.3.246.625.726.517a.513.513 0 0 0 .39-.251.785.785 0 0 0 .045-.524c-.066-.302-.246-.626-.726-.519z" class="cls-7" transform="translate(-71.474 -79.534)"/>
                        </g>
                        <g id="Group_3562" transform="translate(238.991 203.03)">
                            <path id="Path_2632" d="M35.959 61.2c2.5-.562 3.375 3.318.873 3.882s-3.375-3.319-.873-3.882z" class="cls-6" transform="translate(-34.466 -61.141)"/>
                            <path id="Path_2633" d="M36.159 62.4a.568.568 0 0 0-.435.776c.067.3.246.625.726.518a.519.519 0 0 0 .39-.251.788.788 0 0 0 .045-.525c-.066-.297-.246-.627-.726-.518z" class="cls-7" transform="translate(-34.374 -61.049)"/>
                        </g>
                        <g id="Group_3563" transform="translate(306.299 269.134)">
                            <path id="Path_2634" d="M98.609 122.726c2.5-.562 3.376 3.318.875 3.882s-3.376-3.318-.875-3.882z" class="cls-6" transform="translate(-97.116 -122.67)"/>
                            <path id="Path_2635" d="M98.81 123.928a.569.569 0 0 0-.436.776c.067.3.247.625.727.518a.514.514 0 0 0 .389-.251.794.794 0 0 0 .046-.525c-.066-.296-.247-.626-.726-.518z" class="cls-7" transform="translate(-97.024 -122.578)"/>
                        </g>
                        <g id="Group_3564" transform="translate(342.822 186.861)">
                            <path id="Path_2636" d="M132.6 46.147c2.5-.563 3.375 3.318.873 3.881s-3.375-3.318-.873-3.881z" class="cls-6" transform="translate(-131.111 -46.091)"/>
                            <path id="Path_2637" d="M132.8 47.348a.568.568 0 0 0-.435.776c.066.3.246.625.726.518a.516.516 0 0 0 .39-.251.788.788 0 0 0 .045-.525c-.062-.296-.242-.626-.726-.518z" class="cls-7" transform="translate(-131.019 -45.999)"/>
                        </g>
                        <g id="Group_3565" transform="translate(299.188 156.056)">
                            <path id="Path_2638" d="M91.99 17.474c2.5-.563 3.375 3.317.873 3.881s-3.375-3.318-.873-3.881z" class="cls-6" transform="translate(-90.497 -17.418)"/>
                            <path id="Path_2639" d="M92.19 18.675a.568.568 0 0 0-.435.776c.067.3.246.625.726.518a.516.516 0 0 0 .39-.251.794.794 0 0 0 .046-.525c-.066-.293-.247-.626-.727-.518z" class="cls-7" transform="translate(-90.405 -17.326)"/>
                        </g>
                        <g id="Group_3566" transform="translate(355.845 206.864)">
                            <path id="Path_2640" d="M144.726 64.766c2.5-.562 3.375 3.318.873 3.881s-3.376-3.318-.873-3.881z" class="cls-6" transform="translate(-143.232 -64.71)"/>
                            <path id="Path_2641" d="M144.926 65.967a.571.571 0 0 0-.436.777c.067.3.247.625.727.517a.511.511 0 0 0 .389-.251.792.792 0 0 0 .046-.524c-.066-.297-.247-.627-.726-.519z" class="cls-7" transform="translate(-143.141 -64.618)"/>
                        </g>
                        <g id="Group_3567" transform="translate(357.616 270.031)">
                            <path id="Path_2642" d="M146.374 123.561c2.5-.562 3.376 3.318.875 3.881s-3.376-3.318-.875-3.881z" class="cls-6" transform="translate(-144.881 -123.505)"/>
                            <path id="Path_2643" d="M146.574 124.762a.57.57 0 0 0-.435.777c.067.3.247.625.727.517a.51.51 0 0 0 .389-.25.8.8 0 0 0 .046-.525c-.066-.296-.247-.626-.727-.519z" class="cls-7" transform="translate(-144.789 -123.413)"/>
                        </g>
                        <g id="Group_3568" transform="translate(392.911 220.144)">
                            <path id="Path_2644" d="M179.227 77.127c2.5-.563 3.375 3.318.873 3.881s-3.376-3.318-.873-3.881z" class="cls-6" transform="translate(-177.733 -77.071)"/>
                            <path id="Path_2645" d="M179.427 78.328a.569.569 0 0 0-.436.776c.067.3.247.625.727.518a.519.519 0 0 0 .39-.251.788.788 0 0 0 .045-.525c-.066-.296-.246-.626-.726-.518z" class="cls-7" transform="translate(-177.642 -76.979)"/>
                        </g>
                        <g id="Group_3569" transform="translate(418.599 255.646)">
                            <path id="Path_2646" d="M203.136 110.171c2.5-.562 3.375 3.318.873 3.881s-3.375-3.318-.873-3.881z" class="cls-6" transform="translate(-201.643 -110.115)"/>
                            <path id="Path_2647" d="M203.336 111.372a.569.569 0 0 0-.436.776c.067.3.247.626.727.518a.514.514 0 0 0 .39-.251.788.788 0 0 0 .045-.525c-.062-.296-.246-.626-.726-.518z" class="cls-7" transform="translate(-201.551 -110.023)"/>
                        </g>
                        <g id="Group_3570" transform="translate(337.428 93.053)">
                            <path id="Path_2648" d="M127.584-41.168c2.5-.562 3.375 3.319.873 3.882s-3.376-3.318-.873-3.882z" class="cls-6" transform="translate(-126.09 41.224)"/>
                            <path id="Path_2649" d="M127.784-39.966a.569.569 0 0 0-.436.776c.067.3.247.625.727.518a.57.57 0 0 0 .435-.777c-.066-.295-.247-.625-.726-.517z" class="cls-7" transform="translate(-125.999 41.316)"/>
                        </g>
                        <g id="Group_3571" transform="translate(228.607 110.347)">
                            <path id="Path_2650" d="M26.294-25.071c2.5-.563 3.376 3.318.875 3.881s-3.376-3.318-.875-3.881z" class="cls-6" transform="translate(-24.801 25.127)"/>
                            <path id="Path_2651" d="M26.494-23.87a.569.569 0 0 0-.435.776c.067.3.247.625.726.518a.514.514 0 0 0 .39-.251.794.794 0 0 0 .046-.525c-.066-.296-.247-.626-.727-.518z" class="cls-7" transform="translate(-24.709 25.219)"/>
                        </g>
                        <g id="Group_3572" transform="translate(272.276 53.988)">
                            <path id="Path_2652" d="M66.94-77.53c2.5-.562 3.375 3.318.873 3.881s-3.375-3.318-.873-3.881z" class="cls-6" transform="translate(-65.447 77.586)"/>
                            <path id="Path_2653" d="M67.14-76.329a.569.569 0 0 0-.435.777c.067.3.246.625.726.517a.513.513 0 0 0 .39-.251.788.788 0 0 0 .045-.525c-.066-.296-.246-.626-.726-.518z" class="cls-7" transform="translate(-65.355 77.678)"/>
                        </g>
                        <g id="Group_3573" transform="translate(410.187)">
                            <path id="Path_2654" d="M195.307-127.781c2.5-.562 3.375 3.318.873 3.881s-3.376-3.318-.873-3.881z" class="cls-6" transform="translate(-193.813 127.837)"/>
                            <path id="Path_2655" d="M195.507-126.58a.57.57 0 0 0-.436.776c.067.3.247.626.727.518a.516.516 0 0 0 .39-.251.788.788 0 0 0 .045-.525c-.066-.296-.247-.626-.726-.518z" class="cls-7" transform="translate(-193.722 127.929)"/>
                        </g>
                        <g id="Group_3574" transform="translate(380.327 108.953)">
                            <path id="Path_2656" d="M167.513-26.369c2.5-.563 3.376 3.318.873 3.881s-3.375-3.318-.873-3.881z" class="cls-6" transform="translate(-166.02 26.425)"/>
                            <path id="Path_2657" d="M167.713-25.168a.568.568 0 0 0-.435.776c.067.3.247.626.726.518a.511.511 0 0 0 .39-.251.794.794 0 0 0 .046-.525c-.066-.296-.247-.626-.727-.518z" class="cls-7" transform="translate(-165.928 26.517)"/>
                        </g>
                        <g id="Group_3575" transform="translate(487.929 77.517)">
                            <path id="Path_2658" d="M267.668-55.629c2.5-.563 3.376 3.318.875 3.881s-3.376-3.318-.875-3.881z" class="cls-6" transform="translate(-266.175 55.685)"/>
                            <path id="Path_2659" d="M267.869-54.428a.569.569 0 0 0-.436.776c.067.3.247.625.727.518a.514.514 0 0 0 .389-.251.794.794 0 0 0 .046-.525c-.066-.296-.247-.626-.726-.518z" class="cls-7" transform="translate(-266.083 55.777)"/>
                        </g>
                        <g id="Group_3576" transform="translate(479.281 10)">
                            <path id="Path_2660" d="M259.619-118.473c2.5-.562 3.375 3.318.873 3.881s-3.376-3.318-.873-3.881z" class="cls-6" transform="translate(-258.125 118.529)"/>
                            <path id="Path_2661" d="M259.819-117.272a.571.571 0 0 0-.436.777c.067.3.247.625.727.517a.569.569 0 0 0 .435-.776c-.066-.295-.245-.625-.726-.518z" class="cls-7" transform="translate(-258.034 118.621)"/>
                        </g>
                        <g id="Group_3577" transform="translate(477.756 134.199)">
                            <path id="Path_2662" d="M258.2-2.87c2.5-.563 3.375 3.318.873 3.881S255.7-2.307 258.2-2.87z" class="cls-6" transform="translate(-256.706 2.926)"/>
                            <path id="Path_2663" d="M258.4-1.669a.568.568 0 0 0-.435.776c.067.3.246.626.726.518a.513.513 0 0 0 .39-.251.788.788 0 0 0 .045-.525c-.067-.296-.247-.626-.726-.518z" class="cls-7" transform="translate(-256.614 3.018)"/>
                        </g>
                        <g id="Group_3578" transform="translate(550.959 200.286)">
                            <path id="Path_2664" d="M326.336 58.643c2.5-.562 3.375 3.318.873 3.882s-3.376-3.318-.873-3.882z" class="cls-6" transform="translate(-324.842 -58.587)"/>
                            <path id="Path_2665" d="M326.536 59.845a.511.511 0 0 0-.39.25.8.8 0 0 0-.046.525c.067.3.247.625.727.518a.519.519 0 0 0 .39-.251.788.788 0 0 0 .045-.525c-.062-.295-.247-.625-.726-.517z" class="cls-7" transform="translate(-324.75 -58.495)"/>
                        </g>
                        <g id="Group_3579" transform="translate(628.972 101.462)">
                            <path id="Path_2666" d="M398.949-33.341c2.5-.562 3.375 3.318.873 3.881s-3.375-3.318-.873-3.881z" class="cls-6" transform="translate(-397.456 33.397)"/>
                            <path id="Path_2667" d="M399.149-32.14a.569.569 0 0 0-.435.777c.067.3.246.625.726.517a.513.513 0 0 0 .39-.25.789.789 0 0 0 .045-.525c-.066-.296-.246-.626-.726-.519z" class="cls-7" transform="translate(-397.364 33.489)"/>
                        </g>
                        <g id="Group_3580" transform="translate(562.91 35.077)">
                            <path id="Path_2668" d="M337.459-95.132c2.5-.562 3.376 3.318.875 3.881s-3.376-3.317-.875-3.881z" class="cls-6" transform="translate(-335.966 95.188)"/>
                            <path id="Path_2669" d="M337.66-93.931a.571.571 0 0 0-.436.777c.067.3.247.625.727.517a.569.569 0 0 0 .435-.776c-.066-.296-.247-.626-.726-.518z" class="cls-7" transform="translate(-335.874 95.28)"/>
                        </g>
                        <g id="Group_3581" transform="translate(644.605 162.164)">
                            <path id="Path_2670" d="M413.5 23.159c2.5-.562 3.375 3.318.873 3.881s-3.373-3.318-.873-3.881z" class="cls-6" transform="translate(-412.007 -23.103)"/>
                            <path id="Path_2671" d="M413.7 24.36a.569.569 0 0 0-.435.777c.067.3.246.625.726.517a.516.516 0 0 0 .39-.25.8.8 0 0 0 .046-.525c-.066-.297-.247-.626-.727-.519z" class="cls-7" transform="translate(-411.915 -23.011)"/>
                        </g>
                        <g id="Group_3582" transform="translate(714.02 237.623)">
                            <path id="Path_2672" d="M478.111 93.4c2.5-.562 3.376 3.318.875 3.881s-3.376-3.318-.875-3.881z" class="cls-6" transform="translate(-476.618 -93.34)"/>
                            <path id="Path_2673" d="M478.311 94.6a.57.57 0 0 0-.435.777c.067.3.247.625.727.517a.57.57 0 0 0 .435-.776c-.066-.299-.247-.629-.727-.518z" class="cls-7" transform="translate(-476.526 -93.248)"/>
                        </g>
                        <g id="Group_3583" transform="translate(857.277 160.807)">
                            <path id="Path_2674" d="M611.453 21.9c2.5-.562 3.376 3.318.875 3.881s-3.376-3.318-.875-3.881z" class="cls-6" transform="translate(-609.96 -21.84)"/>
                            <path id="Path_2675" d="M611.654 23.1a.571.571 0 0 0-.436.777c.067.3.247.625.727.517a.57.57 0 0 0 .435-.776c-.066-.299-.247-.629-.726-.518z" class="cls-7" transform="translate(-609.868 -21.748)"/>
                        </g>
                        <g id="Group_3584" transform="translate(803.909 95.495)">
                            <path id="Path_2676" d="M561.778-38.9c2.5-.562 3.376 3.318.873 3.881s-3.375-3.318-.873-3.881z" class="cls-6" transform="translate(-560.285 38.951)"/>
                            <path id="Path_2677" d="M561.978-37.694a.568.568 0 0 0-.435.776c.067.3.246.625.726.518a.514.514 0 0 0 .39-.251.794.794 0 0 0 .046-.525c-.066-.296-.247-.624-.727-.518z" class="cls-7" transform="translate(-560.193 39.043)"/>
                        </g>
                        <g id="Group_3585" transform="translate(740.523 93.384)">
                            <path id="Path_2678" d="M502.779-40.86c2.5-.562 3.376 3.318.875 3.881s-3.376-3.318-.875-3.881z" class="cls-6" transform="translate(-501.286 40.916)"/>
                            <path id="Path_2679" d="M502.98-39.659a.571.571 0 0 0-.436.777c.067.3.247.625.727.517a.516.516 0 0 0 .39-.251.785.785 0 0 0 .045-.524c-.066-.296-.247-.627-.726-.519z" class="cls-7" transform="translate(-501.194 41.008)"/>
                        </g>
                        <g id="Group_3586" transform="translate(821.58 16.81)">
                            <path id="Path_2680" d="M578.226-112.134c2.5-.562 3.375 3.318.873 3.881s-3.375-3.318-.873-3.881z" class="cls-6" transform="translate(-576.732 112.19)"/>
                            <path id="Path_2681" d="M578.426-110.933a.519.519 0 0 0-.39.251.788.788 0 0 0-.045.525c.067.3.246.625.726.518a.516.516 0 0 0 .39-.251.788.788 0 0 0 .045-.525c-.065-.295-.246-.625-.726-.518z" class="cls-7" transform="translate(-576.641 112.282)"/>
                        </g>
                        <g id="Group_3587" transform="translate(890.566 37.975)">
                            <path id="Path_2682" d="M642.438-92.434c2.5-.562 3.375 3.318.873 3.882s-3.375-3.318-.873-3.882z" class="cls-6" transform="translate(-640.945 92.49)"/>
                            <path id="Path_2683" d="M642.638-91.232a.516.516 0 0 0-.39.25.789.789 0 0 0-.045.525c.067.3.246.625.726.518a.516.516 0 0 0 .39-.251.788.788 0 0 0 .045-.525c-.064-.295-.246-.625-.726-.517z" class="cls-7" transform="translate(-640.853 92.582)"/>
                        </g>
                        <g id="Group_3588" transform="translate(952.416 19.681)">
                            <path id="Path_2684" d="M700.007-109.462c2.5-.562 3.375 3.318.873 3.881s-3.375-3.318-.873-3.881z" class="cls-6" transform="translate(-698.514 109.518)"/>
                            <path id="Path_2685" d="M700.207-108.261a.516.516 0 0 0-.39.251.788.788 0 0 0-.045.525c.067.3.246.625.726.517a.516.516 0 0 0 .39-.25.789.789 0 0 0 .045-.525c-.066-.295-.247-.625-.726-.518z" class="cls-7" transform="translate(-698.422 109.61)"/>
                        </g>
                        <g id="Group_3589" transform="translate(1016.707 64.621)">
                            <path id="Path_2686" d="M759.848-67.632c2.5-.563 3.376 3.318.875 3.881s-3.376-3.318-.875-3.881z" class="cls-6" transform="translate(-758.355 67.688)"/>
                            <path id="Path_2687" d="M760.049-66.431a.569.569 0 0 0-.436.776c.067.3.247.626.727.518a.511.511 0 0 0 .389-.251.788.788 0 0 0 .046-.525c-.066-.296-.247-.626-.726-.518z" class="cls-7" transform="translate(-758.263 67.78)"/>
                        </g>
                        <g id="Group_3590" transform="translate(984.367 138.307)">
                            <path id="Path_2688" d="M729.747.954c2.5-.562 3.376 3.318.875 3.882s-3.376-3.318-.875-3.882z" class="cls-6" transform="translate(-728.254 -.898)"/>
                            <path id="Path_2689" d="M729.947 2.155a.57.57 0 0 0-.435.777c.067.3.247.625.727.518a.516.516 0 0 0 .389-.251.794.794 0 0 0 .046-.525c-.066-.296-.247-.626-.727-.519z" class="cls-7" transform="translate(-728.162 -.806)"/>
                        </g>
                        <g id="Group_3591" transform="translate(180.638 107.823)">
                            <path id="Path_2690" d="M-18.355-27.421c2.5-.562 3.375 3.318.873 3.881s-3.375-3.317-.873-3.881z" class="cls-6" transform="translate(19.848 27.477)"/>
                            <path id="Path_2691" d="M-18.155-26.219a.568.568 0 0 0-.435.776c.067.3.246.625.726.518a.516.516 0 0 0 .39-.251.788.788 0 0 0 .045-.525c-.071-.299-.246-.626-.726-.518z" class="cls-7" transform="translate(19.94 27.569)"/>
                        </g>
                        <g id="Group_3592" transform="translate(38.166 10.585)">
                            <path id="Path_2692" d="M-150.966-117.928c2.5-.563 3.375 3.318.873 3.881s-3.376-3.318-.873-3.881z" class="cls-6" transform="translate(152.46 117.984)"/>
                            <path id="Path_2693" d="M-150.767-116.727a.569.569 0 0 0-.435.776c.067.3.247.625.727.518a.514.514 0 0 0 .389-.251.794.794 0 0 0 .046-.525c-.066-.296-.247-.626-.727-.518z" class="cls-7" transform="translate(152.552 118.076)"/>
                        </g>
                        <g id="Group_3593" transform="translate(0 50.633)">
                            <path id="Path_2694" d="M-186.491-80.652c2.5-.562 3.376 3.318.875 3.882s-3.376-3.319-.875-3.882z" class="cls-6" transform="translate(187.984 80.708)"/>
                            <path id="Path_2695" d="M-186.291-79.451a.571.571 0 0 0-.435.777c.067.3.247.625.727.518a.514.514 0 0 0 .389-.251.794.794 0 0 0 .046-.525c-.066-.296-.247-.626-.727-.519z" class="cls-7" transform="translate(188.076 80.8)"/>
                        </g>
                        <g id="Group_3594" transform="translate(38.848 122.273)">
                            <path id="Path_2696" d="M-150.332-13.971c2.5-.562 3.376 3.318.873 3.881s-3.375-3.318-.873-3.881z" class="cls-6" transform="translate(151.826 14.027)"/>
                            <path id="Path_2697" d="M-150.132-12.77a.569.569 0 0 0-.435.776c.067.3.247.625.726.518a.514.514 0 0 0 .39-.251.788.788 0 0 0 .045-.525c-.066-.296-.246-.626-.726-.518z" class="cls-7" transform="translate(151.917 14.119)"/>
                        </g>
                        <g id="Group_3595" transform="translate(368.003 388.926)">
                            <path id="Path_2698" d="M156.042 234.227c2.5-.562 3.376 3.318.875 3.882s-3.376-3.318-.875-3.882z" class="cls-6" transform="translate(-154.549 -234.171)"/>
                            <path id="Path_2699" d="M156.242 235.428a.571.571 0 0 0-.435.777c.067.3.247.625.726.517a.513.513 0 0 0 .39-.25.8.8 0 0 0 .046-.525c-.069-.296-.247-.626-.727-.519z" class="cls-7" transform="translate(-154.457 -234.079)"/>
                        </g>
                        <g id="Group_3596" transform="translate(307.973 479.333)">
                            <path id="Path_2700" d="M100.167 318.377c2.5-.562 3.375 3.318.873 3.881s-3.375-3.318-.873-3.881z" class="cls-6" transform="translate(-98.674 -318.321)"/>
                            <path id="Path_2701" d="M100.367 319.578a.516.516 0 0 0-.39.25.789.789 0 0 0-.045.525c.067.3.246.625.726.518a.516.516 0 0 0 .39-.251.788.788 0 0 0 .045-.525c-.067-.295-.246-.625-.726-.517z" class="cls-7" transform="translate(-98.582 -318.23)"/>
                        </g>
                        <g id="Group_3597" transform="translate(316.674 549.022)">
                            <path id="Path_2702" d="M108.266 383.242c2.5-.562 3.375 3.318.873 3.882s-3.376-3.318-.873-3.882z" class="cls-6" transform="translate(-106.772 -383.186)"/>
                            <path id="Path_2703" d="M108.466 384.443a.571.571 0 0 0-.436.777c.067.3.247.625.727.518a.519.519 0 0 0 .39-.251.788.788 0 0 0 .045-.525c-.066-.296-.247-.626-.726-.519z" class="cls-7" transform="translate(-106.681 -383.094)"/>
                        </g>
                        <g id="Group_3598" transform="translate(222.917 613.819)">
                            <path id="Path_2704" d="M21 443.555c2.5-.562 3.376 3.318.875 3.882s-3.375-3.318-.875-3.882z" class="cls-6" transform="translate(-19.505 -443.499)"/>
                            <path id="Path_2705" d="M21.2 444.756a.571.571 0 0 0-.435.777c.067.3.247.625.727.518a.514.514 0 0 0 .389-.251.794.794 0 0 0 .046-.525c-.068-.296-.249-.626-.727-.519z" class="cls-7" transform="translate(-19.413 -443.408)"/>
                        </g>
                        <g id="Group_3599" transform="translate(229.264 502.298)">
                            <path id="Path_2706" d="M26.905 339.752c2.5-.562 3.375 3.318.873 3.881s-3.375-3.318-.873-3.881z" class="cls-6" transform="translate(-25.412 -339.696)"/>
                            <path id="Path_2707" d="M27.105 340.953a.569.569 0 0 0-.435.777c.067.3.246.625.726.517a.568.568 0 0 0 .435-.776c-.066-.296-.247-.625-.726-.518z" class="cls-7" transform="translate(-25.32 -339.604)"/>
                        </g>
                        <g id="Group_3600" transform="translate(464.117 241.465)">
                            <path id="Path_2708" d="M245.5 96.972c2.5-.563 3.376 3.318.875 3.881s-3.375-3.318-.875-3.881z" class="cls-6" transform="translate(-244.011 -96.916)"/>
                            <path id="Path_2709" d="M245.705 98.173a.571.571 0 0 0-.436.777c.067.3.247.625.727.517a.57.57 0 0 0 .435-.776c-.066-.296-.247-.626-.726-.518z" class="cls-7" transform="translate(-243.919 -96.824)"/>
                        </g>
                        <g id="Group_3601" transform="translate(113.979 75.649)">
                            <path id="Path_2710" d="M-80.4-57.368c2.5-.562 3.375 3.318.873 3.881s-3.375-3.318-.873-3.881z" class="cls-6" transform="translate(81.894 57.424)"/>
                            <path id="Path_2711" d="M-80.2-56.167a.569.569 0 0 0-.435.777c.067.3.246.625.726.517a.516.516 0 0 0 .39-.25.789.789 0 0 0 .045-.525c-.067-.296-.247-.626-.726-.519z" class="cls-7" transform="translate(81.986 57.516)"/>
                        </g>
                    </g>
                    <path id="Path_2712" d="M160.748 235.3l-29.088 44.06-31.018 46.98" class="cls-8" transform="translate(209.446 154.838)"/>
                    <path id="Path_2713" d="M340.909 60.463l-117.967 86.123-87.176 63.643" class="cls-8" transform="translate(212.058 141.838)"/>
                    <path id="Path_2714" d="M337.584-93.222L458.675 68.626l30.668 40.99" class="cls-8" transform="translate(227.065 130.411)"/>
                    <path id="Path_2715" d="M326.711 71.891l4.783-67.6 6.9-97.509" class="cls-8" transform="translate(226.256 130.411)"/>
                    <path id="Path_2717" d="M267.249-1.155L173.56 105l-27.095 30.7" class="cls-8" transform="translate(212.853 137.256)"/>
                    <path id="Path_2718" d="M78.715 232.882l-3.429-106.917-1.429-44.541" class="cls-8" transform="translate(207.454 143.397)"/>
                    <path id="Path_2719" d="M621.909 23.784l-59.222 31.729-84.243 45.134" class="cls-8" transform="translate(237.539 139.111)"/>
                    <path id="Path_2720" d="M398.429-31.286L491.044-7.4l136.815 35.278" class="cls-8" transform="translate(231.589 135.016)"/>
                </g>
                <g id="Group_3663" class="cls-4" transform="translate(3.447 64.352)">
                    <g id="Group_3604" transform="translate(1.77 1.764)">
                        <path id="Path_2721" d="M56.843 646.816l-64.8-45.262L24.2 527.4l94.037 100.57 69.171 21.014 17.779-78.384-53.793-65.58 59.222-31.729 84.243-45.134-26.8 144.232 95.629-68.933 16.159 60.856 66.341 66.413L529.12 655.6l69.512 10.562L521 588.835l-63.131-123.22 117.967-86.122 87.176-63.643 61.655-24.212 3.433 106.916 1.43 44.546-184.925-19.476-13.867 108.191 93.689-106.152 27.095-30.7-61.3 14.9 50.086-133.6 22.21 40.435 39.842 79.934-86.82 49.037 38.26 12.784-25.1 98.052 43.039 16.522 38.448-63.048-44.237-31.543 70.711 133.6 43.715-56.152-1.024-159.776-49.462 46.633 40.067 19.813L829.1 557.91l141.755 96.962 38.213-39.841-38.582-71.59-75.558 46.829 24.1-160.736-97.374-5.6-7.6 52.607 77.9-89.624-167.043-95.307 30.5 75.811 97.324-12.083 28.7-59.762-101.507-131.553L830.512 306.1l-61.739-8.38-35.47-54.05 67.987-33.074 24.114 26.9 27.73-52.116-152.382 1.362-8.841-70.313 87.458 47.26 7.007-111.817 66.3 133.157" class="cls-5" transform="translate(7.958 -51.868)"/>
                        <path id="Path_2722" d="M674.358 278.986l8.209-48.594 22.668 124.285 12.607-71.1z" class="cls-5" transform="translate(58.693 -38.594)"/>
                        <path id="Path_2723" d="M426.442 436.979l-4.783 67.6-6.9 97.509 75.123-42.29 9.423-56.622z" class="cls-5" transform="translate(39.39 -23.232)"/>
                        <path id="Path_2724" d="M432.152 456.28l86.979-41.537 83.844 132.428L495.593 579.1l-157.624-84.977 94.182-37.843 194.775-6.465 19.087 113.878 63.973 38.677-137.723 54.819L603 547.766l37.7-78.188 63.11-35.817-19.345 66.884 103.876-33.436-33.69 79.341L893.308 420.2l-27.594-42.353-111.89 9.32 34.514 80.041-44.232-13.414 51.5-38.244-91.437 17.857-27.536-46.117-50.833-1.661 73.389-103.353-84.264-13.83 29.088-44.06L675.03 177.4l100.537 23.855-32.713 86.258 56.685-60.637" class="cls-5" transform="translate(33.68 -42.534)"/>
                        <path id="Path_2725" d="M550.8 402.793l-44.211 13.522 126 148.929L613.262 387.2l-11.219-118.707 115.09 92.044 24.153 28.2 41.778 28.383-52.747-128.032L880.77 421.773l-37.589-133.959-28.047-110.987-73.466-20.566-79.176 22.714 32.55 56.929 90.884-6.41 56.974 57.072-51.559 11.609 23.137 49.4-30.971 69.738 73.164 165.2-67.06-32.013-91.211 53.774 234.2 42.836-.614-112.358-51.981-113.462" class="cls-5" transform="translate(46.219 -44.106)"/>
                        <path id="Path_2726" d="M369.795 532.931l-92.615-23.883-136.816-35.281 36.018 143.961 80.652-76.592 178.129 58.336-82.5-127.272 167.047 28.36" class="cls-5" transform="translate(18.987 -20.613)"/>
                        <path id="Path_2727" d="M151.393 473.658L-7.958 570.19 118.24 596.6 56.1 615.073 24.6 496.018l126.794-22.359L118.24 596.6" class="cls-5" transform="translate(7.958 -20.505)"/>
                        <path id="Path_2728" d="M22.346 501.242l180.587 43.22 62.876 1.789 111.791-8.076L518.751 562.7l8.115 66.763 99.578-99.093-97.959-24.69 84.8-86.153 49.835 33.123 104.454-15.66-59.643 46.85L777.9 529.1l48.36 2.964L916.777 403.4l-104.97 47 80.872 113.729 114.139 24.76" class="cls-5" transform="translate(10.211 -25.729)"/>
                        <path id="Path_2729" d="M285.7 401.865l-89.248 142.711-86.947 57.367 327.953 2.757-121.091-161.845z" class="cls-5" transform="translate(16.692 -25.843)"/>
                    </g>
                    <g id="Group_3662">
                        <g id="Group_3605" transform="translate(860.547 133.508)">
                            <path id="Path_2731" d="M793.75 178.43c-2.5.562-3.376-3.318-.873-3.881s3.375 3.318.873 3.881z" class="cls-6" transform="translate(-791.382 -174.494)"/>
                            <path id="Path_2732" d="M793.367 177.045a.57.57 0 0 0 .435-.777c-.067-.3-.247-.625-.726-.517a.513.513 0 0 0-.39.25.788.788 0 0 0-.045.525c.065.297.246.626.726.519z" class="cls-7" transform="translate(-791.29 -174.402)"/>
                        </g>
                        <g id="Group_3606" transform="translate(832.861 185.177)">
                            <path id="Path_2733" d="M767.981 226.523c-2.5.562-3.376-3.318-.875-3.881s3.376 3.318.875 3.881z" class="cls-6" transform="translate(-765.613 -222.587)"/>
                            <path id="Path_2734" d="M767.6 225.138a.571.571 0 0 0 .436-.777c-.067-.3-.247-.625-.727-.517a.511.511 0 0 0-.389.25.788.788 0 0 0-.046.525c.063.297.244.626.726.519z" class="cls-7" transform="translate(-765.521 -222.495)"/>
                        </g>
                        <g id="Group_3607" transform="translate(888.589 242.53)">
                            <path id="Path_2735" d="M819.851 279.906c-2.5.563-3.375-3.318-.874-3.881s3.375 3.318.874 3.881z" class="cls-6" transform="translate(-817.484 -275.97)"/>
                            <path id="Path_2736" d="M819.468 278.522a.569.569 0 0 0 .435-.777c-.067-.3-.246-.625-.726-.517a.513.513 0 0 0-.39.25.788.788 0 0 0-.045.525c.065.297.246.626.726.519z" class="cls-7" transform="translate(-817.392 -275.878)"/>
                        </g>
                        <g id="Group_3608" transform="translate(837.861 253.951)">
                            <path id="Path_2737" d="M772.634 290.537c-2.5.563-3.375-3.318-.873-3.881s3.376 3.318.873 3.881z" class="cls-6" transform="translate(-770.267 -286.601)"/>
                            <path id="Path_2738" d="M772.251 289.153a.571.571 0 0 0 .436-.777c-.067-.3-.247-.625-.727-.517a.569.569 0 0 0-.435.776c.067.296.247.625.726.518z" class="cls-7" transform="translate(-770.175 -286.509)"/>
                        </g>
                        <g id="Group_3609" transform="translate(809.489 158.984)">
                            <path id="Path_2739" d="M746.226 202.143c-2.5.562-3.376-3.318-.875-3.881s3.376 3.318.875 3.881z" class="cls-6" transform="translate(-743.858 -198.207)"/>
                            <path id="Path_2740" d="M745.842 200.758a.571.571 0 0 0 .436-.777c-.067-.3-.247-.625-.727-.518a.519.519 0 0 0-.39.251.788.788 0 0 0-.045.525c.066.297.247.626.726.519z" class="cls-7" transform="translate(-743.766 -198.115)"/>
                        </g>
                        <g id="Group_3610" transform="translate(776.492 245.27)">
                            <path id="Path_2741" d="M715.512 282.457c-2.5.562-3.376-3.318-.874-3.881s3.375 3.318.874 3.881z" class="cls-6" transform="translate(-713.144 -278.521)"/>
                            <path id="Path_2742" d="M715.129 281.072a.516.516 0 0 0 .39-.251.788.788 0 0 0 .045-.525c-.067-.3-.246-.625-.726-.517a.516.516 0 0 0-.39.25.794.794 0 0 0-.046.525c.066.296.247.627.727.518z" class="cls-7" transform="translate(-713.052 -278.429)"/>
                        </g>
                        <g id="Group_3611" transform="translate(732.722 240.053)">
                            <path id="Path_2743" d="M674.771 277.6c-2.5.562-3.375-3.318-.873-3.881s3.375 3.318.873 3.881z" class="cls-6" transform="translate(-672.404 -273.665)"/>
                            <path id="Path_2744" d="M674.388 276.216a.57.57 0 0 0 .435-.777c-.067-.3-.246-.625-.726-.517a.513.513 0 0 0-.39.25.8.8 0 0 0-.046.525c.066.297.247.626.727.519z" class="cls-7" transform="translate(-672.312 -273.573)"/>
                        </g>
                        <g id="Group_3612" transform="translate(741.462 191.558)">
                            <path id="Path_2745" d="M682.907 232.462c-2.5.562-3.376-3.318-.875-3.881s3.376 3.318.875 3.881z" class="cls-6" transform="translate(-680.539 -228.526)"/>
                            <path id="Path_2746" d="M682.524 231.077a.511.511 0 0 0 .389-.251.794.794 0 0 0 .046-.525c-.067-.3-.247-.625-.727-.517a.511.511 0 0 0-.389.251.791.791 0 0 0-.046.524c.066.296.247.627.727.518z" class="cls-7" transform="translate(-680.447 -228.434)"/>
                        </g>
                        <g id="Group_3613" transform="translate(670.587 263.873)">
                            <path id="Path_2747" d="M616.937 299.772c-2.5.562-3.376-3.318-.873-3.881s3.375 3.318.873 3.881z" class="cls-6" transform="translate(-614.569 -295.836)"/>
                            <path id="Path_2748" d="M616.554 298.387a.518.518 0 0 0 .39-.25.789.789 0 0 0 .045-.525c-.067-.3-.246-.626-.726-.518a.514.514 0 0 0-.39.251.8.8 0 0 0-.046.525c.066.296.247.63.727.517z" class="cls-7" transform="translate(-614.477 -295.744)"/>
                        </g>
                        <g id="Group_3614" transform="translate(787.031 344.471)">
                            <path id="Path_2749" d="M725.322 374.792c-2.5.562-3.375-3.318-.874-3.881s3.375 3.318.874 3.881z" class="cls-6" transform="translate(-722.955 -370.856)"/>
                            <path id="Path_2750" d="M724.939 373.407a.569.569 0 0 0 .435-.777c-.067-.3-.246-.625-.726-.517a.516.516 0 0 0-.39.25.789.789 0 0 0-.045.525c.066.298.246.626.726.519z" class="cls-7" transform="translate(-722.863 -370.765)"/>
                        </g>
                        <g id="Group_3615" transform="translate(860.422 303.7)">
                            <path id="Path_2751" d="M793.633 336.843c-2.5.562-3.375-3.318-.873-3.881s3.375 3.318.873 3.881z" class="cls-6" transform="translate(-791.266 -332.907)"/>
                            <path id="Path_2752" d="M793.25 335.458a.568.568 0 0 0 .435-.776c-.067-.3-.246-.625-.726-.518a.516.516 0 0 0-.39.251.788.788 0 0 0-.045.525c.065.297.246.626.726.518z" class="cls-7" transform="translate(-791.174 -332.815)"/>
                        </g>
                        <g id="Group_3616" transform="translate(899.549 334.865)">
                            <path id="Path_2753" d="M830.052 365.851c-2.5.562-3.375-3.318-.873-3.881s3.376 3.318.873 3.881z" class="cls-6" transform="translate(-827.685 -361.915)"/>
                            <path id="Path_2754" d="M829.669 364.466a.571.571 0 0 0 .436-.777c-.067-.3-.247-.625-.727-.517a.519.519 0 0 0-.39.25.789.789 0 0 0-.045.525c.066.297.246.626.726.519z" class="cls-7" transform="translate(-827.593 -361.823)"/>
                        </g>
                        <g id="Group_3617" transform="translate(926.781 377.227)">
                            <path id="Path_2755" d="M855.4 405.281c-2.5.562-3.375-3.318-.873-3.881s3.375 3.318.873 3.881z" class="cls-6" transform="translate(-853.032 -401.345)"/>
                            <path id="Path_2756" d="M855.016 403.9a.569.569 0 0 0 .435-.777c-.067-.3-.246-.625-.726-.517a.568.568 0 0 0-.435.776c.067.292.246.618.726.518z" class="cls-7" transform="translate(-852.94 -401.253)"/>
                        </g>
                        <g id="Group_3618" transform="translate(822.065 424.396)">
                            <path id="Path_2757" d="M757.931 449.185c-2.5.562-3.375-3.318-.874-3.881s3.375 3.318.874 3.881z" class="cls-6" transform="translate(-755.564 -445.249)"/>
                            <path id="Path_2758" d="M757.548 447.8a.569.569 0 0 0 .435-.776c-.067-.3-.246-.626-.726-.518a.518.518 0 0 0-.39.25.792.792 0 0 0-.045.526c.066.297.246.627.726.518z" class="cls-7" transform="translate(-755.472 -445.158)"/>
                        </g>
                        <g id="Group_3619" transform="translate(829.479 372.922)">
                            <path id="Path_2759" d="M764.833 401.274c-2.5.562-3.376-3.318-.875-3.881s3.376 3.318.875 3.881z" class="cls-6" transform="translate(-762.465 -397.338)"/>
                            <path id="Path_2760" d="M764.449 399.889a.571.571 0 0 0 .436-.777c-.067-.3-.247-.625-.727-.517a.569.569 0 0 0-.435.776c.067.296.247.629.726.518z" class="cls-7" transform="translate(-762.373 -397.246)"/>
                        </g>
                        <g id="Group_3620" transform="translate(763.513 315.69)">
                            <path id="Path_2761" d="M703.432 348c-2.5.562-3.376-3.318-.875-3.881s3.376 3.318.875 3.881z" class="cls-6" transform="translate(-701.064 -344.067)"/>
                            <path id="Path_2762" d="M703.048 346.618a.571.571 0 0 0 .436-.777c-.067-.3-.247-.625-.727-.517a.513.513 0 0 0-.389.25.8.8 0 0 0-.046.525c.066.301.247.626.726.519z" class="cls-7" transform="translate(-700.972 -343.975)"/>
                        </g>
                        <g id="Group_3621" transform="translate(737.858 390.93)">
                            <path id="Path_2763" d="M679.552 418.036c-2.5.562-3.375-3.319-.873-3.882s3.375 3.318.873 3.882z" class="cls-6" transform="translate(-677.185 -414.099)"/>
                            <path id="Path_2764" d="M679.169 416.651a.569.569 0 0 0 .435-.777c-.067-.3-.246-.625-.726-.517a.516.516 0 0 0-.39.25.789.789 0 0 0-.045.525c.066.297.246.626.726.519z" class="cls-7" transform="translate(-677.093 -414.007)"/>
                        </g>
                        <g id="Group_3622" transform="translate(777.717 410.789)">
                            <path id="Path_2765" d="M716.652 436.52c-2.5.563-3.375-3.318-.873-3.881s3.375 3.318.873 3.881z" class="cls-6" transform="translate(-714.285 -432.584)"/>
                            <path id="Path_2766" d="M716.269 435.135a.568.568 0 0 0 .435-.776c-.067-.3-.246-.625-.726-.518a.513.513 0 0 0-.39.251.788.788 0 0 0-.045.525c.066.297.246.626.726.518z" class="cls-7" transform="translate(-714.193 -432.492)"/>
                        </g>
                        <g id="Group_3623" transform="translate(710.407 344.685)">
                            <path id="Path_2767" d="M654 374.991c-2.5.563-3.376-3.318-.875-3.881s3.376 3.318.875 3.881z" class="cls-6" transform="translate(-651.634 -371.055)"/>
                            <path id="Path_2768" d="M653.618 373.606a.569.569 0 0 0 .436-.776c-.067-.3-.247-.626-.727-.518a.511.511 0 0 0-.389.251.794.794 0 0 0-.046.525c.066.297.247.627.726.518z" class="cls-7" transform="translate(-651.542 -370.964)"/>
                        </g>
                        <g id="Group_3624" transform="translate(673.885 426.959)">
                            <path id="Path_2769" d="M620.007 451.571c-2.5.562-3.375-3.318-.873-3.881s3.375 3.318.873 3.881z" class="cls-6" transform="translate(-617.64 -447.635)"/>
                            <path id="Path_2770" d="M619.624 450.186a.568.568 0 0 0 .435-.776c-.067-.3-.246-.626-.726-.518a.514.514 0 0 0-.39.251.788.788 0 0 0-.045.525c.066.297.246.627.726.518z" class="cls-7" transform="translate(-617.548 -447.544)"/>
                        </g>
                        <g id="Group_3625" transform="translate(717.519 457.765)">
                            <path id="Path_2771" d="M660.621 480.244c-2.5.563-3.375-3.318-.873-3.881s3.375 3.318.873 3.881z" class="cls-6" transform="translate(-658.254 -476.308)"/>
                            <path id="Path_2772" d="M660.238 478.859a.569.569 0 0 0 .435-.776c-.067-.3-.246-.626-.726-.518a.513.513 0 0 0-.39.251.794.794 0 0 0-.046.525c.066.297.247.627.727.518z" class="cls-7" transform="translate(-658.162 -476.217)"/>
                        </g>
                        <g id="Group_3626" transform="translate(660.862 406.955)">
                            <path id="Path_2773" d="M607.885 432.953c-2.5.562-3.375-3.318-.873-3.882s3.376 3.319.873 3.882z" class="cls-6" transform="translate(-605.518 -429.015)"/>
                            <path id="Path_2774" d="M607.5 431.567a.571.571 0 0 0 .436-.777c-.067-.3-.247-.625-.727-.517a.516.516 0 0 0-.39.25.789.789 0 0 0-.045.525c.068.298.249.626.726.519z" class="cls-7" transform="translate(-605.426 -428.923)"/>
                        </g>
                        <g id="Group_3627" transform="translate(659.091 343.788)">
                            <path id="Path_2775" d="M606.237 374.158c-2.5.562-3.376-3.318-.875-3.882s3.376 3.319.875 3.882z" class="cls-6" transform="translate(-603.869 -370.22)"/>
                            <path id="Path_2776" d="M605.853 372.772a.571.571 0 0 0 .436-.777c-.067-.3-.247-.625-.727-.518a.513.513 0 0 0-.389.251.8.8 0 0 0-.046.525c.066.297.247.627.726.519z" class="cls-7" transform="translate(-603.777 -370.129)"/>
                        </g>
                        <g id="Group_3628" transform="translate(623.796 393.676)">
                            <path id="Path_2777" d="M573.384 420.591c-2.5.562-3.375-3.318-.873-3.881s3.375 3.318.873 3.881z" class="cls-6" transform="translate(-571.017 -416.655)"/>
                            <path id="Path_2778" d="M573 419.206a.568.568 0 0 0 .435-.776c-.065-.3-.246-.625-.726-.518a.516.516 0 0 0-.39.251.788.788 0 0 0-.045.525c.067.297.247.626.726.518z" class="cls-7" transform="translate(-570.925 -416.563)"/>
                        </g>
                        <g id="Group_3629" transform="translate(598.109 358.175)">
                            <path id="Path_2779" d="M549.475 387.547c-2.5.562-3.375-3.318-.873-3.881s3.375 3.318.873 3.881z" class="cls-6" transform="translate(-547.108 -383.611)"/>
                            <path id="Path_2780" d="M549.092 386.162a.569.569 0 0 0 .435-.777c-.067-.3-.246-.625-.726-.517a.513.513 0 0 0-.39.251.787.787 0 0 0-.045.525c.066.297.246.627.726.518z" class="cls-7" transform="translate(-547.016 -383.519)"/>
                        </g>
                        <g id="Group_3630" transform="translate(679.279 520.766)">
                            <path id="Path_2781" d="M625.027 538.885c-2.5.563-3.375-3.318-.873-3.881s3.375 3.318.873 3.881z" class="cls-6" transform="translate(-622.659 -534.949)"/>
                            <path id="Path_2782" d="M624.644 537.5a.568.568 0 0 0 .435-.776c-.067-.3-.246-.625-.726-.518a.569.569 0 0 0-.435.777c.067.296.247.626.726.517z" class="cls-7" transform="translate(-622.568 -534.857)"/>
                        </g>
                        <g id="Group_3631" transform="translate(788.099 503.473)">
                            <path id="Path_2783" d="M726.317 522.789c-2.5.562-3.376-3.318-.875-3.881s3.376 3.318.875 3.881z" class="cls-6" transform="translate(-723.949 -518.853)"/>
                            <path id="Path_2784" d="M725.934 521.4a.569.569 0 0 0 .435-.776c-.067-.3-.247-.626-.727-.518a.513.513 0 0 0-.389.251.794.794 0 0 0-.046.525c.066.301.247.631.727.518z" class="cls-7" transform="translate(-723.857 -518.761)"/>
                        </g>
                        <g id="Group_3632" transform="translate(744.432 559.833)">
                            <path id="Path_2785" d="M685.671 575.248c-2.5.562-3.375-3.318-.874-3.881s3.375 3.318.874 3.881z" class="cls-6" transform="translate(-683.304 -571.312)"/>
                            <path id="Path_2786" d="M685.288 573.863a.569.569 0 0 0 .435-.777c-.067-.3-.246-.625-.726-.517a.513.513 0 0 0-.39.25.788.788 0 0 0-.045.525c.066.297.246.626.726.519z" class="cls-7" transform="translate(-683.212 -571.22)"/>
                        </g>
                        <g id="Group_3633" transform="translate(606.52 613.82)">
                            <path id="Path_2787" d="M557.3 625.5c-2.5.562-3.375-3.318-.873-3.881s3.375 3.318.873 3.881z" class="cls-6" transform="translate(-554.937 -621.563)"/>
                            <path id="Path_2788" d="M556.921 624.114a.571.571 0 0 0 .436-.777c-.067-.3-.247-.625-.727-.517a.519.519 0 0 0-.39.25.789.789 0 0 0-.045.525c.066.298.246.626.726.519z" class="cls-7" transform="translate(-554.845 -621.471)"/>
                        </g>
                        <g id="Group_3634" transform="translate(636.38 504.868)">
                            <path id="Path_2789" d="M585.1 524.087c-2.5.562-3.376-3.318-.875-3.881s3.376 3.318.875 3.881z" class="cls-6" transform="translate(-582.73 -520.151)"/>
                            <path id="Path_2790" d="M584.715 522.7a.57.57 0 0 0 .435-.777c-.067-.3-.247-.625-.727-.517a.511.511 0 0 0-.389.251.792.792 0 0 0-.046.524c.066.3.247.629.727.519z" class="cls-7" transform="translate(-582.638 -520.059)"/>
                        </g>
                        <g id="Group_3635" transform="translate(528.777 536.303)">
                            <path id="Path_2791" d="M484.942 553.347c-2.5.563-3.375-3.318-.873-3.881s3.376 3.318.873 3.881z" class="cls-6" transform="translate(-482.575 -549.411)"/>
                            <path id="Path_2792" d="M484.559 551.962a.569.569 0 0 0 .436-.776c-.067-.3-.247-.625-.727-.518a.516.516 0 0 0-.39.251.788.788 0 0 0-.045.525c.067.297.247.626.726.518z" class="cls-7" transform="translate(-482.483 -549.319)"/>
                        </g>
                        <g id="Group_3636" transform="translate(537.426 603.82)">
                            <path id="Path_2793" d="M492.992 616.191c-2.5.562-3.375-3.318-.873-3.881s3.375 3.318.873 3.881z" class="cls-6" transform="translate(-490.625 -612.255)"/>
                            <path id="Path_2794" d="M492.609 614.806a.57.57 0 0 0 .435-.777c-.067-.3-.246-.625-.726-.518a.569.569 0 0 0-.435.777c.067.296.247.626.726.518z" class="cls-7" transform="translate(-490.533 -612.163)"/>
                        </g>
                        <g id="Group_3637" transform="translate(538.951 479.621)">
                            <path id="Path_2795" d="M494.412 500.588c-2.5.563-3.375-3.318-.873-3.881s3.375 3.318.873 3.881z" class="cls-6" transform="translate(-492.045 -496.652)"/>
                            <path id="Path_2796" d="M494.029 499.2a.569.569 0 0 0 .435-.777c-.067-.3-.246-.625-.726-.517a.514.514 0 0 0-.39.251.786.786 0 0 0-.045.524c.066.301.246.631.726.519z" class="cls-7" transform="translate(-491.953 -496.561)"/>
                        </g>
                        <g id="Group_3638" transform="translate(465.748 413.533)">
                            <path id="Path_2797" d="M426.275 439.074c-2.5.563-3.375-3.318-.873-3.881s3.375 3.318.873 3.881z" class="cls-6" transform="translate(-423.908 -435.138)"/>
                            <path id="Path_2798" d="M425.892 437.689a.514.514 0 0 0 .39-.251.792.792 0 0 0 .046-.524c-.067-.3-.247-.626-.727-.518a.516.516 0 0 0-.39.251.788.788 0 0 0-.045.525c.066.296.246.628.726.517z" class="cls-7" transform="translate(-423.816 -435.047)"/>
                        </g>
                        <g id="Group_3639" transform="translate(387.736 512.358)">
                            <path id="Path_2799" d="M353.662 531.059c-2.5.562-3.375-3.318-.873-3.881s3.375 3.318.873 3.881z" class="cls-6" transform="translate(-351.295 -527.123)"/>
                            <path id="Path_2800" d="M353.279 529.674a.569.569 0 0 0 .435-.777c-.067-.3-.247-.625-.726-.517a.513.513 0 0 0-.39.25.788.788 0 0 0-.045.525c.066.297.247.626.726.519z" class="cls-7" transform="translate(-351.203 -527.031)"/>
                        </g>
                        <g id="Group_3640" transform="translate(453.797 578.743)">
                            <path id="Path_2801" d="M415.152 592.849c-2.5.563-3.376-3.318-.875-3.881s3.376 3.318.875 3.881z" class="cls-6" transform="translate(-412.784 -588.913)"/>
                            <path id="Path_2802" d="M414.768 591.465a.571.571 0 0 0 .436-.777c-.067-.3-.247-.625-.727-.517a.569.569 0 0 0-.435.776c.066.296.247.626.726.518z" class="cls-7" transform="translate(-412.692 -588.821)"/>
                        </g>
                        <g id="Group_3641" transform="translate(372.102 451.657)">
                            <path id="Path_2803" d="M339.111 474.559c-2.5.562-3.376-3.318-.873-3.881s3.375 3.318.873 3.881z" class="cls-6" transform="translate(-336.743 -470.623)"/>
                            <path id="Path_2804" d="M338.728 473.174a.569.569 0 0 0 .435-.777c-.067-.3-.247-.625-.726-.517a.511.511 0 0 0-.39.25.8.8 0 0 0-.046.525c.066.297.247.626.727.519z" class="cls-7" transform="translate(-336.651 -470.531)"/>
                        </g>
                        <g id="Group_3642" transform="translate(302.686 376.197)">
                            <path id="Path_2805" d="M274.5 404.322c-2.5.562-3.376-3.318-.875-3.881s3.376 3.318.875 3.881z" class="cls-6" transform="translate(-272.132 -400.386)"/>
                            <path id="Path_2806" d="M274.116 402.937a.571.571 0 0 0 .436-.777c-.067-.3-.247-.625-.727-.517a.569.569 0 0 0-.435.776c.067.296.247.625.726.518z" class="cls-7" transform="translate(-272.04 -400.294)"/>
                        </g>
                        <g id="Group_3643" transform="translate(159.429 453.014)">
                            <path id="Path_2807" d="M141.158 475.822c-2.5.562-3.376-3.318-.875-3.881s3.376 3.318.875 3.881z" class="cls-6" transform="translate(-138.79 -471.886)"/>
                            <path id="Path_2808" d="M140.774 474.437a.571.571 0 0 0 .436-.777c-.067-.3-.247-.625-.727-.517a.569.569 0 0 0-.435.776c.067.296.247.625.726.518z" class="cls-7" transform="translate(-138.698 -471.794)"/>
                        </g>
                        <g id="Group_3644" transform="translate(212.798 518.325)">
                            <path id="Path_2809" d="M190.833 536.613c-2.5.562-3.376-3.318-.875-3.881s3.376 3.318.875 3.881z" class="cls-6" transform="translate(-188.465 -532.677)"/>
                            <path id="Path_2810" d="M190.45 535.228a.569.569 0 0 0 .435-.777c-.067-.3-.247-.625-.726-.517a.514.514 0 0 0-.39.25.8.8 0 0 0-.046.526c.066.297.247.625.727.518z" class="cls-7" transform="translate(-188.373 -532.585)"/>
                        </g>
                        <g id="Group_3645" transform="translate(276.184 520.436)">
                            <path id="Path_2811" d="M249.832 538.578c-2.5.562-3.376-3.318-.875-3.881s3.376 3.318.875 3.881z" class="cls-6" transform="translate(-247.464 -534.642)"/>
                            <path id="Path_2812" d="M249.448 537.193a.571.571 0 0 0 .436-.777c-.067-.3-.247-.625-.727-.517a.516.516 0 0 0-.39.25.789.789 0 0 0-.045.525c.066.297.246.626.726.519z" class="cls-7" transform="translate(-247.372 -534.55)"/>
                        </g>
                        <g id="Group_3646" transform="translate(195.128 597.01)">
                            <path id="Path_2813" d="M174.385 609.852c-2.5.562-3.376-3.318-.873-3.881s3.375 3.318.873 3.881z" class="cls-6" transform="translate(-172.017 -605.916)"/>
                            <path id="Path_2814" d="M174 608.466a.516.516 0 0 0 .39-.25.789.789 0 0 0 .045-.525c-.067-.3-.246-.625-.726-.518a.516.516 0 0 0-.39.251.794.794 0 0 0-.046.525c.068.296.249.626.727.517z" class="cls-7" transform="translate(-171.925 -605.824)"/>
                        </g>
                        <g id="Group_3647" transform="translate(126.141 575.844)">
                            <path id="Path_2815" d="M110.173 590.151c-2.5.563-3.375-3.318-.873-3.881s3.375 3.318.873 3.881z" class="cls-6" transform="translate(-107.806 -586.215)"/>
                            <path id="Path_2816" d="M109.79 588.766a.518.518 0 0 0 .39-.25.789.789 0 0 0 .045-.525c-.067-.3-.246-.625-.726-.518a.513.513 0 0 0-.39.251.788.788 0 0 0-.045.525c.066.296.246.626.726.517z" class="cls-7" transform="translate(-107.714 -586.124)"/>
                        </g>
                        <g id="Group_3648" transform="translate(64.292 594.139)">
                            <path id="Path_2817" d="M52.6 607.18c-2.5.562-3.375-3.318-.873-3.881s3.375 3.318.873 3.881z" class="cls-6" transform="translate(-50.237 -603.244)"/>
                            <path id="Path_2818" d="M52.221 605.8a.516.516 0 0 0 .39-.251.788.788 0 0 0 .045-.525c-.067-.3-.246-.625-.726-.518a.519.519 0 0 0-.39.251.788.788 0 0 0-.045.525c.066.291.246.618.726.518z" class="cls-7" transform="translate(-50.145 -603.152)"/>
                        </g>
                        <g id="Group_3649" transform="translate(0 549.199)">
                            <path id="Path_2819" d="M-7.237 565.35c-2.5.563-3.376-3.318-.875-3.881s3.376 3.318.875 3.881z" class="cls-6" transform="translate(9.605 -561.414)"/>
                            <path id="Path_2820" d="M-7.621 563.965a.57.57 0 0 0 .436-.777c-.067-.3-.247-.625-.727-.517a.511.511 0 0 0-.389.251.785.785 0 0 0-.046.524c.066.298.247.627.726.519z" class="cls-7" transform="translate(9.697 -561.322)"/>
                        </g>
                        <g id="Group_3650" transform="translate(32.34 475.512)">
                            <path id="Path_2821" d="M22.864 496.763c-2.5.563-3.376-3.318-.875-3.881s3.376 3.318.875 3.881z" class="cls-6" transform="translate(-20.496 -492.827)"/>
                            <path id="Path_2822" d="M22.48 495.378a.569.569 0 0 0 .436-.776c-.067-.3-.247-.625-.727-.518a.516.516 0 0 0-.389.251.794.794 0 0 0-.046.525c.066.297.246.627.726.518z" class="cls-7" transform="translate(-20.404 -492.735)"/>
                        </g>
                        <g id="Group_3651" transform="translate(836.069 505.997)">
                            <path id="Path_2823" d="M770.966 525.14c-2.5.562-3.375-3.318-.873-3.882s3.375 3.318.873 3.882z" class="cls-6" transform="translate(-768.599 -521.202)"/>
                            <path id="Path_2824" d="M770.583 523.753a.568.568 0 0 0 .435-.776c-.067-.3-.246-.625-.726-.518a.516.516 0 0 0-.39.251.788.788 0 0 0-.045.525c.066.297.243.627.726.518z" class="cls-7" transform="translate(-768.507 -521.11)"/>
                        </g>
                        <g id="Group_3652" transform="translate(978.541 603.235)">
                            <path id="Path_2825" d="M903.577 615.646c-2.5.562-3.375-3.318-.873-3.881s3.376 3.318.873 3.881z" class="cls-6" transform="translate(-901.21 -611.71)"/>
                            <path id="Path_2826" d="M903.194 614.261a.569.569 0 0 0 .436-.776c-.067-.3-.247-.625-.727-.518a.511.511 0 0 0-.389.251.794.794 0 0 0-.046.525c.066.297.247.627.726.518z" class="cls-7" transform="translate(-901.118 -611.619)"/>
                        </g>
                        <g id="Group_3653" transform="translate(1016.707 563.186)">
                            <path id="Path_2827" d="M939.1 578.369c-2.5.563-3.376-3.317-.875-3.881s3.376 3.318.875 3.881z" class="cls-6" transform="translate(-936.734 -574.433)"/>
                            <path id="Path_2828" d="M938.718 576.984a.57.57 0 0 0 .436-.776c-.067-.3-.247-.625-.727-.518a.514.514 0 0 0-.389.251.8.8 0 0 0-.046.525c.066.297.247.627.726.518z" class="cls-7" transform="translate(-936.642 -574.341)"/>
                        </g>
                        <g id="Group_3654" transform="translate(977.859 491.548)">
                            <path id="Path_2829" d="M902.943 511.689c-2.5.562-3.376-3.318-.873-3.881s3.375 3.318.873 3.881z" class="cls-6" transform="translate(-900.575 -507.753)"/>
                            <path id="Path_2830" d="M902.56 510.3a.57.57 0 0 0 .435-.777c-.067-.3-.247-.625-.726-.517a.514.514 0 0 0-.39.251.792.792 0 0 0-.046.524c.067.302.247.632.727.519z" class="cls-7" transform="translate(-900.483 -507.661)"/>
                        </g>
                        <g id="Group_3655" transform="translate(648.704 224.893)">
                            <path id="Path_2831" d="M596.569 263.492c-2.5.562-3.376-3.319-.875-3.882s3.376 3.318.875 3.882z" class="cls-6" transform="translate(-594.201 -259.554)"/>
                            <path id="Path_2832" d="M596.186 262.1a.569.569 0 0 0 .435-.776c-.067-.3-.247-.625-.726-.518a.514.514 0 0 0-.39.251.794.794 0 0 0-.046.525c.066.302.247.632.727.518z" class="cls-7" transform="translate(-594.109 -259.462)"/>
                        </g>
                        <g id="Group_3656" transform="translate(708.734 134.487)">
                            <path id="Path_2833" d="M652.444 179.341c-2.5.562-3.376-3.318-.873-3.881s3.375 3.318.873 3.881z" class="cls-6" transform="translate(-650.076 -175.405)"/>
                            <path id="Path_2834" d="M652.061 177.956a.518.518 0 0 0 .39-.25.788.788 0 0 0 .045-.525c-.067-.3-.246-.626-.726-.518a.513.513 0 0 0-.39.251.788.788 0 0 0-.045.525c.065.296.246.626.726.517z" class="cls-7" transform="translate(-649.984 -175.314)"/>
                        </g>
                        <g id="Group_3657" transform="translate(700.033 64.798)">
                            <path id="Path_2835" d="M644.345 114.475c-2.5.563-3.375-3.318-.873-3.881s3.375 3.318.873 3.881z" class="cls-6" transform="translate(-641.978 -110.539)"/>
                            <path id="Path_2836" d="M643.962 113.09a.569.569 0 0 0 .436-.776c-.067-.3-.247-.625-.727-.518a.519.519 0 0 0-.39.251.788.788 0 0 0-.045.525c.064.297.246.628.726.518z" class="cls-7" transform="translate(-641.886 -110.447)"/>
                        </g>
                        <g id="Group_3658" transform="translate(793.789)">
                            <path id="Path_2837" d="M731.613 54.163c-2.5.562-3.376-3.319-.874-3.882s3.376 3.318.874 3.882z" class="cls-6" transform="translate(-729.245 -50.226)"/>
                            <path id="Path_2838" d="M731.23 52.777a.569.569 0 0 0 .435-.776c-.067-.3-.247-.625-.727-.518a.514.514 0 0 0-.389.251.794.794 0 0 0-.046.525c.066.297.247.626.727.518z" class="cls-7" transform="translate(-729.153 -50.134)"/>
                        </g>
                        <g id="Group_3659" transform="translate(787.444 111.522)">
                            <path id="Path_2839" d="M725.706 157.966c-2.5.562-3.375-3.318-.873-3.881s3.375 3.318.873 3.881z" class="cls-6" transform="translate(-723.339 -154.03)"/>
                            <path id="Path_2840" d="M725.323 156.581a.569.569 0 0 0 .435-.777c-.067-.3-.246-.625-.726-.517a.568.568 0 0 0-.435.776c.067.296.247.625.726.518z" class="cls-7" transform="translate(-723.247 -153.938)"/>
                        </g>
                        <g id="Group_3660" transform="translate(552.589 372.355)">
                            <path id="Path_2841" d="M507.107 400.746c-2.5.562-3.376-3.318-.875-3.881s3.376 3.318.875 3.881z" class="cls-6" transform="translate(-504.739 -396.81)"/>
                            <path id="Path_2842" d="M506.723 399.361a.571.571 0 0 0 .436-.777c-.067-.3-.247-.625-.727-.517a.569.569 0 0 0-.435.776c.067.297.247.627.726.518z" class="cls-7" transform="translate(-504.647 -396.718)"/>
                        </g>
                        <g id="Group_3661" transform="translate(902.729 538.171)">
                            <path id="Path_2843" d="M833.012 555.086c-2.5.562-3.375-3.318-.874-3.881s3.375 3.318.874 3.881z" class="cls-6" transform="translate(-830.645 -551.15)"/>
                            <path id="Path_2844" d="M832.629 553.7a.569.569 0 0 0 .435-.777c-.067-.3-.246-.625-.726-.517a.513.513 0 0 0-.39.25.788.788 0 0 0-.045.525c.066.298.246.627.726.519z" class="cls-7" transform="translate(-830.553 -551.058)"/>
                        </g>
                    </g>
                    <path id="Path_2845" d="M595.756 268.446l29.088-44.06 31.018-46.986" class="cls-8" transform="translate(54.619 -40.77)"/>
                    <path id="Path_2846" d="M425.633 447.344L543.6 361.222l87.176-63.643" class="cls-8" transform="translate(41.969 -31.834)"/>
                    <path id="Path_2847" d="M425.263 604.7l-121.09-161.845-30.673-40.99" class="cls-8" transform="translate(30.657 -24.079)"/>
                    <path id="Path_2848" d="M426.442 436.979l-4.783 67.6-6.9 97.509" class="cls-8" transform="translate(41.16 -21.468)"/>
                    <path id="Path_2850" d="M493.455 508.069l93.689-106.152 27.095-30.7" class="cls-8" transform="translate(47.012 -26.358)"/>
                    <path id="Path_2851" d="M673.965 275.042l3.429 106.917 1.429 44.541" class="cls-8" transform="translate(60.434 -33.51)"/>
                    <path id="Path_2852" d="M140.364 478.978l59.222-31.729 84.243-45.134" class="cls-8" transform="translate(20.757 -24.061)"/>
                    <path id="Path_2853" d="M369.795 532.822l-92.615-23.883-136.816-35.281" class="cls-8" transform="translate(20.757 -18.741)"/>
                </g>
            </g>
        </g>
    </g>
</svg>
