<svg xmlns="http://www.w3.org/2000/svg" width="141" height="141" viewBox="0 0 141 141">
    <defs>
        <clipPath id="clip-path">
            <path id="Path_129" fill="none" d="M252.345-1104.815l-29.469 22.643-.558 8.558 27.526 24.726-71.034 30.378-40.789-67.683 16.316-58.4 54.384-2.7 48.04 25.905z" transform="translate(-138.023 1147.287)"/>
        </clipPath>
        <style>
            .cls-3{fill:#fff}
        </style>
    </defs>
    <g id="Group_385" transform="translate(-133.563 1154.839)">
        <g id="Group_340" transform="translate(134.063 -1154.339)">
            <path id="Path_122" fill="#fff" stroke="#00095e" d="M273.806-1045.473c0 16.949-14.125 30.876-31.549 30.876h-76.9c-17.424 0-31.549-13.927-31.549-30.876v-78.257c0-16.949 14.125-30.867 31.549-30.867h76.9c17.424 0 31.549 13.918 31.549 30.867z" transform="translate(-133.806 1154.597)"/>
            <path id="Path_123" d="M232.678-1026.847h-69.984c-16.129 0-29.249-12.941-29.249-28.628v-71.213c0-15.687 13.12-28.271 29.249-28.271h69.984c16.128 0 29.249 12.583 29.249 28.271v71.213c.001 15.687-13.121 28.628-29.249 28.628z" class="cls-3" transform="translate(-127.501 1160.902)"/>
        </g>
        <g id="Group_341" opacity="0.3" transform="translate(139.963 -1148.728)">
            <path id="Path_124" fill="blue" stroke="#000" stroke-miterlimit="10" d="M268.7-1084.743a64.485 64.485 0 0 1-64.577 64.391 64.485 64.485 0 0 1-64.577-64.391 64.485 64.485 0 0 1 64.577-64.392 64.486 64.486 0 0 1 64.577 64.392z" opacity="0.3" transform="translate(-139.549 1149.135)"/>
            <path id="Path_125" fill="blue" stroke="#000" stroke-miterlimit="10" d="M256.619-1085.055a52.712 52.712 0 0 1-52.806 52.619 52.712 52.712 0 0 1-52.806-52.619 52.714 52.714 0 0 1 52.806-52.622 52.714 52.714 0 0 1 52.806 52.622z" opacity="0.5" transform="translate(-139.236 1149.448)"/>
            <path id="Path_126" d="M240.556-1085.471A37.065 37.065 0 0 1 203.4-1048.5a37.065 37.065 0 0 1-37.158-36.971 37.066 37.066 0 0 1 37.158-36.974 37.066 37.066 0 0 1 37.156 36.974z" class="cls-3" transform="translate(-138.82 1149.864)"/>
        </g>
        <g id="Group_346" transform="translate(138.395 -1146.83)">
            <g id="Group_342" transform="translate(54.282 37.334)">
                <path id="Path_127" fill="#00095e" d="M199.721-1074.29l-15.431-16.4 8.606-8.1 7.988 8.492 30.031-23.84 7.346 9.254z" transform="translate(-184.29 1114.138)"/>
            </g>
            <g id="Group_345">
                <g id="Group_344" clip-path="url(#clip-path)">
                    <g id="Group_343" transform="translate(24.171 18.718)">
                        <path id="Path_128" fill="blue" d="M204-1042.8a43.932 43.932 0 0 1-44.075-43.687A43.931 43.931 0 0 1 204-1130.172a43.931 43.931 0 0 1 44.075 43.686A43.932 43.932 0 0 1 204-1042.8zm0-73a29.476 29.476 0 0 0-29.571 29.311A29.475 29.475 0 0 0 204-1057.174a29.475 29.475 0 0 0 29.571-29.312A29.476 29.476 0 0 0 204-1115.8z" transform="translate(-159.93 1130.172)"/>
                    </g>
                </g>
            </g>
        </g>
    </g>
</svg>
