<svg xmlns="http://www.w3.org/2000/svg" width="22" height="18" viewBox="0 0 22 18">
    <path fill="#03a9f4" d="M21.874 45.9a.48.48 0 0 0-.574-.1 4.1 4.1 0 0 1-.611.22 4.278 4.278 0 0 0 .727-1.393.478.478 0 0 0-.737-.512 10.079 10.079 0 0 1-2.3.9 4.83 4.83 0 0 0-6.031-.464 4.717 4.717 0 0 0-2.066 4.366 11.34 11.34 0 0 1-7.932-4.253.5.5 0 0 0-.407-.178.478.478 0 0 0-.383.232 4.591 4.591 0 0 0-.528 3.578 5.085 5.085 0 0 0 .831 1.73 2.541 2.541 0 0 1-.486-.309.48.48 0 0 0-.673.07.475.475 0 0 0-.107.3 4.921 4.921 0 0 0 2.548 4.228 3.561 3.561 0 0 1-.616-.131.477.477 0 0 0-.574.651 5.214 5.214 0 0 0 3.623 2.952 8.459 8.459 0 0 1-5.044 1.028.476.476 0 0 0-.29.888 14.382 14.382 0 0 0 7.069 2 12.179 12.179 0 0 0 6.709-2.043c3.791-2.5 6.153-7 5.824-11.024a8.912 8.912 0 0 0 2.08-2.158.475.475 0 0 0-.052-.578z" transform="translate(0 -43.702)"/>
</svg>
