<svg xmlns="http://www.w3.org/2000/svg" width="40" height="40" viewBox="0 0 40 40">
    <defs>
        <style>
            .cls-2{fill:#fff}
        </style>
    </defs>
    <g id="Group_3884" transform="translate(-486 -170)">
        <circle id="Ellipse_1299" cx="20" cy="20" r="20" fill="#01095e" transform="translate(486 170)"/>
        <g id="Group_3829" transform="translate(2 3)">
            <g id="Group_3745" transform="translate(1432.268 -3.041)">
                <path id="Path_3141" d="M-917.654 183.041h-14.281a.387.387 0 0 0-.386.386v.386h-4.419a1.757 1.757 0 0 0-1.757 1.756v.56a.388.388 0 0 0 .386.386h.449l-.294 3.536a1.759 1.759 0 0 0-1.312 1.694v3.261a.387.387 0 0 0 .385.386h.782a2.507 2.507 0 0 0 2.692 2.306 2.5 2.5 0 0 0 2.306-2.306h.782a.387.387 0 0 0 .386.386h8.467a2.441 2.441 0 0 0 2.885 1.891 2.44 2.44 0 0 0 1.891-1.891h1.038a.388.388 0 0 0 .386-.386v-11.965a.388.388 0 0 0-.386-.386zm-20.071 2.528a.982.982 0 0 1 .985-.984h4.419v1.158h-5.4zm5.4.946v3.473h-4.854l.29-3.473zm-3.281 10.421a1.736 1.736 0 0 1-1.737-1.737 1.736 1.736 0 0 1 1.737-1.737 1.736 1.736 0 0 1 1.737 1.737 1.736 1.736 0 0 1-1.731 1.737zm2.509-2.316a.167.167 0 0 0-.068.015 2.505 2.505 0 0 0-3.005-1.882 2.5 2.5 0 0 0-1.877 1.867h-.454v-2.875a.983.983 0 0 1 .985-.985h5.191v3.86zm12.013 2.33a1.669 1.669 0 0 1-1.669-1.669 1.67 1.67 0 0 1 1.669-1.669 1.669 1.669 0 0 1 1.669 1.669 1.671 1.671 0 0 1-1.665 1.669zm3.04-1.944h-.613a2.444 2.444 0 0 0-2.7-2.152 2.442 2.442 0 0 0-2.152 2.152h-8.047v-11.193h13.509z" class="cls-2"/>
                <path id="Path_3142" d="M-923.38 192.826a.341.341 0 0 0 .341-.341v-3.744h.681a.341.341 0 0 0 .34-.341.344.344 0 0 0-.1-.242l-3.4-3.4a.342.342 0 0 0-.481 0l-3.4 3.4a.342.342 0 0 0 0 .481.315.315 0 0 0 .238.1h.681v3.744a.341.341 0 0 0 .34.341zm-3.063-.681V190.1h1.361v2.043zm.68-6.668l2.583 2.583h-5.166zm-2.042 3.264h4.085v3.4h-.681v-2.383a.341.341 0 0 0-.34-.34h-2.043a.341.341 0 0 0-.34.34v2.383h-.681z" class="cls-2"/>
            </g>
            <circle id="Ellipse_1090" cx="1" cy="1" r="1" class="cls-2" transform="translate(495.699 191.1)"/>
            <circle id="Ellipse_1091" cx="1" cy="1" r="1" class="cls-2" transform="translate(510.199 191.199)"/>
        </g>
    </g>
</svg>
