<svg xmlns="http://www.w3.org/2000/svg" width="40" height="40" viewBox="0 0 40 40">
    <defs>
        <style>
            .cls-2{fill:#fff}
        </style>
    </defs>
    <g id="Group_3887" transform="translate(-486 -170)">
        <circle id="Ellipse_1299" cx="20" cy="20" r="20" fill="#01095e" transform="translate(486 170)"/>
        <g id="Group_3750" transform="translate(1453.394 29.715)">
            <path id="Path_3145" d="M-958.394 166.819a2.7 2.7 0 0 1 .884-1.409q3.837-3.819 7.661-7.654c.061-.06.133-.109.212-.172-.419-.423-.809-.82-1.206-1.208a.237.237 0 0 0-.191-.016 1.643 1.643 0 0 1-1.918-.72 1.618 1.618 0 0 1 .288-2.025c1.264-1.268 2.534-2.531 3.795-3.8a2.07 2.07 0 0 1 .963-.529h.516c.066.023.131.049.2.069a1.617 1.617 0 0 1 1.094 2.019.3.3 0 0 0 .093.352q2.435 2.426 4.861 4.861a.249.249 0 0 0 .3.07 1.619 1.619 0 0 1 1.869.694 1.608 1.608 0 0 1-.207 1.982q-1.961 1.988-3.95 3.949a1.591 1.591 0 0 1-1.981.2 1.627 1.627 0 0 1-.69-1.889c.017-.06.029-.157 0-.191-.387-.4-.783-.792-1.239-1.247a1.31 1.31 0 0 1-.148.235q-3.955 3.96-7.913 7.916a1.869 1.869 0 0 1-2.217.449 1.85 1.85 0 0 1-1.011-1.239l-.053-.184zm11.727-14.511l-3.477 3.481 4.908 4.911 3.482-3.48zm-2.619 8.947l-1.413-1.424-.1.092-6.393 6.393c-.036.035-.071.07-.1.108a1 1 0 0 0 .455 1.606 1.019 1.019 0 0 0 1.092-.3q3.17-3.177 6.346-6.349c.045-.048.086-.096.113-.126zm-2.142-5.674a2.332 2.332 0 0 0 .452-.261c.26-.222.49-.48.733-.722l3.065-3.065a.811.811 0 0 0 .283-.707.736.736 0 0 0-.529-.64.757.757 0 0 0-.82.223q-1.9 1.906-3.809 3.809c-.03.031-.061.06-.088.094a.74.74 0 0 0-.106.823.808.808 0 0 0 .818.446zm7.161 7.29a.822.822 0 0 0 .623-.287q1.867-1.871 3.737-3.738a1.741 1.741 0 0 0 .159-.173.768.768 0 0 0-.4-1.2.79.79 0 0 0-.82.239l-3.8 3.8a1.017 1.017 0 0 0-.137.163.735.735 0 0 0-.034.794.735.735 0 0 0 .671.402zm-5.755-3.709l1.388 1.38.946-.943-1.384-1.387z" class="cls-2"/>
            <path id="Path_3146" d="M-938.685 168.331h1.718c.383 0 .531.15.532.534v1.844c0 .383-.151.538-.528.538h-13.57c-.371 0-.525-.152-.526-.517v-1.886c0-.355.157-.511.509-.513h1.672a.329.329 0 0 0 .069-.025v-.987-.536c.007-.354.161-.506.516-.507h9.023c.439 0 .58.137.581.572.005.481.004.966.004 1.483zm1.379 2.049v-1.191h-4.361c-.375 0-.571-.146-.574-.424s.2-.434.563-.434h2.121v-1.189h-8.38v1.189h2.216a.427.427 0 0 1 .417.628.469.469 0 0 1-.471.23h-4.412v1.191z" class="cls-2" transform="translate(.04 .037)"/>
            <path id="Path_3147" d="M-939.135 163.1a.431.431 0 0 1-.455-.247.41.41 0 0 1 .084-.476c.187-.2.381-.385.573-.576.474-.475.947-.951 1.423-1.423a.442.442 0 0 1 .646-.049.411.411 0 0 1 .012.6q-1.022 1.038-2.058 2.059a.719.719 0 0 1-.225.112z" class="cls-2" transform="translate(.04 .021)"/>
            <path id="Path_3148" d="M-938 164.77h-1.048c-.307 0-.5-.176-.493-.44a.434.434 0 0 1 .492-.418h2.118a.439.439 0 0 1 .494.439.44.44 0 0 1-.494.418c-.356.003-.713.001-1.069.001z" class="cls-2" transform="translate(.04 .026)"/>
            <path id="Path_3149" d="M-947.067 154.787a4.143 4.143 0 0 1 .411-.17.428.428 0 0 1 .521.266.45.45 0 0 1-.248.549 1.744 1.744 0 0 0-.432.358.275.275 0 0 0 0 .267.294.294 0 0 0 .26.075 3.662 3.662 0 0 0 .552-.227 1.146 1.146 0 0 1 1.358.126 1.224 1.224 0 0 1 .361 1.382c-.05.151.036.2.11.284a.423.423 0 0 1 .11.471.364.364 0 0 1-.353.264.576.576 0 0 1-.345-.124.225.225 0 0 0-.312-.032 1.673 1.673 0 0 1-.464.152.412.412 0 0 1-.493-.307.448.448 0 0 1 .3-.522 2.13 2.13 0 0 0 .539-.319.388.388 0 0 0 .042-.544c-.139-.183-.3-.134-.48-.059a5.085 5.085 0 0 1-.775.3 1.067 1.067 0 0 1-1.274-1.362.22.22 0 0 0-.047-.264c-.244-.241-.264-.481-.086-.673a.457.457 0 0 1 .694.072.237.237 0 0 0 .051.037z" class="cls-2" transform="translate(.023 .011)"/>
            <path id="Path_3150" d="M-943.325 168.757a.423.423 0 0 1-.41.43.429.429 0 0 1-.438-.426.427.427 0 0 1 .433-.43.425.425 0 0 1 .415.426z" class="cls-2" transform="translate(.027 .037)"/>
        </g>
    </g>
</svg>
