<svg xmlns="http://www.w3.org/2000/svg" width="40" height="40" viewBox="0 0 40 40">
    <defs>
        <style>
            .cls-2{fill:#fff}
        </style>
    </defs>
    <g id="Group_3893" transform="translate(-486 -170)">
        <circle id="Ellipse_1299" cx="20" cy="20" r="20" fill="#01095e" transform="translate(486 170)"/>
        <g id="Group_3874" transform="translate(137.975 -234.768)">
            <g id="Group_3873">
                <g id="Group_3872">
                    <g id="Group_3868">
                        <path id="Path_3202" d="M377.361 430.117l-3.988-2.66a1.165 1.165 0 0 0-1.559.253l-1.161 1.494a.5.5 0 0 1-.637.134l-.221-.122a18.54 18.54 0 0 1-6.214-6.216l-.122-.221a.5.5 0 0 1 .132-.639l1.493-1.161a1.166 1.166 0 0 0 .253-1.559l-2.66-3.988a1.158 1.158 0 0 0-1.561-.352l-1.667 1a2.352 2.352 0 0 0-1.073 1.392c-.6 2.189-.149 5.965 5.414 11.529 4.425 4.425 7.72 5.615 9.984 5.615a5.826 5.826 0 0 0 1.543-.2 2.351 2.351 0 0 0 1.393-1.073l1-1.666a1.158 1.158 0 0 0-.349-1.56zm-.214 1.225l-1 1.667a1.7 1.7 0 0 1-1 .777c-2.02.554-5.55.1-10.89-5.246s-5.8-8.869-5.246-10.89a1.7 1.7 0 0 1 .778-1l1.667-1a.5.5 0 0 1 .678.152l1.444 2.169 1.213 1.819a.506.506 0 0 1-.11.677l-1.493 1.161a1.149 1.149 0 0 0-.3 1.475l.119.215a19.163 19.163 0 0 0 6.477 6.478l.216.119a1.15 1.15 0 0 0 1.475-.3l1.161-1.493a.506.506 0 0 1 .677-.109l3.987 2.659a.5.5 0 0 1 .147.67z" class="cls-2"/>
                        <path id="Path_3203" d="M373.8 434.768h-.022c-2.938 0-6.333-1.9-10.088-5.659-5.614-5.614-6.063-9.446-5.451-11.671a2.485 2.485 0 0 1 1.14-1.481l1.666-1a1.3 1.3 0 0 1 1.76.4l2.66 3.988a1.319 1.319 0 0 1-.285 1.757l-1.494 1.162a.352.352 0 0 0-.093.45l.122.222a18.426 18.426 0 0 0 6.156 6.155l.221.123a.35.35 0 0 0 .448-.1l1.163-1.494a1.32 1.32 0 0 1 1.757-.286l3.989 2.659a1.306 1.306 0 0 1 .395 1.762l-1 1.666a2.484 2.484 0 0 1-1.48 1.139 5.99 5.99 0 0 1-1.564.208zm-12.082-19.7a1.014 1.014 0 0 0-.521.145l-1.667 1a2.193 2.193 0 0 0-1.006 1.306c-.591 2.149-.138 5.869 5.376 11.383 3.7 3.7 7.022 5.572 9.879 5.572h.021a5.732 5.732 0 0 0 1.484-.2 2.195 2.195 0 0 0 1.3-1.006l1-1.667a1.009 1.009 0 0 0-.3-1.363l-3.989-2.659a1.02 1.02 0 0 0-1.36.221l-1.162 1.492a.647.647 0 0 1-.824.174l-.221-.123a18.655 18.655 0 0 1-6.273-6.272l-.122-.221a.647.647 0 0 1 .173-.827l1.491-1.16a1.023 1.023 0 0 0 .221-1.362l-2.66-3.987a1.01 1.01 0 0 0-.845-.45zm12.052 19.049c-2.144 0-5.3-1.155-9.615-5.468-5.39-5.39-5.848-8.975-5.283-11.034a1.838 1.838 0 0 1 .846-1.091l1.665-1a.647.647 0 0 1 .877.2l2.657 3.987a.656.656 0 0 1-.142.875l-1.494 1.161a1.007 1.007 0 0 0-.265 1.287l.118.216a19.07 19.07 0 0 0 6.419 6.419l.217.12a1.009 1.009 0 0 0 1.286-.265l1.163-1.494a.655.655 0 0 1 .874-.142l3.988 2.659a.646.646 0 0 1 .2.877l-1 1.667a1.842 1.842 0 0 1-1.087.843 5.353 5.353 0 0 1-1.429.179zm-12.052-18.391a.362.362 0 0 0-.183.051l-1.667 1a1.545 1.545 0 0 0-.711.917c-.544 1.981-.082 5.456 5.208 10.744s8.766 5.751 10.746 5.208a1.54 1.54 0 0 0 .912-.708l1-1.671a.353.353 0 0 0-.107-.477l-3.988-2.659a.359.359 0 0 0-.479.078l-1.161 1.492a1.3 1.3 0 0 1-1.663.343l-.215-.12a19.3 19.3 0 0 1-6.537-6.535l-.117-.214a1.3 1.3 0 0 1 .343-1.664l1.493-1.161a.36.36 0 0 0 .077-.479l-2.658-3.987a.352.352 0 0 0-.298-.162z" class="cls-2"/>
                    </g>
                    <g id="Group_3869">
                        <path id="Path_3204" d="M369.339 418.2a5.587 5.587 0 0 1 5.582 5.582.329.329 0 0 0 .657 0 6.246 6.246 0 0 0-6.239-6.239.328.328 0 0 0 0 .657z" class="cls-2"/>
                        <path id="Path_3205" d="M375.25 424.261a.477.477 0 0 1-.476-.477 5.448 5.448 0 0 0-5.434-5.434.477.477 0 1 1 0-.953 6.4 6.4 0 0 1 6.386 6.387.477.477 0 0 1-.476.477zm-5.91-6.568a.18.18 0 1 0 0 .361 5.747 5.747 0 0 1 5.73 5.73.18.18 0 1 0 .36 0 6.106 6.106 0 0 0-6.09-6.091z" class="cls-2"/>
                    </g>
                    <g id="Group_3870">
                        <path id="Path_3206" d="M369.339 420.172a3.616 3.616 0 0 1 3.612 3.612.329.329 0 0 0 .657 0 4.274 4.274 0 0 0-4.269-4.269.328.328 0 0 0 0 .657z" class="cls-2"/>
                        <path id="Path_3207" d="M373.28 424.261a.478.478 0 0 1-.477-.477 3.473 3.473 0 0 0-3.463-3.464.476.476 0 1 1 0-.952 4.427 4.427 0 0 1 4.416 4.416.477.477 0 0 1-.476.477zm-3.94-4.6a.18.18 0 1 0 0 .361 3.773 3.773 0 0 1 3.76 3.76.18.18 0 1 0 .359 0 4.131 4.131 0 0 0-4.119-4.119z" class="cls-2"/>
                    </g>
                    <g id="Group_3871">
                        <path id="Path_3208" d="M369.339 422.142a1.644 1.644 0 0 1 1.642 1.642.329.329 0 0 0 .657 0 2.3 2.3 0 0 0-2.3-2.3.329.329 0 0 0 0 .657z" class="cls-2"/>
                        <path id="Path_3209" d="M371.309 424.261a.477.477 0 0 1-.476-.477 1.5 1.5 0 0 0-1.493-1.494.476.476 0 1 1 0-.952 2.454 2.454 0 0 1 2.446 2.446.478.478 0 0 1-.477.477zm-1.969-2.628a.18.18 0 1 0 0 .361 1.794 1.794 0 0 1 1.789 1.79.18.18 0 0 0 .361 0 2.157 2.157 0 0 0-2.15-2.151z" class="cls-2"/>
                    </g>
                </g>
            </g>
        </g>
    </g>
</svg>
