<svg xmlns="http://www.w3.org/2000/svg" width="40" height="40" viewBox="0 0 40 40">
    <defs>
        <style>
            .cls-2{fill:#fff}
        </style>
    </defs>
    <g id="Group_3895" transform="translate(-941 -170)">
        <circle id="Ellipse_1299" cx="20" cy="20" r="20" fill="#01095e" transform="translate(941 170)"/>
        <g id="Group_3866" transform="translate(744.36 -26.64)">
            <g id="Group_3857">
                <g id="Group_3856">
                    <path id="Path_3191" d="M216.64 206.64a10 10 0 1 0 10 10 10 10 0 0 0-10-10zm0 19.261a9.261 9.261 0 1 1 9.261-9.261 9.261 9.261 0 0 1-9.261 9.26z" class="cls-2"/>
                </g>
            </g>
            <g id="Group_3859">
                <g id="Group_3858">
                    <path id="Path_3192" d="M218.468 217.925a3.4 3.4 0 0 0-.68-.716c-.369-.314-.624-.525-.834-2.378-.089-.776-.259-1.566-.846-1.566s-.945.842-1.2 1.558a.666.666 0 0 1-.111.148 1.178 1.178 0 0 1-.2-.369l-.078-.185-.2-.037a2.352 2.352 0 0 0-.41-.033 2.107 2.107 0 0 0-1.706.816.657.657 0 0 1-.392.1.508.508 0 0 0-.188-.037c-.369 0-.488.34-.572.561-.148.37-.237.51-.484.51a1.759 1.759 0 0 0-1.477.7 1.6 1.6 0 0 0-.122 1.492l.081.211a5.312 5.312 0 0 1 .473 2.079.883.883 0 0 0 .852.912h.06a3.646 3.646 0 0 0 2.278-1.366.79.79 0 0 1 .6-.329 1.228 1.228 0 0 1 .889.576 3.424 3.424 0 0 0 2.423 1.337 1.469 1.469 0 0 0 .661-.148 3.12 3.12 0 0 0 1.444-1.964 2.254 2.254 0 0 0-.261-1.872zm-.454 1.669v.015a2.421 2.421 0 0 1-1.06 1.477.732.732 0 0 1-.332.07 2.86 2.86 0 0 1-1.754-.912 1.932 1.932 0 0 0-1.547-.99 1.5 1.5 0 0 0-1.16.6 2.982 2.982 0 0 1-1.713 1.108c-.093 0-.159 0-.174-.222a6.036 6.036 0 0 0-.521-2.3l-.081-.21a.87.87 0 0 1 .037-.827 1.03 1.03 0 0 1 .864-.37 1.262 1.262 0 0 0 1.171-.986V216a1.57 1.57 0 0 0 .908-.254l.056-.037.04-.056a1.353 1.353 0 0 1 1.16-.535h.088a.965.965 0 0 0 .8.617c.472 0 .738-.506.786-.606v-.037a4.454 4.454 0 0 1 .465-.975 3.808 3.808 0 0 1 .156.805c.232 2.042.568 2.419 1.107 2.858a2.719 2.719 0 0 1 .54.573 1.541 1.541 0 0 1 .164 1.241z" class="cls-2"/>
                </g>
            </g>
            <g id="Group_3861">
                <g id="Group_3860">
                    <path id="Path_3193" d="M215.292 222.179l-.063-.118-.136-.052a1.824 1.824 0 0 0-.6-.1 1.013 1.013 0 0 0-.738.292 1.164 1.164 0 0 0-.281.89c.026.646.425.875.739.875a1.265 1.265 0 0 0 .989-.624 1.159 1.159 0 0 0 .09-1.163zm-.709.765a.6.6 0 0 1-.369.276.469.469 0 0 1-.03-.166.507.507 0 0 1 .074-.35.322.322 0 0 1 .222-.063.964.964 0 0 1 .17 0 .5.5 0 0 1-.071.3z" class="cls-2"/>
                </g>
            </g>
            <g id="Group_3863">
                <g id="Group_3862">
                    <path id="Path_3194" d="M218.763 211.562c-.181-.494-.867-.723-1.322-.83a1.214 1.214 0 0 0-.258-.6 2.179 2.179 0 0 0-1.762-.639 2.76 2.76 0 0 0-1.6-.676 1.539 1.539 0 0 0-1.263.672 1.071 1.071 0 0 0-.222 1.145c.277.58 1.152.738 1.584.783a1.647 1.647 0 0 0 1.3.856 1.328 1.328 0 0 0 .617-.158 2.939 2.939 0 0 0 1.728.827 1.235 1.235 0 0 0 .949-.432.9.9 0 0 0 .249-.948zm-.8.462v-.011a.5.5 0 0 1-.4.185 2.6 2.6 0 0 1-1.415-.809.369.369 0 0 0-.487-.037.739.739 0 0 1-.44.181c-.428 0-.738-.624-.738-.628a.371.371 0 0 0-.318-.21c-.472-.023-1.067-.181-1.159-.37-.034-.073.022-.218.147-.369a.8.8 0 0 1 .669-.369 2.138 2.138 0 0 1 1.211.576.375.375 0 0 0 .259.1h.07a1.582 1.582 0 0 1 1.237.369.5.5 0 0 1 .111.369.368.368 0 0 0 .291.417c.477.063 1 .266 1.053.407.026.014.019.075-.088.199z" class="cls-2"/>
                </g>
            </g>
            <g id="Group_3865">
                <g id="Group_3864">
                    <path id="Path_3195" d="M223.955 219.576c-.2-.617-.524-.739-.76-.739a1.067 1.067 0 0 0-.816.6 6.727 6.727 0 0 1-.853.868h-.661a.37.37 0 0 0-.372.367v.039l.074.717-.642.646a.371.371 0 0 0-.108.269.984.984 0 0 0 1.021.943h.017a2 2 0 0 0 .558-.089.363.363 0 0 0 .118-.059c.482-.368 2.853-2.238 2.424-3.562zm-2.814 2.935a1.133 1.133 0 0 1-.284.041.294.294 0 0 1-.266-.111l.628-.631a.371.371 0 0 0 .107-.3l-.052-.484h.392a.372.372 0 0 0 .244-.092 7.817 7.817 0 0 0 1.1-1.116v-.011a1.174 1.174 0 0 1 .155-.2 1.026 1.026 0 0 1 .085.2c.192.593-1.108 1.947-2.109 2.704z" class="cls-2"/>
                </g>
            </g>
        </g>
    </g>
</svg>
