<svg xmlns="http://www.w3.org/2000/svg" width="40" height="40" viewBox="0 0 40 40">
    <defs>
        <style>
            .cls-2{fill:#fff}
        </style>
    </defs>
    <g id="Group_3883" transform="translate(-486 -170)">
        <circle id="Ellipse_1299" cx="20" cy="20" r="20" fill="#01095e" transform="translate(486 170)"/>
        <g id="Group_3744" transform="translate(1463.13 7.102)">
            <g id="Group_3741" transform="translate(-966.637 180.644)">
                <path id="Path_3138" d="M-965.162 180.469a.557.557 0 0 1-.564.564h-.8a.557.557 0 0 1-.564-.564.565.565 0 0 1 .564-.564h.8a.565.565 0 0 1 .564.564z" class="cls-2" transform="translate(967.091 -179.905)"/>
            </g>
            <g id="Group_3742" transform="translate(-970.13 173.898)">
                <path id="Path_3139" d="M-947.636 178.5l-.134-.08v-3.97a.567.567 0 0 0-.58-.552h-21.2a.567.567 0 0 0-.58.552v13.511a.568.568 0 0 0 .58.553h11.308l.1.126a7.742 7.742 0 0 0 6.362 3.257 7.486 7.486 0 0 0 7.655-7.285 7.177 7.177 0 0 0-3.511-6.112zm-1.294-3.5v2.843l-.4-.127a7.884 7.884 0 0 0-1.174-.276l-.132-.057a3.636 3.636 0 0 1-1.428-2.026l-.1-.358zm-20.039 0h3.229l-.1.358a3.75 3.75 0 0 1-2.757 2.624l-.376.092zm0 12.407v-3.073l.376.092a3.75 3.75 0 0 1 2.757 2.624l.1.357zm4.391 0l-.048-.242a4.9 4.9 0 0 0-4.088-3.9l-.254-.034v-4.051l.254-.035a4.883 4.883 0 0 0 4.088-3.9l.048-.242h11.258l.037.242a4.483 4.483 0 0 0 .689 1.726l.242.38-.46.057a7.974 7.974 0 0 0-3.664 1.462l-.194.15-.182-.15a3.331 3.331 0 0 0-3.446-.449 3.036 3.036 0 0 0-1.886 2.785 3.146 3.146 0 0 0 2.527 3l.23.046v.231a7.25 7.25 0 0 0 .423 2.543l.145.38zm7.086-7.63l-.206.231a7.425 7.425 0 0 0-1.512 2.866l-.072.3-.314-.092a1.993 1.993 0 0 1-1.428-1.876 1.936 1.936 0 0 1 1.125-1.75 2.159 2.159 0 0 1 2.14.138zm5.708 11.014a6.349 6.349 0 0 1-6.482-6.18 6.042 6.042 0 0 1 2.153-4.592 6.894 6.894 0 0 1 5.26-1.508 6.316 6.316 0 0 1 5.563 6.1 6.352 6.352 0 0 1-6.495 6.183z" class="cls-2" transform="translate(970.13 -173.898)"/>
            </g>
            <g id="Group_3743" transform="translate(-953.765 180.539)">
                <path id="Path_3140" d="M-952.334 185.35a2.011 2.011 0 0 1-1.283 1.636l-.188.082v.283a.572.572 0 0 1-.564.564.577.577 0 0 1-.576-.576v-.239l-.223-.059a3.176 3.176 0 0 1-.93-.389.581.581 0 0 1-.247-.353.58.58 0 0 1 .083-.423.573.573 0 0 1 .47-.259.521.521 0 0 1 .317.094 1.781 1.781 0 0 0 1.495.2.893.893 0 0 0 .517-.682.733.733 0 0 0-.317-.659 3.313 3.313 0 0 0-.764-.376A2.576 2.576 0 0 1-956 183.14a1.562 1.562 0 0 1-.094-1.317 1.731 1.731 0 0 1 .976-1.036l.177-.117v-.2a.575.575 0 0 1 .576-.564.552.552 0 0 1 .553.553l.011.212.2.07a1.862 1.862 0 0 1 .706.389.562.562 0 0 1 .036.8.558.558 0 0 1-.389.187.545.545 0 0 1-.411-.153 1.075 1.075 0 0 0-1.129-.082.581.581 0 0 0-.223.717 1.582 1.582 0 0 0 .859.529 4.457 4.457 0 0 1 1.07.553 1.872 1.872 0 0 1 .748 1.669z" class="cls-2" transform="translate(956.354 -179.905)"/>
            </g>
        </g>
    </g>
</svg>
