<svg xmlns="http://www.w3.org/2000/svg" width="40" height="40" viewBox="0 0 40 40">
    <defs>
        <style>
            .cls-2{fill:#fff}
        </style>
    </defs>
    <g id="Group_3888" transform="translate(-486 -170)">
        <circle id="Ellipse_1299" cx="20" cy="20" r="20" fill="#01095e" transform="translate(486 170)"/>
        <g id="Group_3767" transform="translate(1411.12 35.07)">
            <g id="Group_3751" transform="translate(-909.937 153.823)">
                <path id="Path_3151" d="M-906.9 154.3a1.756 1.756 0 0 1-1.46.8 1.7 1.7 0 0 1-1.45-.8.216.216 0 0 1 .07-.3.216.216 0 0 1 .3.07 1.279 1.279 0 0 0 1.77.4 1.273 1.273 0 0 0 .4-.4.223.223 0 0 1 .3-.07.223.223 0 0 1 .07.3z" class="cls-2" transform="translate(909.843 -153.965)"/>
            </g>
            <g id="Group_3752" transform="translate(-916.12 143.93)">
                <path id="Path_3152" d="M-896.943 143.93a2.822 2.822 0 0 0-2.625 1.805h-5.853a.792.792 0 0 0-.79.789v.089a2.35 2.35 0 0 0-.563.138 2.178 2.178 0 0 0-1.688-.8h-.948a3.7 3.7 0 0 0-3.681 3.68v1.322a1.692 1.692 0 0 0-.5 1.213 1.7 1.7 0 0 0 1.619 1.7 3.551 3.551 0 0 0 1.569 2.4v.276a.669.669 0 0 1-.375.6l-.76.375a3.792 3.792 0 0 1-.513.187l-2.369.592a1.709 1.709 0 0 0-1.3 1.559l-.395 5.081v.059a.935.935 0 0 0 .928.937h13.532a.929.929 0 0 0 .849-1.006l-.306-3.9h5.073a.807.807 0 0 0 .8-.789V149a2.817 2.817 0 0 0 1.125-2.249 2.822 2.822 0 0 0-2.829-2.821zm-15.091 9.2a1 1 0 0 1-.839-.977.975.975 0 0 1 .523-.848l.049-.03a.14.14 0 0 1 .059-.02 1.7 1.7 0 0 1 .207-.069zm.286-2.91c-.02.01-.049.02-.049.03s-.02.01-.03.01l-.04.039a.744.744 0 0 0-.109.138.031.031 0 0 1-.01.02 1.755 1.755 0 0 0-.385.069v-.9a2.984 2.984 0 0 1 2.971-2.96h.948a1.522 1.522 0 0 1 1.273.72.348.348 0 0 0 .494.128 1.534 1.534 0 0 1 .474-.187v2.4c-.109-.03-.227-.059-.316-.089a.772.772 0 0 1-.138-.049l-.069-.03a1.574 1.574 0 0 1-.227-.1 1.186 1.186 0 0 1-.168-.109l-.059-.03a.557.557 0 0 1-.079-.049 1.913 1.913 0 0 1-.2-.168l-.049-.039a.569.569 0 0 0-.395-.118.533.533 0 0 0-.355.207 3.2 3.2 0 0 1-.4.414 2.65 2.65 0 0 1-.434.306 3.381 3.381 0 0 1-2.29.286.591.591 0 0 0-.358.065zm.434 3.048v-2.358c.03 0 .069.01.109.01a3.669 3.669 0 0 0 .375.039 3.737 3.737 0 0 0 3.01-1.213 3.083 3.083 0 0 0 .513.335l.039.02c.069.039.158.069.247.109l.138.049a.95.95 0 0 0 .178.069 1 1 0 0 0 .247.059l.178.049a.183.183 0 0 1 .069.02v4.568a2.936 2.936 0 0 1-.928.77l-.148.059c-.03.01-.069.03-.1.039a2.739 2.739 0 0 1-1.076.227 3.544 3.544 0 0 1-.434-.039.193.193 0 0 0-.079-.01c-.03 0-.059-.01-.089-.01-.109-.03-.217-.069-.345-.109l-.3-.118a2.832 2.832 0 0 1-1.603-2.56zm5.1 2.752v1.08a.684.684 0 0 1-.316-.572v-.276a2.318 2.318 0 0 0 .319-.227zm-4.254 1.756a1.381 1.381 0 0 0 .77-1.154l.207.059.049.02a3.508 3.508 0 0 0 1.806.039.444.444 0 0 0 .079-.02c.069-.02.128-.039.188-.059l.039-.01a.314.314 0 0 1 .089-.03 1.405 1.405 0 0 0 .78 1.154l.168.079a2.531 2.531 0 0 1-.474.444 2.805 2.805 0 0 1-2.1.533 2.815 2.815 0 0 1-1.767-.977zm8.952 7.212a.213.213 0 0 1-.217.217h-1.589v-3.167a.354.354 0 0 0-.355-.355.356.356 0 0 0-.365.355v3.167h-8.774v-3.167a.356.356 0 0 0-.365-.355.354.354 0 0 0-.355.355v3.167h-1.678a.244.244 0 0 1-.138-.079.242.242 0 0 1-.059-.158l.4-5.071a.989.989 0 0 1 .75-.917l2.379-.592a2.71 2.71 0 0 0 .582-.207 3.549 3.549 0 0 0 2.833 1.411 3.545 3.545 0 0 0 2.25-.839v1.48a.794.794 0 0 0 .8.789h3.593l.306 3.946.148-.01zm5.537-4.755a.07.07 0 0 1-.069.079l-9.376-.01a.064.064 0 0 1-.049-.02.058.058 0 0 1-.02-.049v-13.708a.067.067 0 0 1 .069-.069h5.665a2.141 2.141 0 0 0-.01.256l-.01.039c0 .03.01.059.01.109.01.138.02.257.039.385a1.343 1.343 0 0 0 .04.168c.03.109.059.227.1.335l.02.039c.01.039.03.079.039.109l.148-.039-.128.079a.886.886 0 0 0 .049.1.57.57 0 0 1 .039.059 2.734 2.734 0 0 0 .168.286 1 1 0 0 0 .128.158l.069.089c.059.059.109.118.158.168a2.341 2.341 0 0 0 .217.178l.039.03a1.38 1.38 0 0 0 .178.128 1.705 1.705 0 0 0 .237.128l.049.03a1.736 1.736 0 0 0 .2.089c.079.03.148.049.227.079l.1.03c.069.01.128.03.2.039.1.02.2.03.286.039h.04a.168.168 0 0 1 .069.01c.039 0 .079.01.118.01l.039-.01a2.793 2.793 0 0 0 .286-.02l.119-.02a.861.861 0 0 0 .158-.02 1.247 1.247 0 0 0 .178-.059l.138-.039c.02-.01.04-.01.049-.02zm.02-11.631l-.039.02a1.285 1.285 0 0 1-.168.079.554.554 0 0 1-.118.039l-.059.02a2.079 2.079 0 0 1-.237.059.482.482 0 0 1-.119.01l-.049.01c-.079 0-.148.01-.227.01a.607.607 0 0 1-.138-.01l-.049-.01a1.647 1.647 0 0 1-.306-.049.288.288 0 0 1-.089-.02l-.03-.02a1.064 1.064 0 0 1-.266-.1.9.9 0 0 1-.138-.069c-.069-.049-.138-.089-.207-.138a.682.682 0 0 1-.128-.109c-.059-.049-.118-.109-.168-.158a1.247 1.247 0 0 1-.109-.128c-.049-.069-.1-.138-.138-.207a.535.535 0 0 1-.069-.128 2.548 2.548 0 0 1-.109-.237.565.565 0 0 1-.039-.138 1.2 1.2 0 0 1-.059-.257c-.01-.049-.01-.109-.02-.158a2.225 2.225 0 0 1-.01-.257 1.235 1.235 0 0 1 .02-.148 1.241 1.241 0 0 1 .049-.276 2.1 2.1 0 0 1 2.033-1.588 2.106 2.106 0 0 1 2.112 2.1 2.121 2.121 0 0 1-1.123 1.862z" class="cls-2" transform="translate(916.12 -143.93)"/>
                <path id="Path_3153" d="M-909.37 152.42a.4.4 0 0 1-.39.39.391.391 0 0 1-.39-.39.391.391 0 0 1 .39-.39.4.4 0 0 1 .39.39z" class="cls-2" transform="translate(916.039 -144.043)"/>
                <path id="Path_3154" d="M-906.5 152.42a.4.4 0 0 1-.39.39.4.4 0 0 1-.39-.39.4.4 0 0 1 .39-.39.4.4 0 0 1 .39.39z" class="cls-2" transform="translate(916.001 -144.043)"/>
            </g>
            <g id="Group_3753" transform="translate(-902.434 149.867)">
                <path id="Path_3155" d="M-898.79 150.16a.214.214 0 0 1-.21.22h-3.01a.214.214 0 0 1-.21-.22.205.205 0 0 1 .21-.21h3.01a.205.205 0 0 1 .21.21z" class="cls-2" transform="translate(902.22 -149.95)"/>
            </g>
            <g id="Group_3754" transform="translate(-903.32 151.554)">
                <path id="Path_3156" d="M-897.03 151.88a.214.214 0 0 1-.22.21h-5.57a.205.205 0 0 1-.21-.21.214.214 0 0 1 .21-.22h5.57a.222.222 0 0 1 .22.22z" class="cls-2" transform="translate(903.03 -151.66)"/>
            </g>
            <g id="Group_3755" transform="translate(-903.32 152.639)">
                <path id="Path_3157" d="M-897.03 152.97a.222.222 0 0 1-.22.22h-5.57a.214.214 0 0 1-.21-.22.205.205 0 0 1 .21-.21h5.57a.214.214 0 0 1 .22.21z" class="cls-2" transform="translate(903.03 -152.76)"/>
            </g>
            <g id="Group_3756" transform="translate(-903.32 153.714)">
                <path id="Path_3158" d="M-897.03 154.06a.222.222 0 0 1-.22.22h-5.57a.214.214 0 0 1-.21-.22.205.205 0 0 1 .21-.21h5.57a.214.214 0 0 1 .22.21z" class="cls-2" transform="translate(903.03 -153.85)"/>
            </g>
            <g id="Group_3757" transform="translate(-903.32 154.789)">
                <path id="Path_3159" d="M-897.03 155.15a.222.222 0 0 1-.22.22h-5.57a.214.214 0 0 1-.21-.22.205.205 0 0 1 .21-.21h5.57a.214.214 0 0 1 .22.21z" class="cls-2" transform="translate(903.03 -154.94)"/>
            </g>
            <g id="Group_3758" transform="translate(-903.32 155.854)">
                <path id="Path_3160" d="M-897.03 156.24a.214.214 0 0 1-.22.21h-5.57a.205.205 0 0 1-.21-.21.214.214 0 0 1 .21-.22h5.57a.222.222 0 0 1 .22.22z" class="cls-2" transform="translate(903.03 -156.02)"/>
            </g>
            <g id="Group_3759" transform="translate(-903.32 156.929)">
                <path id="Path_3161" d="M-897.03 157.33a.214.214 0 0 1-.22.21h-5.57a.205.205 0 0 1-.21-.21.214.214 0 0 1 .21-.22h5.57a.222.222 0 0 1 .22.22z" class="cls-2" transform="translate(903.03 -157.11)"/>
            </g>
            <g id="Group_3760" transform="translate(-904.32 151.554)">
                <path id="Path_3162" d="M-903.57 151.88a.205.205 0 0 1-.21.21h-.16a.214.214 0 0 1-.22-.21.222.222 0 0 1 .22-.22h.16a.214.214 0 0 1 .21.22z" class="cls-2" transform="translate(904.16 -151.66)"/>
            </g>
            <g id="Group_3761" transform="translate(-904.32 152.639)">
                <path id="Path_3163" d="M-903.57 152.97a.214.214 0 0 1-.21.22h-.16a.222.222 0 0 1-.22-.22.214.214 0 0 1 .22-.21h.16a.205.205 0 0 1 .21.21z" class="cls-2" transform="translate(904.16 -152.76)"/>
            </g>
            <g id="Group_3762" transform="translate(-904.32 153.714)">
                <path id="Path_3164" d="M-903.57 154.06a.214.214 0 0 1-.21.22h-.16a.222.222 0 0 1-.22-.22.214.214 0 0 1 .22-.21h.16a.205.205 0 0 1 .21.21z" class="cls-2" transform="translate(904.16 -153.85)"/>
            </g>
            <g id="Group_3763" transform="translate(-904.32 154.789)">
                <path id="Path_3165" d="M-903.57 155.15a.214.214 0 0 1-.21.22h-.16a.222.222 0 0 1-.22-.22.214.214 0 0 1 .22-.21h.16a.205.205 0 0 1 .21.21z" class="cls-2" transform="translate(904.16 -154.94)"/>
            </g>
            <g id="Group_3764" transform="translate(-904.32 155.854)">
                <path id="Path_3166" d="M-903.57 156.24a.205.205 0 0 1-.21.21h-.16a.214.214 0 0 1-.22-.21.222.222 0 0 1 .22-.22h.16a.214.214 0 0 1 .21.22z" class="cls-2" transform="translate(904.16 -156.02)"/>
            </g>
            <g id="Group_3765" transform="translate(-904.32 156.929)">
                <path id="Path_3167" d="M-903.57 157.33a.205.205 0 0 1-.21.21h-.16a.214.214 0 0 1-.22-.21.222.222 0 0 1 .22-.22h.16a.214.214 0 0 1 .21.22z" class="cls-2" transform="translate(904.16 -157.11)"/>
            </g>
            <g id="Group_3766" transform="translate(-898.38 145.76)">
                <path id="Path_3168" d="M-895.29 146.14l-1.68 1.68-1.12-1.11.37-.38.75.75 1.31-1.32z" class="cls-2" transform="translate(898.09 -145.76)"/>
            </g>
        </g>
    </g>
</svg>
