<svg xmlns="http://www.w3.org/2000/svg" width="40" height="40" viewBox="0 0 40 40">
    <defs>
        <style>
            .cls-2{fill:#fff}
        </style>
    </defs>
    <g id="Group_3894" transform="translate(-941 -246)">
        <circle id="Ellipse_1353" cx="20" cy="20" r="20" fill="#01095e" transform="translate(941 246)"/>
        <g id="Group_3867" transform="translate(639.851 -154.763)">
            <path id="Path_3196" d="M319 421.2h-6.447a.439.439 0 0 1-.438-.438v-8.6a.439.439 0 0 1 .438-.438h8.6a.439.439 0 0 1 .438.438v6.446a.483.483 0 1 0 .967 0v-6.446a1.406 1.406 0 0 0-1.4-1.4h-8.6a1.406 1.406 0 0 0-1.4 1.4v8.6a1.405 1.405 0 0 0 1.4 1.4H319a.483.483 0 1 0 0-.966z" class="cls-2"/>
            <path id="Path_3197" d="M329.745 419.359h-2.456a.483.483 0 0 0 0 .967h2.456a.437.437 0 0 1 .437.437v8.6a.437.437 0 0 1-.437.437h-8.6a.437.437 0 0 1-.437-.437v-8.6a.437.437 0 0 1 .437-.437h4.912a.483.483 0 0 0 0-.967h-4.912a1.406 1.406 0 0 0-1.4 1.4v8.6a1.406 1.406 0 0 0 1.4 1.4h8.6a1.406 1.406 0 0 0 1.4-1.4v-8.6a1.406 1.406 0 0 0-1.4-1.4z" class="cls-2"/>
            <path id="Path_3198" d="M320.1 414.317a.484.484 0 0 0-.483-.484h-2.28v-.13a.483.483 0 0 0-.967 0v.13h-2.279a.483.483 0 1 0 0 .967h3.957a7.9 7.9 0 0 1-1.195 2.163 7.829 7.829 0 0 1-.975-1.618.483.483 0 0 0-.882.4 8.76 8.76 0 0 0 1.204 1.955 7.572 7.572 0 0 1-1.438 1.117.484.484 0 0 0-.166.662.5.5 0 0 0 .664.167 8.649 8.649 0 0 0 1.592-1.231 8.6 8.6 0 0 0 1.594 1.231.483.483 0 0 0 .5-.829 7.668 7.668 0 0 1-1.44-1.117 8.74 8.74 0 0 0 .926-1.386 8.447 8.447 0 0 0 .637-1.511h.55a.484.484 0 0 0 .481-.486z" class="cls-2"/>
            <path id="Path_3199" d="M326.009 422.16l-.008-.006a.607.607 0 0 0-1.1.026l-2.086 5.472a.484.484 0 0 0 .282.624.492.492 0 0 0 .621-.28l.4-1.046h2.667l.394 1.044a.485.485 0 0 0 .452.314.485.485 0 0 0 .453-.655l-2.054-5.441zm.409 3.823h-1.934l.971-2.549z" class="cls-2"/>
            <path id="Path_3200" d="M318.064 425.6a.485.485 0 0 0-.678.1.486.486 0 0 0 .1.677l.068.051h-.392a1.667 1.667 0 0 1-1.666-1.666v-1.842a.484.484 0 0 0-.967 0v1.842a2.637 2.637 0 0 0 2.633 2.633h.391l-.068.051a.483.483 0 0 0 .581.772l1.229-.921a.482.482 0 0 0 0-.772z" class="cls-2"/>
            <path id="Path_3201" d="M324.236 415.931a.5.5 0 0 0 .676-.1.482.482 0 0 0-.1-.677l-.068-.051h.393a1.667 1.667 0 0 1 1.665 1.665v1.842a.484.484 0 1 0 .967 0v-1.842a2.635 2.635 0 0 0-2.632-2.632h-.393l.068-.05a.483.483 0 0 0-.22-.865.474.474 0 0 0-.36.091l-1.227.921a.482.482 0 0 0 0 .773z" class="cls-2"/>
        </g>
    </g>
</svg>
