<svg xmlns="http://www.w3.org/2000/svg" width="40" height="40" viewBox="0 0 40 40">
    <defs>
        <style>
            .cls-2{fill:#fff}
        </style>
    </defs>
    <g id="Group_3889" transform="translate(-486 -170)">
        <circle id="Ellipse_1299" cx="20" cy="20" r="20" fill="#01095e" transform="translate(486 170)"/>
        <g id="Group_3878" transform="translate(227.98 -260.702)">
            <path id="Path_3215" d="M288.829 450.332l-2.4-1.686a.452.452 0 0 0-.471-.031.447.447 0 0 0-.243.4v1.236H274a.451.451 0 1 0 0 .9h11.716v1.236a.453.453 0 0 0 .713.369l2.4-1.688a.443.443 0 0 0 .191-.368.449.449 0 0 0-.191-.368z" class="cls-2"/>
            <path id="Path_3216" d="M285.554 455.086a.455.455 0 0 0-.619.165 9.1 9.1 0 1 1 0-9.1.452.452 0 0 0 .619.164.45.45 0 0 0 .165-.615 10 10 0 1 0 0 10 .448.448 0 0 0 .046-.341.453.453 0 0 0-.211-.273z" class="cls-2"/>
        </g>
    </g>
</svg>
