<svg xmlns="http://www.w3.org/2000/svg" width="40" height="40" viewBox="0 0 40 40">
    <defs>
        <style>
            .cls-2{fill:#fff}
        </style>
    </defs>
    <g id="Group_3886" transform="translate(-486 -170)">
        <circle id="Ellipse_1299" cx="20" cy="20" r="20" fill="#01095e" transform="translate(486 170)"/>
        <g id="Group_3880" transform="translate(210.479 -230.332)">
            <path id="Path_3219" d="M291.767 413.367v-1.16a1.718 1.718 0 0 1 1.8-1.875h3.94a1.706 1.706 0 0 1 1.768 1.81c.007.4 0 .8 0 1.225h3.221a2.972 2.972 0 0 1 3 2.647 2.874 2.874 0 0 1 .023.455v13.3c0 .423-.135.567-.533.567h-18.941c-.385 0-.525-.147-.525-.551v-13.367a2.986 2.986 0 0 1 2.87-3.041c1.029-.018 2.058-.005 3.087-.005zm-5.4 16.081h18.31c0-.091.011-.169.011-.247 0-4.215-.007-8.43.005-12.645a2.188 2.188 0 0 0-2.19-2.308c-4.654.023-9.309.009-13.963.011a2.414 2.414 0 0 0-.5.036 2.147 2.147 0 0 0-1.68 2.238v12.669c-.005.078.002.156.007.246zm12.053-16.094c0-.053.009-.077.009-.1v-1.129a.827.827 0 0 0-.828-.917q-2.082-.021-4.165 0a.784.784 0 0 0-.808.706c-.034.475-.008.954-.008 1.44z" class="cls-2"/>
            <path id="Path_3220" d="M295.522 427.3h-4.009c-.459 0-.6-.175-.568-.652a2.058 2.058 0 0 1 1.257-1.829c.377-.177.771-.314 1.15-.484.449-.2.528-.341.5-.845a.386.386 0 0 0-.079-.21 2.883 2.883 0 0 1-.65-1.331.248.248 0 0 0-.076-.134 1.332 1.332 0 0 1-.328-1.454.433.433 0 0 0 .035-.263 2.664 2.664 0 0 1 2.014-3.548 8.3 8.3 0 0 1 1.1-.127.445.445 0 0 1 .45.269.352.352 0 0 0 .193.17 2.278 2.278 0 0 1 1.866 1.848 2.494 2.494 0 0 1-.041 1.28.706.706 0 0 0 .023.4 1.36 1.36 0 0 1-.375 1.441.323.323 0 0 0-.1.179 2.617 2.617 0 0 1-.614 1.268.7.7 0 0 0 .126.874 6.4 6.4 0 0 0 .722.362 10.217 10.217 0 0 1 1.158.574 1.982 1.982 0 0 1 .833 1.749c0 .292-.19.459-.507.46h-2.949zm3.578-.9a.713.713 0 0 0-.431-.68c-.247-.126-.509-.22-.757-.345a8.861 8.861 0 0 1-1.116-.6 1.026 1.026 0 0 1-.446-.97 4.073 4.073 0 0 0 0-.552.591.591 0 0 1 .207-.481 1.924 1.924 0 0 0 .584-1.14.52.52 0 0 1 .283-.433.432.432 0 0 0 .121-.525.589.589 0 0 1-.07-.667 2.164 2.164 0 0 0 .1-.416 1.526 1.526 0 0 0-1.406-1.864.464.464 0 0 1-.349-.177c-.111-.229-.272-.221-.458-.2-.106.013-.213.027-.318.049a1.746 1.746 0 0 0-1.534 1.288 2.138 2.138 0 0 0 .09 1.385.516.516 0 0 1-.06.558.442.442 0 0 0 .128.594.584.584 0 0 1 .222.337 1.692 1.692 0 0 0 .473 1.067 1.069 1.069 0 0 1 .323.964 1.117 1.117 0 0 0 0 .192 1.072 1.072 0 0 1-.483 1.024 7.427 7.427 0 0 1-.976.523c-.324.162-.658.3-.978.469a.61.61 0 0 0-.307.6z" class="cls-2"/>
        </g>
    </g>
</svg>
