<svg xmlns="http://www.w3.org/2000/svg" width="40" height="40" viewBox="0 0 40 40">
    <defs>
        <style>
            .cls-2{fill:#fff}
        </style>
    </defs>
    <g id="Group_3885" transform="translate(-486 -170)">
        <circle id="Ellipse_1299" cx="20" cy="20" r="20" fill="#01095e" transform="translate(486 170)"/>
        <g id="Group_3749" transform="translate(1414.43 -3.71)">
            <g id="Group_3746" transform="translate(-908.322 194.587)">
                <path id="Rectangle_1349" d="M0 0H1.29V1.29H0z" class="cls-2"/>
            </g>
            <g id="Group_3747" transform="translate(-919.43 182.71)">
                <path id="Path_3143" d="M-902.383 182.71a4.979 4.979 0 0 0-4.492 2.886l-.061.143h-8.4l-.3-3.029h-3.8v.808h3.06l1.443 14.377-.194.061a1.92 1.92 0 0 0-1.289 1.811 1.926 1.926 0 0 0 1.924 1.913h1.4l-.143.358a1.937 1.937 0 0 0-.164.757 1.926 1.926 0 0 0 1.924 1.913 1.917 1.917 0 0 0 1.913-1.913 1.891 1.891 0 0 0-.153-.757l-.154-.358h4.369l-.154.358a1.891 1.891 0 0 0-.153.757 1.917 1.917 0 0 0 1.913 1.913 1.919 1.919 0 0 0 1.924-1.913 1.926 1.926 0 0 0-.154-.757l-.154-.358h1.75v-.808h-13.967a1.109 1.109 0 0 1-1.115-1.105 1.118 1.118 0 0 1 1.115-1.115h13.995l.675-6.764.1-.061a4.944 4.944 0 0 0 2.292-4.175 4.954 4.954 0 0 0-4.95-4.942zm-1.5 18.971a1.118 1.118 0 0 1 1.115 1.115 1.109 1.109 0 0 1-1.115 1.105 1.107 1.107 0 0 1-1.105-1.105 1.116 1.116 0 0 1 1.101-1.115zm-7.582 0a1.109 1.109 0 0 1 1.105 1.115 1.1 1.1 0 0 1-1.105 1.105 1.109 1.109 0 0 1-1.115-1.105 1.118 1.118 0 0 1 1.111-1.115zm10.243-3.827h-12.893l-1.136-11.307h8.043l-.041.3a4.318 4.318 0 0 0-.072.808 4.954 4.954 0 0 0 4.942 4.953 4.873 4.873 0 0 0 1.341-.184l.368-.1zm-1.156-6.058a4.144 4.144 0 0 1-4.134-4.144 4.136 4.136 0 0 1 4.134-4.134 4.144 4.144 0 0 1 4.144 4.134 4.153 4.153 0 0 1-4.149 4.148z" class="cls-2" transform="translate(919.43 -182.71)"/>
                <path id="Rectangle_1350" d="M0 0H1.29V1.29H0z" class="cls-2" transform="translate(14.152 11.877)"/>
                <path id="Rectangle_1351" d="M0 0H1.29V1.29H0z" class="cls-2" transform="translate(8.065 11.877)"/>
            </g>
            <g id="Group_3748" transform="translate(-904.38 186.315)">
                <path id="Path_3144" d="M-900.65 186.78l-2.54 2.54-1.69-1.68.56-.56 1.13 1.13 1.98-1.99z" class="cls-2" transform="translate(904.88 -186.22)"/>
            </g>
        </g>
    </g>
</svg>
