<svg xmlns="http://www.w3.org/2000/svg" width="40" height="40" viewBox="0 0 40 40">
    <defs>
        <style>
            .cls-2{fill:#fff}
        </style>
    </defs>
    <g id="Group_3891" transform="translate(-486 -170)">
        <circle id="Ellipse_1299" cx="20" cy="20" r="20" fill="#01095e" transform="translate(486 170)"/>
        <g id="Group_3876" transform="translate(208.51 -230.406)">
            <path id="Path_3212" d="M293.569 417.281c0-1.03.022-2.022 0-3.012a3.915 3.915 0 0 1 5.832-3.374 3.569 3.569 0 0 1 2.01 3.3c.007.92 0 1.841 0 2.761 0 .105.014.209.019.272a9.272 9.272 0 0 1 1.275.268 2.444 2.444 0 0 1 1.756 2.364c.043 2.665.036 5.331.005 8a2.648 2.648 0 0 1-2.673 2.529q-4.282.036-8.565 0a2.689 2.689 0 0 1-2.729-2.747q-.016-3.783 0-7.566a2.7 2.7 0 0 1 2.777-2.774c.082-.002.165-.011.293-.021zm3.907 1.076h-4.171a1.63 1.63 0 0 0-1.731 1.685v7.564a1.631 1.631 0 0 0 1.758 1.732q4.134.009 8.269 0a1.621 1.621 0 0 0 1.8-1.758q.011-3.746 0-7.492a1.631 1.631 0 0 0-1.792-1.729q-2.065-.004-4.133-.002zm2.85-1.07c0-1.134.009-2.232 0-3.329a2.315 2.315 0 0 0-.737-1.628 2.96 2.96 0 0 0-3.164-.679 2.7 2.7 0 0 0-1.774 2.627V417.287z" class="cls-2"/>
            <path id="Path_3213" d="M297.034 425.236a4.114 4.114 0 0 1 0-.43.847.847 0 0 0-.457-.96 1.462 1.462 0 0 1-.523-1.785 1.635 1.635 0 0 1 3.109.2 1.535 1.535 0 0 1-.727 1.7.556.556 0 0 0-.333.594c.017.525.009 1.051 0 1.576 0 .383-.2.609-.507.622-.328.013-.549-.22-.563-.613-.011-.3 0-.6 0-.9zm1.093-2.641a.521.521 0 0 0-.569-.519.548.548 0 0 0-.539.561.565.565 0 0 0 .579.528.549.549 0 0 0 .529-.565z" class="cls-2"/>
        </g>
    </g>
</svg>
