<svg xmlns="http://www.w3.org/2000/svg" width="40" height="40" viewBox="0 0 40 40">
    <defs>
        <style>
            .cls-2{fill:#fff}
        </style>
    </defs>
    <g id="Group_3890" transform="translate(-486 -170)">
        <circle id="Ellipse_1299" cx="20" cy="20" r="20" fill="#01095e" transform="translate(486 170)"/>
        <g id="Group_3877" transform="translate(201.83 -256.272)">
            <path id="Path_3214" d="M311.14 442.1a2.368 2.368 0 0 0-.532-1.382c-1.142-1.319-2.354-2.612-3.6-3.843a2.087 2.087 0 0 0-1.29-.563c-.934-.026-1.932-.038-3.237-.038q-.966 0-1.917.005l-1.5.006c-1.254 0-1.89.683-1.892 2.024V454.322a1.72 1.72 0 0 0 1.815 1.949h10.356a1.7 1.7 0 0 0 1.819-1.945v-1.9c.01-3.181.016-6.79-.022-10.326zm-5.677-1.957a2.079 2.079 0 0 0 2.076 2.239c.483.008.966.007 1.461 0h1.143l.024.329c.015.162.027.319.027.474v10.8c0 1.034-.189 1.229-1.186 1.229h-9.689c-.991 0-1.178-.2-1.178-1.235V438.52c0-.99.193-1.191 1.143-1.192h6.175v1.019c-.002.624-.004 1.21.004 1.794zm3.885 1.185h-.654c-.152 0-.3.006-.46.006-.278 0-.52-.008-.737-.024a1.1 1.1 0 0 1-1.05-1.1c-.032-.462-.025-.93-.018-1.382v-.024c0-.2.007-.4.007-.594v-.265l3.151 3.378z" class="cls-2"/>
            <path id="Rectangle_1501" d="M0 0H6.807V0.955H0z" class="cls-2" transform="translate(300.772 445.161)"/>
            <path id="Rectangle_1502" d="M0 0H6.824V0.958H0z" class="cls-2" transform="translate(300.757 447.697)"/>
            <path id="Rectangle_1503" d="M0 0H4.453V0.94H0z" class="cls-2" transform="translate(300.737 450.232)"/>
        </g>
    </g>
</svg>
