<svg xmlns="http://www.w3.org/2000/svg" width="40" height="40" viewBox="0 0 40 40">
    <defs>
        <style>
            .cls-2{fill:#fff}
        </style>
    </defs>
    <g id="Group_3882" transform="translate(-486 -170)">
        <circle id="Ellipse_1299" cx="20" cy="20" r="20" fill="#01095e" transform="translate(486 170)"/>
        <g id="Group_3740" transform="translate(1504.34 15.75)">
            <g id="Group_3735" transform="translate(-1011.34 165.25)">
                <path id="Path_3133" d="M-987.666 165.255l-12.392-.005c-3.015.005-6.03 0-9.046.005a2.185 2.185 0 0 0-2.126 1.477c-.032.088-.053.177-.079.27l-.031.114v14.255a.533.533 0 0 1 .037.088 2.17 2.17 0 0 0 2.3 1.789h21.338a2.168 2.168 0 0 0 2.326-2.294v-13.405a2.166 2.166 0 0 0-2.327-2.294zm1.052 15.7a.92.92 0 0 1-1.037 1.035h-21.385a.914.914 0 0 1-1.026-1.019v-10.39h23.448zm0-11.65h-23.448v-1.82a.912.912 0 0 1 .979-.967h21.38c.763 0 1.089.328 1.089 1.087z" class="cls-2" transform="translate(1011.34 -165.25)"/>
            </g>
            <g id="Group_3736" transform="translate(-995.544 172.884)">
                <path id="Path_3134" d="M-976.869 181.7a1.738 1.738 0 0 0-1.708-1.749c-.478-.031-.965-.036-1.443-.036h-.654l-.322.005c-.3 0-.415.13-.415.446v5.818c0 .317.073.415.368.467a1.484 1.484 0 0 0 .524-.005c.28-.057.353-.151.353-.462v-2.04h.275c.088 0 .171.005.254 0 .109-.005.223-.005.337-.01a7.053 7.053 0 0 0 .81-.047 1.731 1.731 0 0 0 1.588-1.562 4.234 4.234 0 0 0 .033-.825zm-1.308.924a.715.715 0 0 1-.69.6c-.156.01-.306.016-.462.016-.114 0-.228 0-.343-.005s-.234-.005-.348-.005h-.13v-2.247h.13c.114 0 .234 0 .348-.005.275 0 .54-.005.8.01a.714.714 0 0 1 .69.6 3.446 3.446 0 0 1 .005 1.031z" class="cls-2" transform="translate(981.41 -179.91)"/>
            </g>
            <g id="Group_3737" transform="translate(-1005.825 172.878)">
                <path id="Path_3135" d="M-995.656 180.663l-.441 1.443c-.4 1.339-.815 2.673-1.214 4.017a.714.714 0 0 1-.6.571 1.181 1.181 0 0 1-1.1-.228.754.754 0 0 1-.119-.26c-.581-1.874-1.152-3.747-1.728-5.621-.083-.275-.042-.384.187-.5a1.969 1.969 0 0 1 .6-.176.393.393 0 0 1 .078-.005c.166 0 .249.083.311.3l1.246 4.552c.01.036.021.073.041.13l.171.524 1.4-5.164c.083-.3.2-.374.5-.332a1.405 1.405 0 0 1 .353.1c.371.14.429.275.315.649z" class="cls-2" transform="translate(1000.896 -179.899)"/>
            </g>
            <g id="Group_3738" transform="translate(-998.887 172.894)">
                <path id="Path_3136" d="M-986.45 180.34c-.005.711-.005 1.422-.005 2.138v3.752c0 .27-.057.343-.291.4a1.54 1.54 0 0 1-.529.036c-.327-.042-.415-.145-.415-.493l.005-5.714c0-.4.067-.483.457-.524a1.268 1.268 0 0 1 .14-.005 1.814 1.814 0 0 1 .363.042.318.318 0 0 1 .275.368z" class="cls-2" transform="translate(987.69 -179.93)"/>
            </g>
            <g id="Group_3739" transform="translate(-990.982 178.93)">
                <path id="Path_3137" d="M-970.418 192.168a.61.61 0 0 1-.571.633 10.666 10.666 0 0 1-1.225.005.626.626 0 0 1-.587-.644.638.638 0 0 1 .633-.607h.576l.171-.005c.13 0 .254 0 .379.005a.622.622 0 0 1 .624.613z" class="cls-2" transform="translate(972.801 -191.55)"/>
            </g>
        </g>
    </g>
</svg>
