<svg xmlns="http://www.w3.org/2000/svg" width="40" height="40" viewBox="0 0 40 40">
    <defs>
        <style>
            .cls-2{fill:#fff}
        </style>
    </defs>
    <g id="Group_3881" transform="translate(-486 -170)">
        <circle id="Ellipse_1299" cx="20" cy="20" r="20" fill="#01095e" transform="translate(486 170)"/>
        <g id="Group_3879" transform="translate(209.906 -231.289)">
            <path id="Path_3217" d="M303.33 412.289h-14.472a2.9 2.9 0 0 0-2.764 3.019v11.961a2.9 2.9 0 0 0 2.764 3.02h14.472a2.9 2.9 0 0 0 2.764-3.02v-11.961a2.9 2.9 0 0 0-2.764-3.019zm1.93 11.105h-4.473a2.114 2.114 0 0 1 0-4.212h4.473zm0-5.125h-4.473a3.031 3.031 0 0 0 0 6.039h4.473v2.961a2.026 2.026 0 0 1-1.93 2.106h-14.472a2.026 2.026 0 0 1-1.93-2.106v-11.961a2.026 2.026 0 0 1 1.93-2.106h14.472a2.026 2.026 0 0 1 1.93 2.106z" class="cls-2"/>
            <path id="Path_3218" d="M300.787 421.746h.783a.459.459 0 0 0 0-.914h-.783a.459.459 0 0 0 0 .914z" class="cls-2"/>
        </g>
    </g>
</svg>
